<svg width="199" height="15" viewBox="0 0 199 15" fill="none" xmlns="http://www.w3.org/2000/svg">
<g clip-path="url(#clip0_1342_12690)">
<path d="M176.303 7.73695V2.67793C176.303 2.41893 176.296 2.15891 176.308 1.89991C176.373 0.551913 176.731 0.149958 178.052 0.0829579C178.924 0.0389579 179.801 0.082935 180.676 0.096935C181.052 0.0905676 181.421 0.203203 181.729 0.418712C182.037 0.634221 182.27 0.941593 182.393 1.29695C182.971 2.63495 183.558 3.96691 184.136 5.30391C184.922 7.11524 185.707 8.92795 186.489 10.742C186.566 10.92 186.639 11.101 186.723 11.276C186.823 11.486 186.948 11.6699 187.223 11.6549C187.498 11.6399 187.606 11.455 187.697 11.234C187.797 10.995 187.909 10.7619 188.012 10.5239C189.248 7.67194 190.484 4.81929 191.718 1.96595C191.834 1.69895 191.96 1.4349 192.081 1.1659C192.2 0.861749 192.405 0.599021 192.672 0.409862C192.938 0.220704 193.254 0.113323 193.581 0.100902C194.614 0.00661528 195.654 0.0130215 196.687 0.119945C197.552 0.230945 197.855 0.561948 197.971 1.43495C198.019 1.82074 198.042 2.2092 198.039 2.59791C198.043 6.16391 198.043 9.73059 198.039 13.2979C198.039 13.4599 198.033 13.6219 198.039 13.7849C198.05 14.2249 197.858 14.4419 197.398 14.4289C196.782 14.4119 196.167 14.4229 195.551 14.4229C195.478 14.4338 195.403 14.4275 195.333 14.4044C195.264 14.3812 195.2 14.342 195.148 14.2898C195.096 14.2376 195.058 14.174 195.035 14.104C195.012 14.034 195.006 13.9596 195.018 13.8869C195.018 13.6599 195.018 13.4329 195.018 13.2059C195.018 10.0939 195.018 6.98091 195.01 3.86891C195.01 3.61391 195.182 3.2229 194.78 3.1349C194.394 3.0509 194.345 3.44493 194.231 3.69593C192.947 6.5266 191.666 9.35993 190.387 12.1959C190.266 12.4626 190.14 12.7253 190.01 12.984C189.789 13.4339 189.445 13.8117 189.018 14.0734C188.59 14.3351 188.097 14.4699 187.595 14.4619C186.792 14.5975 185.967 14.4317 185.279 13.9963C184.59 13.561 184.086 12.8867 183.864 12.1029C182.757 9.40992 181.489 6.78294 180.289 4.12794C180.222 3.97994 180.16 3.82792 180.088 3.68592C179.966 3.43692 179.916 3.04093 179.53 3.14393C179.144 3.24693 179.313 3.63296 179.312 3.89296C179.301 6.97296 179.305 10.0529 179.304 13.1329C179.304 13.3929 179.305 13.6519 179.3 13.9109C179.3 14.2759 179.1 14.4319 178.749 14.4309C178.262 14.4309 177.776 14.4309 177.289 14.4309C176.31 14.4239 176.303 14.4219 176.3 13.4719C176.294 11.8829 176.3 10.2949 176.3 8.70594L176.303 7.73695Z" fill="white"/>
<path d="M148.38 5.27895C148.38 3.88495 148.38 2.4909 148.38 1.0959C148.38 0.124901 148.44 0.074942 149.444 0.062942C149.898 0.057942 150.352 0.044942 150.806 0.062942C151.432 0.094942 151.513 0.187914 151.548 0.821914C151.56 1.04791 151.548 1.27594 151.548 1.50294C151.548 3.93494 151.524 6.36693 151.556 8.79793C151.584 10.9409 152.168 11.4889 154.308 11.4979C156.189 11.5029 158.069 11.4979 159.95 11.4979C160.209 11.5032 160.468 11.4946 160.727 11.4719C160.973 11.4793 161.217 11.4356 161.446 11.3438C161.674 11.2519 161.88 11.1137 162.052 10.9381C162.224 10.7624 162.358 10.553 162.446 10.323C162.533 10.0931 162.571 9.84756 162.559 9.60194C162.603 9.08594 162.6 8.56595 162.602 8.04695C162.602 5.77595 162.602 3.50793 162.602 1.23793C162.602 0.0819298 162.623 0.0659044 163.814 0.0619044C164.138 0.0619044 164.463 0.0619044 164.787 0.0619044C165.722 0.0789044 165.787 0.133923 165.787 1.05592C165.793 3.51992 165.787 5.98393 165.793 8.44893C165.794 9.16193 165.75 9.87428 165.663 10.5819C165.628 11.5011 165.263 12.377 164.636 13.0497C164.009 13.7224 163.16 14.147 162.246 14.2459C161.771 14.3502 161.287 14.4071 160.801 14.4159H153.408C152.856 14.4068 152.307 14.3398 151.77 14.216C150.927 14.0915 150.149 13.6881 149.562 13.0701C148.975 12.4522 148.612 11.6554 148.531 10.8069C148.414 10.1031 148.358 9.39045 148.364 8.67696C148.392 7.54796 148.38 6.41395 148.38 5.27895Z" fill="white"/>
<path d="M103.802 0.0619601C106.302 0.0619601 108.796 0.0619601 111.292 0.0619601C112.306 0.0619601 112.328 0.0969332 112.335 1.09693C112.335 1.48593 112.345 1.87499 112.335 2.26399C112.314 2.94899 112.235 3.04394 111.535 3.04994C109.882 3.06694 108.227 3.05598 106.574 3.05598C106.347 3.05598 106.121 3.06398 105.894 3.05598C105.557 3.04398 105.432 3.21797 105.441 3.53297C105.447 3.75997 105.441 3.98694 105.441 4.21394V13.1639C105.441 13.391 105.442 13.618 105.437 13.845C105.429 14.233 105.253 14.445 104.836 14.434C104.187 14.423 103.536 14.421 102.889 14.434C102.422 14.443 102.253 14.203 102.263 13.773C102.269 13.546 102.263 13.319 102.263 13.092V3.85298C102.263 3.07098 102.253 3.06298 101.469 3.06098C99.7835 3.05598 98.0964 3.06098 96.4114 3.06098C95.4114 3.06098 95.4006 3.03799 95.3926 2.00599C95.3926 1.71466 95.3926 1.42299 95.3926 1.13099C95.4006 0.0759909 95.4014 0.0679884 96.5024 0.0659884C98.9378 0.0573217 101.371 0.0559601 103.802 0.0619601Z" fill="white"/>
<path d="M85.5017 7.30592C85.5017 9.37392 85.5017 11.4469 85.5017 13.5169C85.5017 14.4169 85.4816 14.4229 84.5686 14.4339C84.0506 14.4399 83.5336 14.4239 83.0156 14.4339C82.5776 14.4459 82.3425 14.277 82.3605 13.815C82.3705 13.589 82.3605 13.3619 82.3605 13.1359V1.39595C82.3605 1.16995 82.3705 0.942929 82.3605 0.716929C82.3435 0.325929 82.5106 0.0859146 82.9096 0.0769146C83.5886 0.0619146 84.2687 0.0589146 84.9467 0.0769146C85.4927 0.0909146 85.5085 0.482927 85.5075 0.901927C85.4965 3.03593 85.5017 5.17092 85.5017 7.30592Z" fill="white"/>
<path d="M70.7013 7.05191C71.1908 6.66145 71.5649 6.14515 71.7836 5.55838C72.0022 4.97161 72.0569 4.33643 71.9422 3.72086C71.9272 3.46186 71.9354 3.20188 71.9164 2.94388C71.9292 2.23621 71.6642 1.55169 71.1781 1.0372C70.692 0.522712 70.0235 0.219223 69.3163 0.191865C68.706 0.110074 68.091 0.0676994 67.4752 0.0649116C64.0062 0.0529116 60.5392 0.0589116 57.0692 0.0649116C56.8102 0.0649116 56.5503 0.0648794 56.2923 0.0818794C56.2022 0.0786966 56.1125 0.0951725 56.0294 0.130097C55.9463 0.165022 55.8717 0.217568 55.8109 0.28415C55.7501 0.350732 55.7046 0.429712 55.6774 0.515656C55.6501 0.6016 55.6421 0.692458 55.6534 0.781892C55.6534 0.976892 55.6534 1.17088 55.6534 1.36588V13.7179C55.6534 14.1819 55.8534 14.4559 56.3534 14.4389C56.5154 14.4339 56.6772 14.4389 56.8402 14.4389H68.2103C68.5671 14.4441 68.924 14.4304 69.2794 14.3979C69.9529 14.3807 70.5973 14.1204 71.0936 13.6648C71.59 13.2093 71.9047 12.5894 71.9794 11.9199C72.0563 11.3094 72.085 10.6939 72.0653 10.0789C72.1436 9.49727 72.0574 8.90532 71.8163 8.37027C71.5752 7.83522 71.1889 7.37851 70.7013 7.05191ZM58.8104 3.51187C58.7994 3.11187 58.9223 2.93089 59.3573 2.93289C62.1053 2.94689 64.8574 2.92286 67.6024 2.94986C68.5944 2.95986 68.9242 3.38286 68.9322 4.44986C68.9412 5.57186 68.6144 5.99086 67.5714 6.02286C66.2144 6.06386 64.8534 6.03287 63.4974 6.03287C62.1394 6.03287 60.7802 6.0169 59.4232 6.0419C58.9692 6.0499 58.7803 5.92586 58.8063 5.44186C58.8393 4.79586 58.8274 4.14786 58.8114 3.50186L58.8104 3.51187ZM68.8182 10.9699C68.7607 11.1043 68.6708 11.2223 68.5565 11.3134C68.4422 11.4045 68.307 11.4658 68.1632 11.4919C67.7823 11.5624 67.3966 11.6031 67.0094 11.6139C64.5847 11.6245 62.1602 11.6245 59.7362 11.6139C58.8232 11.6139 58.8213 11.6029 58.8143 10.7139C58.8143 10.1319 58.8403 9.54888 58.8053 8.96988C58.7773 8.47988 58.9243 8.2869 59.4483 8.2999C60.7723 8.3319 62.0982 8.31088 63.4232 8.31088C64.7152 8.31088 66.0094 8.2849 67.3014 8.3179C67.618 8.29837 67.9338 8.36782 68.213 8.5184C68.4922 8.66898 68.7236 8.89465 68.8812 9.16995C69.0388 9.44525 69.1163 9.75918 69.1048 10.0762C69.0934 10.3932 68.9934 10.7007 68.8163 10.9639L68.8182 10.9699Z" fill="white"/>
<path d="M45.0732 13.2389C44.1352 12.0449 43.1733 10.8699 42.1933 9.65194C42.4423 9.55694 42.6142 9.47995 42.7931 9.42495C43.391 9.25816 43.9256 8.91661 44.3281 8.44412C44.7305 7.97162 44.9826 7.38967 45.0522 6.77291C45.2674 5.55757 45.2698 4.31408 45.0593 3.09793C44.9859 2.34647 44.6501 1.64489 44.111 1.11624C43.5719 0.587583 42.864 0.265633 42.1113 0.206934C41.5017 0.120474 40.8869 0.0750521 40.2712 0.0709478C36.9982 0.0579478 33.7254 0.0649664 30.4514 0.0649664C30.3224 0.0649664 30.1912 0.0599664 30.0632 0.0649664C29.2922 0.105966 29.1553 0.238954 29.1183 0.976954C29.1113 1.10595 29.1183 1.23593 29.1183 1.36593V13.8109C29.1183 14.2599 29.3433 14.4489 29.7853 14.4389C30.3363 14.4269 30.8852 14.4449 31.4382 14.4389C32.2282 14.4259 32.2734 14.3919 32.2844 13.6239C32.2994 12.6239 32.3034 11.6149 32.2844 10.6109C32.2744 10.1399 32.3842 9.91091 32.9262 9.92391C34.7402 9.95591 36.5553 9.94891 38.3703 9.92391C38.5451 9.91484 38.7191 9.95342 38.8737 10.0355C39.0283 10.1176 39.1578 10.24 39.2482 10.3899C39.8182 11.1759 40.4032 11.954 41.0082 12.714C41.4502 13.27 41.7423 14.024 42.3683 14.333C43.055 14.5245 43.7763 14.5563 44.4772 14.4259C44.8642 14.4209 45.4072 14.6739 45.6132 14.2049C45.7832 13.8069 45.3042 13.5309 45.0732 13.2389ZM42.0082 5.57296C41.9462 6.89996 41.4711 7.37291 40.1481 7.39791C38.9481 7.41791 37.7483 7.39791 36.5483 7.39791C35.3483 7.39791 34.1482 7.37496 32.9482 7.40896C32.4372 7.42296 32.2662 7.25596 32.2802 6.74996C32.3082 5.68196 32.3012 4.61193 32.2802 3.54293C32.2722 3.09293 32.4232 2.91192 32.8972 2.91592C35.3592 2.93392 37.8212 2.90997 40.2822 2.93197C40.5017 2.8982 40.726 2.9144 40.9384 2.97946C41.1508 3.04452 41.3458 3.1567 41.5087 3.30764C41.6717 3.45859 41.7985 3.64443 41.8796 3.85122C41.9607 4.05802 41.9941 4.28043 41.9772 4.50192C42.0091 4.85632 42.0164 5.21254 41.9992 5.56796L42.0082 5.57296Z" fill="white"/>
<path d="M138.421 13.5919C137.572 12.5279 136.711 11.4749 135.864 10.4099C135.619 10.1925 135.435 9.9141 135.332 9.6029C135.458 9.5619 135.578 9.51489 135.701 9.48089C136.355 9.3265 136.943 8.96828 137.379 8.45794C137.816 7.94759 138.079 7.31158 138.13 6.6419C138.332 5.39188 138.309 4.11596 138.063 2.87389C137.955 2.1775 137.617 1.53732 137.103 1.05517C136.589 0.573009 135.928 0.276532 135.226 0.212881C134.65 0.122413 134.068 0.0743017 133.485 0.0688989C130.115 0.0555656 126.745 0.0555656 123.375 0.0688989C122.27 0.0688989 122.22 0.125914 122.219 1.22191C122.219 5.27258 122.219 9.32323 122.219 13.3739C122.219 13.5359 122.225 13.6979 122.219 13.8609C122.205 14.2699 122.4 14.4489 122.806 14.4419C123.389 14.4319 123.973 14.4509 124.556 14.4419C125.286 14.4259 125.339 14.3789 125.35 13.6729C125.366 12.6999 125.356 11.7289 125.35 10.7569C125.35 9.89989 125.317 9.93689 126.118 9.93889C127.835 9.93889 129.553 9.96289 131.269 9.92589C131.491 9.91082 131.713 9.95714 131.91 10.0598C132.107 10.1625 132.273 10.3176 132.387 10.5079C133.225 11.6599 134.112 12.7789 134.956 13.9259C135.068 14.1024 135.225 14.2449 135.412 14.3378C135.599 14.4308 135.807 14.4705 136.015 14.4529C136.694 14.4219 137.376 14.4529 138.056 14.4419C138.271 14.4419 138.54 14.5259 138.671 14.2769C138.83 13.9709 138.575 13.7839 138.421 13.5919ZM135.047 5.99792C135.03 6.3596 134.878 6.7016 134.62 6.95586C134.362 7.21012 134.018 7.358 133.656 7.36992C133.4 7.39769 133.141 7.40737 132.883 7.39892C130.621 7.39892 128.36 7.39892 126.098 7.39892C125.368 7.39892 125.362 7.38789 125.357 6.65789C125.35 5.68856 125.35 4.7192 125.357 3.74987C125.362 2.93487 125.369 2.93087 126.236 2.92687C127.399 2.92687 128.562 2.92687 129.724 2.92687C130.886 2.92687 132.05 2.91487 133.212 2.92687C134.525 2.94387 135.034 3.44291 135.077 4.73791C135.103 5.15669 135.093 5.57688 135.046 5.99389L135.047 5.99792Z" fill="white"/>
<path d="M19.2172 13.8629C19.0952 13.6339 18.9711 13.4069 18.8461 13.1799L13.5461 3.57196C13.1551 2.86396 12.7553 2.16093 12.3723 1.44793C12.151 1.03231 11.8225 0.683394 11.4211 0.437252C11.0197 0.191109 10.5598 0.0566604 10.0891 0.0479083C9.35333 -0.0793896 8.5964 0.0487802 7.94355 0.411128C7.29071 0.773477 6.78136 1.34821 6.50019 2.03991C4.53219 5.82991 2.43511 9.55291 0.389111 13.3029C0.296111 13.4729 0.189255 13.6379 0.112255 13.8149C-0.0947447 14.2869 -0.0358678 14.4079 0.461132 14.4229C1.23813 14.4439 2.01616 14.4139 2.79316 14.4359C2.97056 14.4461 3.14659 14.3986 3.29463 14.3003C3.44267 14.202 3.55477 14.0584 3.61421 13.8909C3.90421 13.3129 4.25811 12.7649 4.51411 12.1739C4.59421 11.9488 4.74998 11.7585 4.95478 11.6354C5.15959 11.5123 5.40077 11.4641 5.63716 11.499C8.00216 11.531 10.3662 11.5099 12.7312 11.5139C13.2739 11.4291 13.8279 11.4536 14.361 11.5859C14.866 11.8219 14.9901 12.5279 15.2841 13.0259C16.2621 14.6829 15.6902 14.395 17.4472 14.426C18.0552 14.426 18.4762 14.426 18.8962 14.426C19.3162 14.426 19.3992 14.2029 19.2172 13.8629ZM13.017 9.10595H6.38813C6.25313 8.87295 6.41517 8.71796 6.50117 8.55596C7.36784 6.9273 8.23677 5.30094 9.1081 3.67694C9.19453 3.50365 9.29655 3.33865 9.41304 3.18396C9.44015 3.14311 9.47685 3.10935 9.51973 3.08557C9.5626 3.06179 9.61061 3.04867 9.65962 3.0473C9.70863 3.04593 9.75708 3.05635 9.80122 3.07769C9.84536 3.09904 9.88368 3.13065 9.91304 3.16992C9.97429 3.24468 10.0246 3.32788 10.0622 3.41693C11.0475 5.23759 12.0311 7.05892 13.0131 8.88092C13.0381 8.92792 13.0131 8.99995 13.0131 9.10595H13.017Z" fill="white"/>
</g>
<defs>
<clipPath id="clip0_1342_12690">
<rect width="198.042" height="14.508" fill="white"/>
</clipPath>
</defs>
</svg>
