<?xml version="1.0" encoding="UTF-8" standalone="no"?>
<svg
   width="197.51717"
   height="40"
   viewBox="0 0 197.51717 40"
   fill="none"
   version="1.1"
   id="svg844"
   xmlns="http://www.w3.org/2000/svg"
   xmlns:svg="http://www.w3.org/2000/svg">
  <defs
     id="defs848" />
  <path
     d="m 53.473076,13.026461 h 2.146646 l 6.006677,13.943431 h -2.835918 l -1.299848,-3.190479 h -6.046057 l -1.260464,3.190479 h -2.776877 z m 3.151036,8.626028 -2.146646,-5.671901 -2.186088,5.671901 z"
     fill="#ffffff"
     id="path824"
     style="stroke-width:0.0618239" />
  <path
     d="m 64.2881,13.026461 h 2.855642 l 3.800928,10.536321 3.919011,-10.536321 h 2.678824 l -5.632768,13.943431 h -2.146522 z"
     fill="#ffffff"
     id="path826"
     style="stroke-width:0.0618239" />
  <path
     d="m 86.41051,13.026461 h 2.147142 l 6.006182,13.943431 h -2.835857 l -1.299536,-3.190479 h -6.046369 l -1.260587,3.190479 h -2.776508 z m 3.151161,8.626028 -2.146522,-5.671901 -2.186091,5.671901 z"
     fill="#ffffff"
     id="path828"
     style="stroke-width:0.0618239" />
  <path
     d="m 100.05255,13.026461 h 2.48161 v 11.6983 h 5.92766 v 2.245131 h -8.40927 z"
     fill="#ffffff"
     id="path830"
     style="stroke-width:0.0618239" />
  <path
     d="m 118.71345,13.026461 h 2.14714 l 6.00618,13.943431 h -2.83586 l -1.29953,-3.190479 h -6.04637 l -1.26059,3.190479 h -2.77651 z m 3.15116,8.626028 -2.14652,-5.671901 -2.18609,5.671901 z"
     fill="#ffffff"
     id="path832"
     style="stroke-width:0.0618239" />
  <path
     d="m 132.35549,13.026461 h 3.28903 l 6.75486,10.359073 h 0.0396 V 13.026461 h 2.48099 v 13.943431 h -3.15054 l -6.89336,-10.69391 h -0.0389 v 10.69391 h -2.48161 z"
     fill="#ffffff"
     id="path834"
     style="stroke-width:0.0618239" />
  <path
     d="m 161.54003,16.295642 c -0.5119,-0.551407 -1.01082,-0.919011 -1.49675,-1.102875 -0.47295,-0.183802 -0.95209,-0.275672 -1.4374,-0.275672 -0.72211,0 -1.37868,0.131251 -1.96971,0.393879 -0.57744,0.249459 -1.07635,0.603957 -1.49675,1.063493 -0.42041,0.446368 -0.74807,0.971561 -0.98486,1.575518 -0.22318,0.603956 -0.33446,1.253848 -0.33446,1.949675 0,0.748377 0.11128,1.437713 0.33446,2.067883 0.23679,0.630232 0.56445,1.175085 0.98486,1.634621 0.4204,0.459537 0.91931,0.820588 1.49675,1.083215 0.59103,0.262566 1.2476,0.393879 1.96971,0.393879 0.56445,0 1.10911,-0.131313 1.63462,-0.393879 0.53786,-0.275734 1.03678,-0.708995 1.49675,-1.299845 l 2.04761,1.457372 c -0.62999,0.866522 -1.39784,1.496754 -2.30418,1.890634 -0.90572,0.39388 -1.87079,0.590849 -2.89459,0.590849 -1.07697,0 -2.068,-0.170696 -2.97372,-0.512085 -0.89336,-0.354498 -1.66801,-0.846801 -2.32396,-1.477033 -0.64359,-0.643339 -1.14931,-1.411438 -1.51654,-2.304235 -0.36785,-0.892798 -0.55146,-1.88408 -0.55146,-2.973787 0,-1.115981 0.18361,-2.126986 0.55146,-3.03289 0.36723,-0.919073 0.87295,-1.700278 1.51654,-2.343617 0.65595,-0.643338 1.4306,-1.135703 2.32396,-1.477032 0.90572,-0.354498 1.89675,-0.531747 2.97372,-0.531747 0.94529,0 1.81824,0.170696 2.61886,0.512025 0.81422,0.328222 1.56909,0.892797 2.26522,1.693725 z"
     fill="#ffffff"
     id="path836"
     style="stroke-width:0.0618239" />
  <path
     d="m 169.3898,13.026461 h 2.48099 v 5.553694 h 6.5187 v -5.553694 h 2.48161 v 13.943431 h -2.48161 v -6.144606 h -6.5187 v 6.144606 h -2.48099 z"
     fill="#ffffff"
     id="path838"
     style="stroke-width:0.0618239" />
  <path
     d="m 187.92581,13.026461 h 9.23648 v 2.245131 h -6.75487 v 3.42677 h 6.40062 v 2.245131 h -6.40062 v 3.781268 h 7.10974 v 2.245131 h -9.59135 z"
     fill="#ffffff"
     id="path840"
     style="stroke-width:0.0618239" />
  <path
     fill-rule="evenodd"
     clip-rule="evenodd"
     d="M 40,20 C 40,31.045688 31.045688,40 20,40 8.9543124,40 0,31.045688 0,20 0,8.9543124 8.9543124,0 20,0 31.045688,0 40,8.9543124 40,20 Z M 14.332612,27.958579 H 10.45119 c -0.8155795,0 -1.2184851,0 -1.464173,-0.157218 C 8.7217312,27.629366 8.5595673,27.344421 8.5399074,27.029985 8.525194,26.740094 8.7266152,26.386337 9.1295211,25.678826 L 18.713261,8.7861517 c 0.40779,-0.7173418 0.614158,-1.0759816 0.87456,-1.2086556 0.280062,-0.1424419 0.614158,-0.1424419 0.894219,0 0.260402,0.132674 0.46677,0.4913138 0.87456,1.2086556 l 1.970201,3.4392583 0.01008,0.01756 v 0 c 0.440433,0.769583 0.663802,1.159815 0.761298,1.569398 0.108068,0.447109 0.108068,0.918763 0,1.365873 -0.09824,0.412736 -0.319381,0.805811 -0.766491,1.587017 l -5.034065,8.898856 -0.01304,0.02281 c -0.443401,0.775889 -0.668068,1.169089 -0.979475,1.465904 -0.33898,0.324268 -0.74677,0.560062 -1.193879,0.692737 -0.40779,0.113014 -0.86473,0.113014 -1.778609,0.113014 z m 9.801917,5.3e-4 h 5.561794 v 0 c 0.820523,0 1.233199,0 1.478886,-0.162103 0.265287,-0.171992 0.432335,-0.461885 0.447109,-0.776322 0.01421,-0.280307 -0.182875,-0.6204 -0.569087,-1.286737 -0.01318,-0.02275 -0.02659,-0.04581 -0.04019,-0.0693 l -2.785782,-4.765811 -0.03172,-0.0536 c -0.391467,-0.662071 -0.589179,-0.996353 -0.842843,-1.125565 -0.280062,-0.142503 -0.609211,-0.142503 -0.889273,0 -0.255518,0.132613 -0.461886,0.481484 -0.869676,1.18405 l -2.77595,4.765811 -0.0095,0.01645 c -0.406368,0.701453 -0.609459,1.051996 -0.594807,1.339662 0.01966,0.314436 0.181762,0.604327 0.44711,0.776258 0.240742,0.157218 0.653416,0.157218 1.473941,0.157218 z"
     fill="#ffffff"
     id="path842"
     style="stroke-width:0.0618239" />
</svg>
