<svg width="117" height="33" viewBox="0 0 117 33" fill="none" xmlns="http://www.w3.org/2000/svg">
<g clip-path="url(#clip0_167:8412)">
<path d="M32.6289 3.86847H37.9639C39.3199 3.86847 40.3143 4.23623 40.9471 4.8813C41.235 5.12991 41.4653 5.44014 41.6216 5.78981C41.7779 6.13948 41.8562 6.51995 41.8511 6.90401C41.8659 7.21335 41.8354 7.52319 41.7607 7.82342C41.5768 8.30346 41.3001 8.74114 40.9471 9.1106C40.7886 9.26413 40.605 9.38855 40.4047 9.47836C41.023 9.66896 41.5831 10.0171 42.0319 10.4897C42.3935 10.9494 42.5743 11.5011 42.5743 12.3285C42.5806 12.8026 42.4882 13.2726 42.3031 13.7077C42.0774 14.1079 41.769 14.4535 41.3991 14.7205C40.9652 14.9724 40.5117 15.1877 40.0431 15.3641C39.5007 15.548 38.8679 15.548 38.2351 15.548H32.7149V3.86847H32.6289ZM37.5119 8.6509C37.9771 8.64824 38.4375 8.55459 38.8679 8.37507C39.034 8.28893 39.1729 8.15705 39.2688 7.99449C39.3647 7.83192 39.4137 7.64521 39.4103 7.45566C39.4117 7.277 39.3715 7.10054 39.2929 6.94073C39.2143 6.78093 39.0997 6.64232 38.9583 6.53625C38.7788 6.40135 38.573 6.30698 38.3548 6.25941C38.1366 6.21185 37.9108 6.21219 37.6927 6.26042H35.1615V8.74284H37.5119V8.6509ZM38.1447 13.3399C38.6099 13.3372 39.0703 13.2436 39.5007 13.0641C39.6799 12.9752 39.8231 12.8257 39.9056 12.6411C39.9881 12.4565 40.0047 12.2485 39.9527 12.0527C39.9541 11.8741 39.9139 11.6976 39.8353 11.5378C39.7567 11.378 39.6421 11.2394 39.5007 11.1333C39.0601 10.8801 38.5603 10.753 38.0543 10.7655H35.0712V13.3399H38.1447Z" fill="white"/>
<path d="M45.7402 3.86846H48.2714V15.6399H45.7402V3.86846Z" fill="white"/>
<path d="M52.1582 3.86846H54.51L59.934 11.1333V3.86846H62.4652V15.6399H60.2956L54.6004 8.19118V15.6399H52.1582V3.86846Z" fill="white"/>
<path d="M70.1507 3.77947H72.501L77.4774 15.6429H74.8529L73.7681 12.9736H68.8851L67.8003 15.6429H65.1758L70.1507 3.77947ZM72.8641 10.7685L71.3259 6.91289L69.7891 10.7685H72.8641Z" fill="white"/>
<path d="M80.1855 3.86846H82.5359L87.9614 11.1333V3.86846H90.4925V15.6399H88.323L82.7167 8.19118V15.6399H80.1855V3.86846Z" fill="white"/>
<path d="M99.7164 15.8238C98.9123 15.8133 98.1165 15.6576 97.366 15.3641C95.9436 14.7444 94.8106 13.5915 94.202 12.1446C93.9134 11.3813 93.7603 10.5719 93.75 9.75417C93.7734 8.14646 94.3859 6.60551 95.4676 5.43293C96.0019 4.87094 96.6482 4.43158 97.3631 4.14427C98.1349 3.81494 98.9673 3.65817 99.8039 3.68456C100.288 3.66935 100.772 3.70013 101.25 3.77651C101.657 3.84353 102.053 3.96728 102.427 4.14427C102.769 4.30908 103.101 4.49377 103.421 4.6974C103.744 4.91588 104.047 5.16407 104.325 5.43886L102.788 7.36666C102.358 6.99962 101.905 6.66178 101.431 6.35531C100.961 6.09403 100.43 5.96696 99.8942 5.98755C99.429 5.99021 98.9687 6.08385 98.5383 6.26337C98.1078 6.43079 97.732 6.71743 97.4535 7.09084C97.1585 7.45392 96.9132 7.85599 96.7244 8.28608C96.5479 8.72384 96.4559 9.19205 96.4532 9.66519C96.4555 10.1682 96.5474 10.6666 96.7244 11.1363C96.8786 11.5841 97.1275 11.9921 97.4535 12.3315C97.7593 12.6819 98.1354 12.9616 98.5564 13.1519C98.9774 13.3422 99.4336 13.4387 99.8942 13.4348C100.487 13.4459 101.074 13.3201 101.612 13.067C102.1 12.7832 102.556 12.4439 102.969 12.0557L104.598 13.7151L103.694 14.6359C103.353 14.8843 102.99 15.0998 102.609 15.2795C102.208 15.4877 101.782 15.6423 101.342 15.7392C100.803 15.8109 100.259 15.8416 99.7149 15.8312L99.7164 15.8238Z" fill="white"/>
<path d="M107.492 3.86846H116.172V6.16848H109.933V8.55895H115.449V10.8575H109.933V13.3399H116.262V15.6399H107.492V3.86846Z" fill="white"/>
<path d="M35.8859 27.226C35.2629 27.2463 34.6438 27.1205 34.0764 26.8582C33.534 26.6743 32.9916 26.3065 32.4492 25.8468L33.3532 24.8355C33.7148 25.2032 34.0822 25.3871 34.5299 25.663C34.9603 25.8425 35.4207 25.9361 35.8859 25.9388C36.2637 25.9347 36.6354 25.8402 36.9707 25.663C37.089 25.5819 37.1846 25.4709 37.248 25.3409C37.3114 25.2109 37.3404 25.0664 37.3323 24.9215C37.3457 24.7919 37.3136 24.6617 37.2419 24.5537C37.1515 24.4618 37.0611 24.2779 36.9707 24.186L36.4283 23.9087C36.1571 23.8167 35.7955 23.7248 35.5243 23.6328C35.1209 23.5526 34.727 23.4293 34.3491 23.2651C34.0501 23.1684 33.773 23.0121 33.534 22.8054C33.3313 22.611 33.1495 22.3952 32.9916 22.1618C32.8521 21.8444 32.79 21.4974 32.8108 21.1504C32.8271 20.8067 32.8879 20.4666 32.9916 20.1391C33.082 19.8632 33.3532 19.5874 33.534 19.3976C33.8061 19.1901 34.1129 19.0343 34.4395 18.9379C34.7924 18.8321 35.1567 18.7703 35.5243 18.754C36.0778 18.7559 36.6273 18.849 37.1515 19.0298C37.6217 19.2407 38.0751 19.4886 38.5075 19.7713L37.7784 20.8746C37.4373 20.6262 37.0741 20.4107 36.6936 20.231C36.332 20.0471 35.9646 20.0471 35.6088 20.0471C35.2582 20.0398 34.9129 20.1356 34.6144 20.3229C34.4061 20.5149 34.2765 20.7796 34.2514 21.0644C34.2372 21.2235 34.2691 21.3833 34.3432 21.5241C34.4336 21.6161 34.524 21.7999 34.6144 21.8919C34.8199 22.0007 35.0334 22.093 35.2531 22.1677C35.5778 22.2832 35.91 22.3754 36.2475 22.4435C36.6475 22.5367 37.0403 22.6597 37.4227 22.8113C37.712 22.9287 37.9854 23.0832 38.2363 23.271C38.4162 23.4626 38.5684 23.6793 38.6883 23.9146C38.8004 24.2091 38.8616 24.5212 38.8691 24.837C38.861 25.1816 38.8 25.5229 38.6883 25.8483C38.5061 26.1457 38.294 26.423 38.0555 26.6758C37.7837 26.883 37.4775 27.0387 37.1515 27.1355C36.6995 27.134 36.2475 27.226 35.8859 27.226Z" fill="white"/>
<path d="M40.4043 18.8578H41.9411L44.3833 22.7194L46.9145 18.8578H48.4513V27.134H47.0049V21.1564L44.4737 25.0179H44.3833L41.8507 21.1564V27.134H40.4043V18.8578Z" fill="white"/>
<path d="M53.3347 18.7659H54.6921L58.2177 27.0421H56.6809L55.8673 25.0194H52.0764L51.2628 27.0421H49.8164L53.3347 18.7659ZM55.4153 23.8227L53.9689 20.5128L52.6115 23.8227H55.4153Z" fill="white"/>
<path d="M59.6627 18.8578H63.2801C63.7369 18.8738 64.1911 18.9354 64.6361 19.0417C65.0161 19.1664 65.3584 19.388 65.6305 19.6853C65.8524 19.9308 66.0354 20.21 66.1729 20.5128C66.2846 20.8382 66.3456 21.1795 66.3537 21.5241C66.3372 21.8379 66.2763 22.1475 66.1729 22.4435C66.0825 22.7194 65.9017 22.9032 65.8113 23.185C65.6201 23.3911 65.408 23.5761 65.1785 23.7367C64.9251 23.8969 64.6514 24.0211 64.3649 24.1059L66.5417 27.226H64.8169L62.8266 24.3758H61.0186V27.226H59.5723L59.6627 18.8578ZM63.1882 22.9092C63.6417 22.9092 64.0937 22.8172 64.3649 22.5414C64.6387 22.2766 64.8007 21.914 64.8169 21.5301C64.8007 21.1461 64.6387 20.7835 64.3649 20.5187C63.9929 20.2596 63.5482 20.1305 63.0978 20.1509H61.0186V22.9092H63.1882Z" fill="white"/>
<path d="M70.0591 20.145H67.4375V18.8578H74.0381V20.145H71.4151V27.134H69.9687L70.0591 20.145Z" fill="white"/>
<path d="M82.8103 27.226C82.2464 27.2368 81.6881 27.1107 81.1816 26.8582C80.1872 26.3985 79.3736 25.663 79.012 24.6516C78.8312 24.1 78.6504 23.5468 78.7408 22.9952C78.7427 22.4323 78.8343 21.8734 79.012 21.3403C79.2071 20.8307 79.4991 20.3653 79.8714 19.9709C80.2438 19.5765 80.689 19.2607 81.1816 19.0417C81.724 18.8578 82.2664 18.674 82.9007 18.674C83.2348 18.6545 83.5699 18.6855 83.8951 18.7659L84.7087 19.0417C84.9799 19.1337 85.1607 19.3175 85.4377 19.4095C85.6185 19.5934 85.8897 19.7772 86.0705 19.9611L85.1665 21.0644C84.8746 20.7667 84.5392 20.5166 84.1721 20.323C83.7762 20.1348 83.3435 20.0405 82.9065 20.0471C82.5385 20.0635 82.1737 20.1252 81.8203 20.231C81.4851 20.3915 81.1793 20.6092 80.9163 20.8746C80.6527 21.122 80.4645 21.4411 80.3739 21.794C80.2698 22.153 80.2091 22.5235 80.1931 22.8973C80.2091 23.2712 80.2698 23.6417 80.3739 24.0006C80.4642 24.3541 80.6524 24.6738 80.9163 24.9215C81.1793 25.1869 81.4851 25.4046 81.8203 25.5651C82.1484 25.7586 82.5345 25.824 82.9065 25.749C83.3435 25.7556 83.7762 25.6613 84.1721 25.4732C84.5749 25.2582 84.9412 24.9788 85.2569 24.6457L86.1609 25.5651L85.5281 26.2087C85.2569 26.3926 85.0761 26.5765 84.7991 26.6684C84.5221 26.7603 84.2567 26.9442 83.8951 26.9442C83.5335 27.22 83.1661 27.22 82.8103 27.22V27.226Z" fill="white"/>
<path d="M87.6016 18.8578H88.9576V22.2597H92.8462V18.8578H94.2926V27.134H92.8462V23.6388H88.9576V27.134H87.6016V18.8578Z" fill="white"/>
<path d="M99.2644 18.7659H100.62L104.147 27.0421H102.611L101.797 25.0194H98.0061L97.1925 27.0421H95.7461L99.2644 18.7659ZM101.253 23.8227L99.8972 20.5128L98.5412 23.8227H101.253Z" fill="white"/>
<path d="M105.594 18.8578H107.04V27.134H105.594V18.8578Z" fill="white"/>
<path d="M109.209 18.8578H110.475L114.815 24.5582V18.8578H116.262V27.134H115.086L110.655 21.2483V27.134H109.209V18.8578Z" fill="white"/>
<path d="M16.7173 26.5827V30.1758L13.6423 32.0146L10.6591 30.1758V26.5827L13.6423 28.4215L16.7173 26.5827ZM0.261719 14.1676L3.2449 16.008V22.168L8.39913 25.2955V28.8812L0.261719 24.0068V14.1676ZM27.0243 14.1676V24.0068L18.7965 28.8812V25.2955L23.9493 22.168V16.008L27.0243 14.1676ZM18.7965 9.29476L21.8701 11.1336V14.7208L16.7173 17.8468V24.0958L13.7327 25.9346L10.7495 24.0958V17.8468L5.41595 14.7208V11.1336L8.48953 9.29476L13.6423 12.4208L18.7965 9.29476ZM5.41595 17.2951L8.39913 19.134V22.7197L5.41595 20.8808V17.2951ZM21.8701 17.2951V20.8808L18.8869 22.7197V19.134L21.8701 17.2951ZM3.2449 6.17321L6.32431 8.00759L3.24928 9.84641V13.4321L0.266093 11.5933V8.00759L3.2449 6.17321ZM24.0397 6.17321L27.1147 8.01204V11.5977L24.0397 13.4366V9.84641L21.0507 8.00759L24.0397 6.17321ZM13.6423 6.17321L16.7173 8.01204L13.6423 9.85086L10.6591 8.01204L13.6423 6.17321ZM13.6423 0.0116634L21.8701 4.88603L18.8869 6.72486L13.7327 3.59737L8.4837 6.72486L5.50051 4.88603L13.6423 0.0116634Z" fill="white"/>
</g>
<defs>
<clipPath id="clip0_167:8412">
<rect width="116" height="32" fill="white" transform="translate(0.261719 0.00691414)"/>
</clipPath>
</defs>
</svg>
