<svg width="88" height="52" viewBox="0 0 88 52" fill="none" xmlns="http://www.w3.org/2000/svg">
<path d="M28.6247 6.26506C30.5751 8.21838 31.4722 10.4061 31.4722 13.2189C31.4722 18.6881 27.5065 22.4906 21.8246 22.4906H16.2597L13.0221 19.2481V0.756714H18.6911C21.7336 0.756714 24.295 1.85057 26.0373 3.68669L28.6247 6.26506ZM16.0906 3.67366H16.0516V4.32477L18.8211 7.07243V6.40831L16.0906 3.67366ZM19.2892 6.31715L16.6497 3.67366H16.2727L18.9121 6.31715H19.2892ZM20.2123 6.31715L17.5729 3.67366H16.8318L19.4712 6.31715H20.2123ZM18.7301 3.67366H17.7549L20.3944 6.31715H21.3695L18.7301 3.67366ZM22.3187 6.33017L19.7312 3.73877C19.4582 3.69971 19.1982 3.68669 18.9121 3.67366L21.5515 6.31715H21.8246C21.9936 6.31715 22.1626 6.31715 22.3187 6.33017ZM23.1508 6.42133L20.6284 3.89504C20.4074 3.84295 20.1733 3.80388 19.9393 3.76482L22.5137 6.34319C22.7347 6.35622 22.9558 6.39528 23.1508 6.42133ZM23.9049 6.60364L21.4475 4.14246C21.2655 4.07735 21.0705 4.01224 20.8754 3.96015L23.3849 6.47342C23.5669 6.51248 23.7359 6.55155 23.9049 6.60364ZM24.191 6.69479C24.36 6.77292 24.542 6.85106 24.6981 6.92919L22.3057 4.53312C22.1366 4.44197 21.9546 4.35081 21.7726 4.27268L24.191 6.69479ZM16.0516 9.4685L16.5197 9.93729L16.4157 10.0415L16.0516 9.67685V16.5004H18.8211V7.25474L16.0516 4.53312V5.1712L18.6781 7.78865L18.574 7.8798L16.0516 5.36654V6.01764L18.236 8.21838L18.145 8.32255L16.0516 6.21297V6.8771L17.8069 8.64811L17.7159 8.75228L16.0516 7.07243V7.73656L17.3778 9.07784L17.2868 9.18201L16.0516 7.93189V8.60904L16.9488 9.50756L16.8448 9.61174L16.0516 8.80437V9.4685ZM24.49 6.53853C24.048 5.84836 23.4629 5.26236 22.7607 4.80659L24.49 6.53853ZM28.3647 6.5255L27.3115 5.44467C28.0136 6.7599 28.4687 8.38766 28.4687 10.0805C28.4687 10.2628 28.4687 10.4452 28.4557 10.6144L31.1081 13.284V13.2189C31.1081 10.4972 30.224 8.43975 28.3647 6.5255ZM19.1852 16.4874C22.9688 16.2791 25.4132 13.7918 25.4132 10.0805C25.4132 9.1169 25.2442 8.2314 24.9321 7.45007C24.139 6.90315 23.2288 6.68177 21.8246 6.68177H19.1852V16.4874ZM27.9096 13.4272L30.6661 16.1879C30.9261 15.3415 31.0821 14.4299 31.1081 13.4663L28.4427 10.7968C28.3777 11.7343 28.1957 12.6068 27.9096 13.4272ZM30.6141 16.3181L27.8576 13.5574C27.6106 14.2085 27.2985 14.8206 26.9214 15.3675L29.7299 18.1803C30.094 17.6073 30.393 16.9823 30.6141 16.3181ZM28.5857 19.5867C28.9888 19.196 29.3399 18.7533 29.6519 18.2845L26.8564 15.4847C26.5314 15.9405 26.1673 16.3702 25.7512 16.7479L28.5857 19.5867ZM24.516 17.7245L27.3635 20.5764C27.7666 20.3029 28.1437 20.0034 28.4947 19.6778L25.6602 16.839C25.3092 17.1646 24.9321 17.4641 24.516 17.7245ZM23.2678 18.4147L26.1153 21.2665C26.5054 21.0842 26.8824 20.8759 27.2465 20.6545L24.399 17.8026C24.048 18.037 23.6709 18.2324 23.2678 18.4147ZM22.0456 18.8705L24.8801 21.7093C25.2572 21.6051 25.6342 21.4619 25.9853 21.3186L23.1378 18.4668C22.7867 18.623 22.4227 18.7663 22.0456 18.8705ZM20.8624 19.1569L23.6839 21.9827C24.048 21.9176 24.399 21.8395 24.7371 21.7483L21.9156 18.9225C21.5776 19.0137 21.2265 19.0918 20.8624 19.1569ZM20.6934 19.183C20.3813 19.2481 20.0563 19.2872 19.7312 19.3132L22.5267 22.0999C22.8648 22.0869 23.1898 22.0478 23.5149 22.0088L20.6934 19.183ZM21.4475 22.126H21.8246C22.0066 22.126 22.1756 22.126 22.3447 22.113L19.5622 19.3262C19.2762 19.3393 18.9901 19.3523 18.6911 19.3523H18.6781L21.4475 22.126ZM13.6462 19.3523L16.4157 22.126H16.5977L13.8413 19.3523H13.6462ZM14.0233 19.3523L16.7927 22.126H17.0268L14.2573 19.3523H14.0233ZM14.4394 19.3523L17.2088 22.126H17.5079L14.7384 19.3523H14.4394ZM14.9204 19.3523L17.6899 22.126H18.067L15.2975 19.3523H14.9204ZM15.4795 19.3523L18.249 22.126H18.7041L15.9346 19.3523H15.4795ZM16.1166 19.3523L18.8861 22.126H19.4322L16.6627 19.3523H16.1166ZM16.8578 19.3523L19.6272 22.126H20.2903L17.5209 19.3523H16.8578ZM17.7029 19.3523L20.4724 22.126H21.2655L18.483 19.3523H17.7029ZM45.7876 16.5265L49.0252 19.769V22.4906H36.5171L33.2795 19.2481V0.756714H45.4106L48.6481 3.99922V6.56457H39.4296L39.4166 8.42673H43.9283L47.1659 11.6692V14.2867H39.4166V16.5265H45.7876ZM48.284 4.15548L45.5146 1.38177V3.55647L48.284 6.19995V4.15548ZM39.3255 6.19995L36.5691 3.55647H36.3741L39.1305 6.19995H39.3255ZM39.8456 6.19995L37.0762 3.55647H36.7641L39.5206 6.19995H39.8456ZM40.4957 6.19995L37.7263 3.55647H37.2712L40.0407 6.19995H40.4957ZM41.2759 6.19995L38.5194 3.55647H37.9213L40.6908 6.19995H41.2759ZM42.316 6.19995L39.5336 3.55647H38.7144L41.4709 6.19995H42.316ZM43.3562 6.19995L40.5738 3.55647H39.7416L42.5111 6.19995H43.3562ZM44.4354 6.19995L41.6659 3.55647H40.7818L43.5513 6.19995H44.4354ZM45.4756 6.19995L42.7321 3.55647H41.861L44.6304 6.19995H45.4756ZM46.3857 6.19995L43.6293 3.55647H42.9141L45.6836 6.19995H46.3857ZM47.1659 6.19995L44.4094 3.55647H43.8113L46.5938 6.19995H47.1659ZM47.6859 6.19995L44.9425 3.55647H44.5914L47.3739 6.19995H47.6859ZM48.076 6.19995L45.3326 3.55647H45.1245L47.894 6.19995H48.076ZM36.283 7.35892L36.9201 7.97096L36.8161 8.06211L36.283 7.55425V8.42673H39.0525V6.30413L36.283 3.66064V4.20757L38.6884 6.51248L38.5714 6.59061L36.283 4.4029V5.00192L38.2464 6.8771L38.1293 6.96826L36.283 5.18423V5.78324L37.8043 7.24172L37.6873 7.33287L36.283 5.97858V6.57759L37.3622 7.60634L37.2582 7.69749L36.283 6.7599V7.35892ZM44.0323 9.05179V11.2786H44.0193L46.8018 13.9221V11.8255L44.0323 9.05179ZM39.1435 13.9221H39.3776L36.6081 11.2786H36.3741L39.1435 13.9221ZM36.8031 11.2786L39.5726 13.9221H40.0277L37.2712 11.2786H36.8031ZM37.4662 11.2786L40.2227 13.9221H40.9378L38.1553 11.2786H37.4662ZM38.3634 11.2786L41.1328 13.9221H42.108L39.3515 11.2786H38.3634ZM43.3562 13.9221L40.6128 11.2786H39.5466L42.303 13.9221H43.3562ZM44.6044 13.9221L41.835 11.2786H40.7948L43.5643 13.9221H44.6044ZM45.5016 13.9221L42.7581 11.2786H42.03L44.7995 13.9221H45.5016ZM46.1517 13.9221L43.3952 11.2786H42.9401L45.7096 13.9221H46.1517ZM43.5773 11.2786L46.3597 13.9221H46.5938L43.8373 11.2786H43.5773ZM36.283 15.9014L36.6211 16.227L36.5171 16.3311L36.283 16.1098V16.5265H39.0525V14.0132L36.283 11.3697V11.9427L38.6884 14.2606L38.5974 14.3518L36.283 12.138V12.7501L38.2854 14.6643L38.1814 14.7555L36.283 12.9324V13.5314L37.8693 15.055L37.7653 15.1461L36.283 13.7267V14.3257L37.4532 15.4456L37.3492 15.5368L36.283 14.5211V15.1201L37.0372 15.8363L36.9331 15.9275L36.283 15.3024V15.9014ZM45.8916 17.1515V19.3523L48.6611 22.126V19.9252L45.8916 17.1515ZM35.1648 19.3523H33.9036L36.6731 22.126H37.9343L35.1648 19.3523ZM36.4781 19.3523H35.3469L38.1163 22.126H39.2605L36.4781 19.3523ZM36.6601 19.3523L39.4426 22.126H40.4567L37.6743 19.3523H36.6601ZM37.8563 19.3523L40.6388 22.126H41.5359L38.7664 19.3523H37.8563ZM39.7416 19.3523H38.9485L41.7179 22.126H42.5241L39.7416 19.3523ZM43.4082 22.126L40.6388 19.3523H39.9236L42.7061 22.126H43.4082ZM40.8208 19.3523L43.5903 22.126H44.2144L41.4449 19.3523H40.8208ZM41.6269 19.3523L44.3964 22.126H44.9555L42.173 19.3523H41.6269ZM42.3551 19.3523L45.1375 22.126H45.6186L42.8361 19.3523H42.3551ZM43.0182 19.3523L45.8006 22.126H46.2167L43.4342 19.3523H43.0182ZM43.6163 19.3523L46.3987 22.126H46.7628L43.9803 19.3523H43.6163ZM44.1624 19.3523L46.9448 22.126H47.2569L44.4744 19.3523H44.1624ZM44.6564 19.3523L47.4389 22.126H47.6989L44.9295 19.3523H44.6564ZM45.1115 19.3523L47.881 22.126H48.115L45.3326 19.3523H45.1115ZM45.5146 19.3523L48.297 22.126H48.4791L45.6966 19.3523H45.5146ZM66.3831 6.66875H56.8005V9.05179H61.5333L64.7708 12.2943V14.9508H56.8005V22.4906H53.914L50.6765 19.2481V0.756714H63.1455L66.3831 3.99922V6.66875ZM63.2496 1.38177V3.66064L66.006 6.30413H66.019V4.15548L63.2496 1.38177ZM56.5144 6.30413H56.7225L53.953 3.66064H53.771L56.5144 6.30413ZM57.2296 6.30413L54.4471 3.66064H54.161L56.9045 6.30413H57.2296ZM57.8927 6.30413L55.1102 3.66064H54.6551L57.4116 6.30413H57.8927ZM58.7378 6.30413L55.9683 3.66064H55.3182L58.0747 6.30413H58.7378ZM59.908 6.30413L57.1385 3.66064H56.1764L58.9198 6.30413H59.908ZM61.0262 6.30413L58.2567 3.66064H57.3336L60.103 6.30413H61.0262ZM62.2484 6.30413L59.4789 3.66064H58.4518L61.2212 6.30413H62.2484ZM63.4056 6.30413L60.6491 3.66064H59.661L62.4434 6.30413H63.4056ZM64.2637 6.30413L61.4943 3.66064H60.8442L63.6006 6.30413H64.2637ZM64.9268 6.30413L62.1574 3.66064H61.6893L64.4588 6.30413H64.9268ZM65.4209 6.30413L62.6645 3.66064H62.3524L65.1219 6.30413H65.4209ZM62.8595 3.66064L65.616 6.30413H65.811L63.0545 3.66064H62.8595ZM53.667 9.05179H56.4364V6.40831L53.667 3.7518V4.19455L56.1374 6.57759L56.0464 6.66875L53.667 4.38988V4.9889L55.7343 6.98128L55.6303 7.08545L53.667 5.18423V5.78324L55.3312 7.38496L55.2272 7.48914L53.667 5.97858V6.57759L54.9282 7.78865L54.8372 7.8798L53.667 6.7599V7.37194L54.5251 8.19233L54.4341 8.28349L53.667 7.55425V8.15327L54.122 8.59602L54.031 8.68717L53.667 8.33558V9.05179ZM61.6373 9.67685V11.9427L64.4068 14.5862V12.4506L61.6373 9.67685ZM53.745 11.9427L56.5014 14.5862H56.7615L53.992 11.9427H53.745ZM54.187 11.9427L56.9435 14.5862H57.3856L54.6291 11.9427H54.187ZM54.8242 11.9427L57.5676 14.5862H58.3868L55.6043 11.9427H54.8242ZM55.7993 11.9427L58.5688 14.5862H59.583L56.8265 11.9427H55.7993ZM57.0215 11.9427L59.765 14.5862H60.9352L58.1917 11.9427H57.0215ZM58.3738 11.9427L61.1302 14.5862H62.1574L59.3879 11.9427H58.3738ZM59.57 11.9427L62.3524 14.5862H63.1325L60.3891 11.9427H59.57ZM60.5711 11.9427L63.3276 14.5862H63.7697L61.0132 11.9427H60.5711ZM61.1952 11.9427L63.9647 14.5862H64.2117L61.4553 11.9427H61.1952ZM53.667 19.3523L56.4364 22.126V14.6513L56.4104 14.6773L53.667 12.0599V12.4896L56.1504 14.8857L56.0594 14.9768L53.667 12.685V13.284L55.7473 15.2894L55.6433 15.3936L53.667 13.4793V14.0783L55.3442 15.6931L55.2402 15.7972L53.667 14.2737V14.8727L54.9412 16.0967L54.8502 16.1879L53.667 15.055V15.667L54.5381 16.5004L54.4471 16.5916L53.667 15.8493V16.4614L54.135 16.9041L54.044 16.9953L53.667 16.6307V19.3523ZM51.3006 19.3523L54.07 22.126H54.6031L51.8467 19.3523H51.3006ZM52.4968 19.3523H52.0287L54.7982 22.126H55.2662L52.4968 19.3523ZM52.6788 19.3523L55.4613 22.126H55.7993L53.0429 19.3523H52.6788ZM53.2249 19.3523L55.9944 22.126H56.2414L53.4849 19.3523H53.2249ZM70.7258 0.756714L73.9634 3.99922V22.4906H71.0249L67.7873 19.2481V0.756714H70.7258ZM70.8299 1.59013L73.5993 4.36383V4.15548L70.8299 1.38177V1.59013ZM70.8299 2.15008L73.5993 4.92379V4.55917L70.8299 1.78546V2.15008ZM70.8299 2.91838L73.5993 5.69209V5.1061L70.8299 2.33239V2.91838ZM70.8299 3.99922L73.5993 6.77292V5.88742L70.8299 3.11371V3.99922ZM70.8299 5.47071L73.5993 8.24442V6.95523L70.8299 4.18153V5.47071ZM70.8299 7.50216L73.5993 10.2759V8.42673L70.8299 5.65302V7.50216ZM70.8299 19.3523L73.5993 22.126V10.4582L70.8299 7.68447V19.3523ZM69.0096 19.3523H68.4114L71.1809 22.126H71.766L69.0096 19.3523ZM72.4291 22.126L69.6597 19.3523H69.1916L71.9611 22.126H72.4291ZM69.8417 19.3523L72.6242 22.126H72.9622L70.2057 19.3523H69.8417ZM70.3878 19.3523L73.1572 22.126H73.4043L70.6478 19.3523H70.3878ZM14.5434 34.0543C15.8046 35.3044 16.4027 36.7238 16.4027 38.4818C16.4027 42.128 13.6202 44.7845 9.75856 44.7845H6.456V51.3997H3.53051L0.292969 48.1572V29.6658H6.84607C9.13445 29.6658 10.9678 30.4862 11.9559 31.4759L14.5434 34.0543ZM3.32248 37.0884L3.59552 37.3619L3.49151 37.466L3.32248 37.2968V39.1068H5.96192V35.096L3.32248 32.4525V33.0125L5.59786 35.3434L5.50684 35.4346L3.32248 33.2208V33.8459L5.19479 35.7471L5.10378 35.8383L3.32248 34.0412V34.6533L4.80473 36.1508L4.70071 36.242L3.32248 34.8486V35.4606L4.40166 36.5545L4.29764 36.6456L3.32248 35.656V36.268L3.99859 36.9582L3.89457 37.0493L3.32248 36.4764V37.0884ZM6.28697 34.9658L3.79056 32.4525H3.50451L6.02693 34.9788L6.14395 34.9658H6.28697ZM6.87207 34.9658L4.36265 32.4525H3.97259L6.48201 34.9658H6.87207ZM7.6132 34.9658L5.10378 32.4525H4.54468L7.0541 34.9658H7.6132ZM8.47134 34.9658L5.96192 32.4525H5.28581L7.79523 34.9658H8.47134ZM6.89808 32.4525H6.14395L8.65337 34.9658H9.4075L6.89808 32.4525ZM10.1486 34.9658L7.71721 32.5307C7.52218 32.4916 7.30114 32.4786 7.09311 32.4656L9.58953 34.9658H10.1486ZM10.4217 34.6663L8.49734 32.739C8.32832 32.6739 8.13328 32.6218 7.95125 32.5828L10.3567 34.9918C10.4087 34.9918 10.4607 34.9918 10.5127 35.0049C10.4867 34.8877 10.4607 34.7835 10.4217 34.6663ZM10.3046 34.3668C10.0186 33.7157 9.51151 33.2078 8.8354 32.8823L10.3046 34.3668ZM14.2833 34.3147L13.1391 33.1557C13.4512 33.8589 13.6592 34.7314 13.6592 35.6039C13.6592 35.7601 13.6592 35.9164 13.6462 36.0597L16.0386 38.2343C15.9866 36.6847 15.4015 35.4606 14.2833 34.3147ZM6.76806 39.1068C9.01743 39.1068 10.5907 37.7135 10.5907 35.7341C10.5907 35.6169 10.5907 35.4997 10.5777 35.3825C10.3567 35.3434 10.1226 35.3304 9.90158 35.3304H6.32598V39.1068H6.76806ZM15.6745 40.6174C15.9086 39.9663 16.0386 39.2501 16.0386 38.4818V38.4167L13.6332 36.2159C13.5682 36.9582 13.3862 37.6483 13.1001 38.2734L15.6745 40.6174ZM13.0351 38.3906C12.8011 38.8724 12.515 39.3022 12.164 39.6928L14.8424 42.128C15.1545 41.7112 15.4275 41.2425 15.6225 40.7476L13.0351 38.3906ZM13.8152 43.1307C14.1663 42.8572 14.4783 42.5577 14.7644 42.2191L12.0729 39.784C11.7739 40.1095 11.4488 40.383 11.0848 40.6434L13.8152 43.1307ZM9.97959 41.2555L12.7491 43.7818C13.1001 43.6125 13.4122 43.4302 13.7112 43.2088L10.9678 40.7216C10.6557 40.9169 10.3306 41.0992 9.97959 41.2555ZM8.88741 41.6331L11.6829 44.1724C12.0079 44.0813 12.333 43.9641 12.632 43.8338L9.84957 41.3076C9.53752 41.4378 9.21246 41.542 8.88741 41.6331ZM7.83423 41.8284L10.6427 44.3678C10.9548 44.3287 11.2538 44.2766 11.5399 44.2115L8.74438 41.6592C8.44533 41.7373 8.14628 41.7894 7.83423 41.8284ZM9.61553 44.4198H9.75856C9.9926 44.4198 10.2266 44.4068 10.4477 44.3938L7.6522 41.8545C7.39216 41.8805 7.11911 41.8936 6.84607 41.9066L9.61553 44.4198ZM5.93591 41.9066L8.70538 44.4198H9.4075L6.65104 41.9066H5.93591ZM6.09194 51.0351V44.4198H6.10494L3.33548 41.9066H3.32248V42.5707L5.72788 44.7584L5.62386 44.8496L3.32248 42.753V43.4432L5.2728 45.2142L5.16879 45.3054L3.32248 43.6255V44.3026L4.81773 45.67L4.72671 45.7611L3.32248 44.485V45.1751L4.36265 46.1257L4.27164 46.2169L3.32248 45.3574V46.0216L3.92058 46.5685L3.82956 46.6727L3.32248 46.2169V48.2614L6.09194 51.0351ZM3.53051 41.9066L6.28697 44.4198H6.57302L3.80356 41.9066H3.53051ZM3.98559 41.9066L6.75505 44.4198H7.10611L4.33665 41.9066H3.98559ZM4.54468 41.9066L7.30115 44.4198H7.74322L4.98675 41.9066H4.54468ZM5.15578 41.9066L7.93825 44.4198H8.51035L5.75388 41.9066H5.15578ZM0.917074 48.2614L3.68654 51.0351H4.25863L1.50217 48.2614H0.917074ZM2.15228 48.2614H1.6842L4.45367 51.0351H4.92175L2.15228 48.2614ZM2.33431 48.2614L5.11678 51.0351H5.45483L2.69837 48.2614H2.33431ZM2.8804 48.2614L5.64987 51.0351H5.89691L3.14045 48.2614H2.8804ZM33.6046 29.6528L36.7121 32.7651V43.0525C36.7121 48.2614 33.6176 51.6732 28.9238 51.6732C26.4404 51.6732 24.6591 50.97 23.0468 49.3552L20.3814 46.7117C18.9121 45.2663 18.119 43.0916 18.119 40.3049V29.6528H21.0445L24.282 32.8953V43.339C24.282 44.1464 24.373 44.9277 24.5811 45.6309C25.0101 45.7351 25.4782 45.8002 25.9723 45.8002C28.9108 45.8002 30.6791 43.7166 30.6791 40.2007V29.6528H33.6046ZM23.9179 33.0516L21.1485 30.2778V30.4862L23.9179 33.2599V33.0516ZM33.7086 30.4992L36.348 33.1427V32.9213L33.7086 30.2909V30.4992ZM23.9179 33.8199V33.4552L21.1485 30.6815V31.0461L23.9179 33.8199ZM33.7086 31.0592L36.348 33.7027V33.338L33.7086 30.6945V31.0592ZM23.9179 34.5882V34.0022L21.1485 31.2285V31.8145L23.9179 34.5882ZM33.7086 31.8275L36.348 34.471V33.885L33.7086 31.2415V31.8275ZM23.9179 35.669V34.7835L21.1485 32.0098V32.8953L23.9179 35.669ZM33.7086 32.9083L36.348 35.5518V34.6663L33.7086 32.0228V32.9083ZM23.9179 37.1405V35.8513L21.1485 33.0776V34.3668L23.9179 37.1405ZM33.7086 34.3798L36.348 37.0233V35.7341L33.7086 33.0906V34.3798ZM23.9179 39.1719V37.3228L21.1485 34.5491V36.3982L23.9179 39.1719ZM36.348 37.2056L33.7086 34.5621V36.4113L36.348 39.0547V37.2056ZM21.1485 36.5805V40.2007C21.1485 42.9093 22.2667 44.7975 24.178 45.5007C24.009 44.8235 23.9179 44.0943 23.9179 43.339V39.3542L21.1485 36.5805ZM35.906 46.2039C36.192 45.2533 36.348 44.1985 36.348 43.0525V39.237L33.7086 36.5936V40.3049C33.7086 41.5159 33.5656 42.6098 33.2795 43.5734L35.906 46.2039ZM33.2275 43.7036C33.0325 44.3417 32.7724 44.9277 32.4474 45.4356L35.0608 48.053C35.3859 47.5321 35.6589 46.9592 35.8539 46.3341L33.2275 43.7036ZM34.0596 49.3292C34.4107 48.9776 34.7228 48.5999 34.9958 48.1702L32.3824 45.5528C32.1093 45.9825 31.7973 46.3601 31.4462 46.7117L34.0596 49.3292ZM30.354 47.5452L32.9935 50.1886C33.3445 49.9673 33.6696 49.7068 33.9686 49.4203L31.3422 46.7899C31.0431 47.0764 30.7181 47.3238 30.354 47.5452ZM29.2748 48.0921L31.9273 50.7486C32.2523 50.6053 32.5774 50.4491 32.8764 50.2537L30.237 47.6103C29.938 47.7926 29.6129 47.9488 29.2748 48.0921ZM21.8896 47.7405L23.3068 49.0948C23.5799 49.3552 23.8529 49.5896 24.126 49.798L22.2277 47.8967L21.8896 47.7405ZM22.9168 48.1572C22.7868 48.1051 22.6567 48.066 22.5267 48.0139L24.7111 50.2017C24.9061 50.3189 25.0881 50.4361 25.2832 50.5272L22.9168 48.1572ZM28.2087 48.4176L30.8741 51.0872C31.1862 51.009 31.4852 50.9179 31.7843 50.8007L29.1318 48.1442C28.8328 48.2483 28.5207 48.3395 28.2087 48.4176ZM23.1768 48.2353L25.6342 50.6965C25.8033 50.7616 25.9723 50.8397 26.1543 50.8918L23.6319 48.3655C23.4759 48.3265 23.3329 48.2874 23.1768 48.2353ZM23.8919 48.4307L26.4404 50.983C26.6224 51.0351 26.8044 51.0872 26.9995 51.1262L24.412 48.5348C24.23 48.4958 24.061 48.4697 23.8919 48.4307ZM27.1945 48.5869L29.8599 51.2565C30.159 51.2304 30.445 51.1783 30.7181 51.1132L28.0526 48.4437C27.7796 48.5088 27.4935 48.5609 27.1945 48.5869ZM24.6201 48.5609L27.2205 51.1653C27.4285 51.2044 27.6366 51.2304 27.8446 51.2565L25.2312 48.639C25.0231 48.626 24.8281 48.5999 24.6201 48.5609ZM26.2843 48.6651L28.9238 51.3085C29.1838 51.3085 29.4439 51.2955 29.6909 51.2695L27.0385 48.613C26.7914 48.639 26.5314 48.652 26.2843 48.6651ZM25.4262 48.652L28.0396 51.2695C28.2737 51.2955 28.4947 51.3085 28.7418 51.3085L26.1023 48.6651H25.9203C25.7513 48.6651 25.5952 48.6651 25.4262 48.652ZM51.1445 45.3705L54.3821 48.613V51.3997H42.5371L39.2995 48.1572V29.6658H42.225L45.4626 32.9083V45.3705H51.1445ZM45.0985 33.0646L42.3291 30.2909V30.4862L45.0985 33.2599V33.0646ZM45.0985 33.8199V33.4552L42.3291 30.6815V31.0461L45.0985 33.8199ZM45.0985 34.5882V34.0022L42.3291 31.2285V31.8145L45.0985 34.5882ZM45.0985 35.669V34.7835L42.3291 32.0098V32.8953L45.0985 35.669ZM45.0985 37.1405V35.8513L42.3291 33.0776V34.3668L45.0985 37.1405ZM45.0985 39.1719V37.3228L42.3291 34.5491V36.3982L45.0985 39.1719ZM42.3291 45.3705H45.0985V39.3542L42.3291 36.5805V45.3705ZM54.018 51.0351V48.7692L51.2485 45.9955V48.2614L54.018 51.0351ZM39.9237 48.2614L42.6931 51.0351H43.9023L41.1199 48.2614H39.9237ZM41.3019 48.2614L44.0843 51.0351H45.1765L42.3941 48.2614H41.3019ZM42.5761 48.2614L45.3586 51.0351H46.3337L43.5513 48.2614H42.5761ZM43.7333 48.2614L46.5158 51.0351H47.3739L44.6044 48.2614H43.7333ZM44.7865 48.2614L47.5689 51.0351H48.3361L45.5666 48.2614H44.7865ZM45.7486 48.2614L48.5181 51.0351H49.2072L46.4247 48.2614H45.7486ZM46.6068 48.2614L49.3892 51.0351H50.0003L47.2179 48.2614H46.6068ZM47.3999 48.2614L50.1824 51.0351H50.7155L47.933 48.2614H47.3999ZM48.115 48.2614L50.8975 51.0351H51.3656L48.5961 48.2614H48.115ZM48.7781 48.2614L51.5476 51.0351H51.9637L49.1812 48.2614H48.7781ZM49.3632 48.2614L52.1457 51.0351H52.4968L49.7273 48.2614H49.3632ZM49.9093 48.2614L52.6788 51.0351H52.9908L50.2084 48.2614H49.9093ZM50.4034 48.2614L53.1729 51.0351H53.4329L50.6635 48.2614H50.4034ZM50.8455 48.2614L53.6149 51.0351H53.836L51.0665 48.2614H50.8455ZM68.3464 42.5056C69.3476 43.5083 69.7767 44.6152 69.7767 46.1388C69.7767 49.4073 67.2022 51.6732 63.4706 51.6732C60.7662 51.7252 58.7508 50.9309 57.4896 49.9673L54.2911 46.7638V43.6906L54.6031 43.5604C56.0074 44.8756 57.9577 45.6179 59.986 45.6179C61.6763 45.6179 63.0415 45.0058 63.5746 44.0813C61.5463 43.0916 59.1669 42.5447 57.8277 40.8388L55.8643 38.3385C54.9282 37.1405 54.4731 36.268 54.4731 34.8356C54.4731 31.6321 57.0215 29.4314 60.7402 29.4314C62.6255 29.3923 64.5368 29.9002 65.915 30.7987L69.1266 34.0152V36.9321L68.8405 37.0754C67.3713 35.9945 65.694 35.3825 64.1337 35.3825C62.3394 35.3825 61.0002 36.0987 60.6491 37.2186C62.4694 37.8697 64.4198 38.5208 65.655 39.784L68.3464 42.5056ZM65.993 31.3977V33.7938H65.98L68.7625 36.5805V34.1715L65.993 31.3977ZM61.2992 32.2572C61.1952 32.2442 61.0912 32.2442 61.0002 32.2442C60.8052 32.2442 60.6101 32.2572 60.4151 32.2702L63.2236 35.083C63.4836 35.0439 63.7697 35.0179 64.0557 35.0179L61.2992 32.2572ZM64.9789 35.07L62.2874 32.3744C62.0274 32.3223 61.7543 32.2832 61.4813 32.2572L64.2377 35.0179C64.4848 35.0179 64.7318 35.0439 64.9789 35.07ZM63.0675 35.109L60.2461 32.2832C59.908 32.3353 59.596 32.4004 59.2969 32.4916L62.1444 35.3434C62.4304 35.2393 62.7425 35.1611 63.0675 35.109ZM65.85 35.2393L63.2496 32.6348C63.0155 32.5567 62.7685 32.4786 62.5215 32.4265L65.1999 35.109C65.4079 35.1351 65.629 35.1872 65.85 35.2393ZM62.0144 35.3955L59.1669 32.5437C58.7898 32.6739 58.4778 32.8562 58.2177 33.0776L61.0912 35.9555C61.3513 35.7341 61.6633 35.5518 62.0144 35.3955ZM66.6822 35.4997L64.2247 33.0385C64.0037 32.9344 63.7697 32.8302 63.5356 32.739L66.097 35.3044C66.2921 35.3565 66.4871 35.4216 66.6822 35.4997ZM60.2981 37.0884C60.4281 36.6847 60.6621 36.3331 60.9872 36.0336L58.1137 33.1557C57.7496 33.4943 57.5156 33.911 57.4506 34.3668L60.09 37.0103L60.2981 37.0884ZM67.4623 35.8253L65.2779 33.6375C65.0569 33.4943 64.8358 33.3511 64.6018 33.2339L66.9812 35.6169C67.1372 35.682 67.3063 35.7471 67.4623 35.8253ZM65.746 33.924L67.8393 36.0206C67.9694 36.0857 68.1124 36.1638 68.2554 36.255L65.863 33.8589L65.746 33.924ZM57.4376 34.6402C57.4376 35.7341 58.4388 36.3461 59.791 36.8931L57.4376 34.5361V34.6402ZM58.3998 40.9299C58.8678 41.4378 59.5179 41.8415 60.2591 42.2061L57.2686 39.211C57.1125 39.1199 56.9565 39.0287 56.8135 38.9375C57.2816 39.5886 57.8017 40.2788 58.3998 40.9299ZM58.5688 39.8361C58.2567 39.7058 57.9447 39.5626 57.6586 39.4194L60.6101 42.3754C60.8962 42.5056 61.1952 42.6358 61.5073 42.766L58.5688 39.8361ZM58.8678 39.9533L61.8193 42.8963C62.0534 43.0004 62.2874 43.0916 62.5215 43.1958L59.544 40.2137C59.3229 40.1356 59.1019 40.0444 58.8678 39.9533ZM59.83 40.3179L62.8465 43.339C63.0415 43.4171 63.2366 43.5083 63.4316 43.5995L60.3501 40.5002C60.1811 40.4481 59.999 40.383 59.83 40.3179ZM63.7437 43.7167C63.7567 43.6515 63.7827 43.5864 63.7957 43.5213L61.0522 40.7606C60.9222 40.7085 60.7792 40.6565 60.6491 40.6174L63.7437 43.7167ZM61.3643 40.8778L63.8217 43.339C63.8347 43.2869 63.8347 43.2218 63.8347 43.1697V43.1567L61.7023 41.0211L61.3643 40.8778ZM63.8217 42.9614L63.7827 42.766L62.3264 41.3076C62.2354 41.2555 62.1314 41.2164 62.0274 41.1643L63.8217 42.9614ZM68.0864 42.766L66.6171 41.2945C66.7992 41.7894 66.9032 42.3493 66.9032 43.0004C66.9032 43.326 66.8772 43.6385 66.8252 43.951L69.3996 46.5294C69.4126 46.3992 69.4126 46.269 69.4126 46.1388C69.4126 44.6933 69.0225 43.7036 68.0864 42.766ZM63.6786 42.4665C63.4966 42.1149 63.1716 41.8154 62.7555 41.555L63.6786 42.4665ZM69.3866 46.6987L66.7992 44.1073C66.6691 44.7063 66.4481 45.2663 66.1361 45.7611L68.8665 48.4958C69.1396 47.9488 69.3216 47.3498 69.3866 46.6987ZM67.9434 49.7068C68.2814 49.3813 68.5675 49.0166 68.7885 48.613L66.058 45.8783C65.811 46.269 65.512 46.6076 65.1609 46.9201L67.9434 49.7068ZM64.0817 47.6493L66.9032 50.4881C67.2542 50.2798 67.5663 50.0584 67.8523 49.798L65.0569 46.9982C64.7578 47.2456 64.4328 47.467 64.0817 47.6493ZM55.6433 47.5972L57.7236 49.6808C57.9187 49.824 58.1137 49.9673 58.3347 50.0975L55.9814 47.7535L55.6433 47.5972ZM62.9895 48.1181L65.824 50.9569C66.1621 50.8397 66.4871 50.7095 66.7862 50.5402L63.9647 47.7144C63.6656 47.8707 63.3406 48.0139 62.9895 48.1181ZM56.3064 47.8837L58.7508 50.3319C58.8938 50.397 59.0369 50.4751 59.1929 50.5402L56.6705 48.0139L56.3064 47.8837ZM56.9435 48.0921L59.5049 50.6705C59.661 50.7225 59.83 50.7877 59.999 50.8397L57.3726 48.2093L56.9435 48.0921ZM61.9363 48.3786L64.7578 51.2044C65.0829 51.1523 65.3949 51.0872 65.681 50.996L62.8595 48.1702C62.5605 48.2483 62.2614 48.3265 61.9363 48.3786ZM57.6196 48.2744L60.2591 50.9179C60.4411 50.97 60.6231 51.0221 60.8182 51.0611L58.1267 48.3655C57.9577 48.3395 57.7887 48.3004 57.6196 48.2744ZM58.3477 48.4046L61.0392 51.1002C61.2472 51.1393 61.4423 51.1783 61.6503 51.2044L58.9328 48.4697C58.7248 48.4567 58.5428 48.4307 58.3477 48.4046ZM64.5888 51.2304L61.7803 48.4046C61.5073 48.4567 61.2212 48.4827 60.9352 48.5088L63.7306 51.3085C64.0297 51.2955 64.3158 51.2695 64.5888 51.2304ZM59.1409 48.4958L61.8843 51.2304C62.1184 51.2565 62.3394 51.2825 62.5735 51.2955L59.804 48.5218C59.583 48.5218 59.3619 48.5088 59.1409 48.4958ZM62.7555 51.2955C62.9895 51.3085 63.2366 51.3085 63.4706 51.3085H63.5356L60.7532 48.5088C60.6101 48.5218 60.4801 48.5218 60.3371 48.5218H59.986L62.7555 51.2955ZM84.3911 45.4356L87.6287 48.6781V51.3997H75.1206L71.883 48.1572V29.6658H84.0141L87.2516 32.9083V35.4737H78.0331L78.0201 37.3358H82.5318L85.7694 40.5783V43.1958H78.0201V45.4356H84.3911ZM86.8876 33.0646L84.1181 30.2909V32.4656L86.8876 35.109V33.0646ZM77.9291 35.109L75.1726 32.4656H74.9776L77.734 35.109H77.9291ZM78.4491 35.109L75.6797 32.4656H75.3676L78.1241 35.109H78.4491ZM79.0992 35.109L76.3298 32.4656H75.8747L78.6442 35.109H79.0992ZM79.8794 35.109L77.1229 32.4656H76.5248L79.2943 35.109H79.8794ZM80.9195 35.109L78.1371 32.4656H77.3179L80.0744 35.109H80.9195ZM81.9597 35.109L79.1773 32.4656H78.3451L81.1146 35.109H81.9597ZM83.0389 35.109L80.2694 32.4656H79.3853L82.1548 35.109H83.0389ZM84.0791 35.109L81.3356 32.4656H80.4645L83.2339 35.109H84.0791ZM84.9892 35.109L82.2328 32.4656H81.5177L84.2871 35.109H84.9892ZM85.7694 35.109L83.0129 32.4656H82.4148L85.1973 35.109H85.7694ZM86.2894 35.109L83.546 32.4656H83.1949L85.9774 35.109H86.2894ZM86.6795 35.109L83.9361 32.4656H83.728L86.4975 35.109H86.6795ZM74.8865 36.268L75.5236 36.8801L75.4196 36.9712L74.8865 36.4633V37.3358H77.656V35.2132L74.8865 32.5697V33.1167L77.2919 35.4216L77.1749 35.4997L74.8865 33.312V33.911L76.8499 35.7862L76.7329 35.8773L74.8865 34.0933V34.6923L76.4078 36.1508L76.2908 36.242L74.8865 34.8877V35.4867L75.9657 36.5154L75.8617 36.6066L74.8865 35.669V36.268ZM82.6358 37.9609V40.1877H82.6228L85.4053 42.8312V40.7346L82.6358 37.9609ZM77.747 42.8312H77.9811L75.2116 40.1877H74.9776L77.747 42.8312ZM75.4066 40.1877L78.1761 42.8312H78.6312L75.8747 40.1877H75.4066ZM76.0697 40.1877L78.8262 42.8312H79.5413L76.7589 40.1877H76.0697ZM76.9669 40.1877L79.7364 42.8312H80.7115L77.9551 40.1877H76.9669ZM81.9597 42.8312L79.2163 40.1877H78.1501L80.9065 42.8312H81.9597ZM83.2079 42.8312L80.4385 40.1877H79.3983L82.1678 42.8312H83.2079ZM84.1051 42.8312L81.3616 40.1877H80.6335L83.403 42.8312H84.1051ZM84.7552 42.8312L81.9987 40.1877H81.5437L84.3131 42.8312H84.7552ZM82.1808 40.1877L84.9632 42.8312H85.1973L82.4408 40.1877H82.1808ZM74.8865 44.8105L75.2246 45.1361L75.1206 45.2402L74.8865 45.0189V45.4356H77.656V42.9223L74.8865 40.2788V40.8518L77.2919 43.1697L77.2009 43.2609L74.8865 41.0471V41.6592L76.8889 43.5734L76.7849 43.6646L74.8865 41.8415V42.4405L76.4728 43.9641L76.3688 44.0552L74.8865 42.6358V43.2348L76.0567 44.3547L75.9527 44.4459L74.8865 43.4302V44.0292L75.6407 44.7454L75.5366 44.8366L74.8865 44.2115V44.8105ZM84.4951 46.0606V48.2614L87.2646 51.0351V48.8343L84.4951 46.0606ZM73.7683 48.2614H72.5071L75.2766 51.0351H76.5378L73.7683 48.2614ZM75.0816 48.2614H73.9504L76.7198 51.0351H77.864L75.0816 48.2614ZM75.2636 48.2614L78.0461 51.0351H79.0602L76.2778 48.2614H75.2636ZM76.4598 48.2614L79.2423 51.0351H80.1394L77.37 48.2614H76.4598ZM78.3451 48.2614H77.552L80.3215 51.0351H81.1276L78.3451 48.2614ZM82.0117 51.0351L79.2423 48.2614H78.5272L81.3096 51.0351H82.0117ZM79.4243 48.2614L82.1938 51.0351H82.8179L80.0484 48.2614H79.4243ZM80.2304 48.2614L82.9999 51.0351H83.559L80.7765 48.2614H80.2304ZM80.9586 48.2614L83.741 51.0351H84.2221L81.4396 48.2614H80.9586ZM81.6217 48.2614L84.4041 51.0351H84.8202L82.0377 48.2614H81.6217ZM82.2198 48.2614L85.0022 51.0351H85.3663L82.5838 48.2614H82.2198ZM82.7659 48.2614L85.5483 51.0351H85.8604L83.0779 48.2614H82.7659ZM83.2599 48.2614L86.0424 51.0351H86.3025L83.533 48.2614H83.2599ZM83.715 48.2614L86.4845 51.0351H86.7185L83.9361 48.2614H83.715ZM84.1181 48.2614L86.9006 51.0351H87.0826L84.3001 48.2614H84.1181Z" fill="white"/>
</svg>
