<svg width="64" height="64" viewBox="0 0 128 128" fill="none" xmlns="http://www.w3.org/2000/svg">
    <rect width="128" height="128" rx="64" fill="#009F55"/>
    <path d="M84.2459 87.0506C83.6868 87.4425 82.9181 87.7084 81.9397 87.8484C81.0172 87.9884 80.3463 87.9604 79.927 87.7644C79.8151 87.7084 79.7033 87.5125 79.5915 87.1765C79.5077 86.8126 79.3958 86.5606 79.2561 86.4207C79.2002 86.3647 79.1303 86.3227 79.0464 86.2947C77.9282 85.6788 76.7262 85.1469 75.4403 84.699C72.4213 83.5792 69.3044 82.8933 66.0897 82.6413C64.4404 78.694 63.5458 76.5384 63.4061 76.1745C62.4277 73.6829 62.1202 72.2552 62.4836 71.8913L94.0159 40.3129C94.2115 40.117 94.8126 40.159 95.8189 40.4389C96.8532 40.7469 97.5101 41.0688 97.7897 41.4047C98.0972 41.7687 98.5444 42.6645 99.1315 44.0923C99.7465 45.492 100.375 46.5138 101.018 47.1577C101.857 47.9976 103.325 48.7114 105.421 49.2993C107.378 49.8032 108.454 50.2651 108.65 50.6851C109.097 51.5809 109.349 53.3166 109.405 55.8921C109.516 58.4677 109.363 60.0774 108.943 60.7213C108.748 61.0292 108.049 61.1972 106.847 61.2252C105.673 61.2812 104.904 61.1272 104.541 60.7633C104.233 60.4553 104.051 60.1894 103.995 59.9654C103.94 59.7414 103.87 59.6155 103.786 59.5875C102.556 58.8036 101.354 58.1317 100.18 57.5718C97.4123 56.2001 95.0781 55.4862 93.1772 55.4302L86.3424 62.275C87.824 62.7509 89.6131 63.5068 91.7096 64.5426C92.2128 64.9345 92.5203 66.5022 92.6321 69.2457C92.7999 71.9893 92.6321 73.613 92.129 74.1169C91.8215 74.4248 91.2624 74.5928 90.4517 74.6208C89.641 74.6488 88.9981 74.5368 88.5229 74.2848C88.2433 74.0049 87.7262 73.543 86.9714 72.8991C85.7135 72.0312 82.946 71.0514 78.669 69.9596L74.2662 74.3688C75.608 74.7048 77.3272 75.2507 79.4238 76.0065C81.5763 76.7624 82.8202 77.3083 83.1557 77.6442C83.547 78.0362 83.9104 79.6319 84.2459 82.4314C84.6372 85.2309 84.6372 86.7706 84.2459 87.0506Z" fill="white"/>
    <path d="M43.8896 87.0483C44.4517 87.4412 45.2246 87.7079 46.2083 87.8482C47.1358 87.9886 47.8104 87.9605 48.232 87.764C48.3444 87.7079 48.4568 87.5114 48.5692 87.1746C48.6536 86.8097 48.766 86.557 48.9065 86.4167C48.9627 86.3605 49.033 86.3184 49.1173 86.2904C50.2415 85.6728 51.4501 85.1395 52.743 84.6904C55.7784 83.5676 58.9123 82.8799 62.1445 82.6272C63.8027 78.6693 64.7021 76.508 64.8427 76.143C65.8264 73.6448 66.1355 72.2132 65.7702 71.8483L34.0665 40.1853C33.8698 39.9888 33.2655 40.0309 32.2537 40.3116C31.2137 40.6204 30.5532 40.9432 30.2722 41.2801C29.963 41.645 29.5133 42.5432 28.9231 43.9748C28.3048 45.3783 27.6724 46.4028 27.0259 47.0485C26.1827 47.8906 24.7072 48.6063 22.5992 49.1958C20.6318 49.7011 19.5497 50.1642 19.353 50.5853C18.9033 51.4835 18.6503 53.2239 18.5941 55.8063C18.4817 58.3887 18.6363 60.0028 19.0578 60.6484C19.2546 60.9572 19.9572 61.1256 21.1658 61.1536C22.3463 61.2098 23.1192 61.0554 23.4846 60.6905C23.7937 60.3817 23.9764 60.1151 24.0326 59.8905C24.0888 59.6659 24.1591 59.5396 24.2434 59.5115C25.4801 58.7256 26.6886 58.0519 27.8691 57.4905C30.6516 56.1151 32.9985 55.3993 34.9097 55.3431L41.7816 62.2063C40.292 62.6835 38.4932 63.4414 36.3852 64.4799C35.8793 64.8729 35.5702 66.4448 35.4577 69.1957C35.2891 71.9466 35.4577 73.5746 35.9637 74.0799C36.2728 74.3887 36.8349 74.5571 37.65 74.5852C38.4651 74.6132 39.1115 74.5009 39.5893 74.2483C39.8704 73.9676 40.3904 73.5045 41.1492 72.8588C42.414 71.9887 45.1965 71.0062 49.4967 69.9115L53.9234 74.3325C52.5744 74.6694 50.8458 75.2167 48.7379 75.9746C46.5737 76.7325 45.323 77.2799 44.9857 77.6167C44.5922 78.0097 44.2268 79.6097 43.8896 82.4167C43.4961 85.2237 43.4961 86.7676 43.8896 87.0483Z" fill="white"/>
</svg>
