<svg width="128" height="32" viewBox="0 0 128 32" fill="none" xmlns="http://www.w3.org/2000/svg">
<g clip-path="url(#clip0_1342_12732)">
<path d="M36.209 18.4124C36.2071 18.5237 36.1613 18.6296 36.0815 18.7072C36.0018 18.7848 35.8945 18.8276 35.7833 18.8263H27.9429C28.144 20.7657 29.5985 22.5395 31.6561 22.5395C33.0634 22.5395 34.104 22.0074 34.8845 20.884C34.9209 20.8249 34.9711 20.7757 35.0309 20.7407C35.0907 20.7056 35.1582 20.6858 35.2275 20.6829C35.2791 20.6815 35.3305 20.6905 35.3785 20.7096C35.4265 20.7287 35.4701 20.7574 35.5067 20.794C35.5432 20.8305 35.5719 20.8741 35.591 20.9221C35.6101 20.9701 35.6192 21.0215 35.6177 21.0732C35.618 21.1445 35.5974 21.2144 35.5586 21.2742C34.7663 22.646 33.1935 23.32 31.6561 23.32C29.019 23.32 27.127 20.9549 27.127 18.4361C27.127 15.9172 29.0072 13.5521 31.6561 13.5521C34.3051 13.5521 36.1972 15.8936 36.209 18.4124ZM35.3694 18.0458C35.2038 16.1064 33.7138 14.3326 31.6561 14.3326C29.5985 14.3326 28.144 16.1064 27.9429 18.0458H35.3694Z" fill="white"/>
<path d="M45.7414 13.7413C45.8439 13.7443 45.9415 13.7864 46.014 13.8589C46.0866 13.9315 46.1286 14.029 46.1316 14.1316C46.1331 14.1832 46.124 14.2346 46.1049 14.2826C46.0858 14.3306 46.0571 14.3742 46.0206 14.4108C45.9841 14.4473 45.9404 14.476 45.8924 14.4951C45.8444 14.5142 45.793 14.5233 45.7414 14.5218H43.6364V22.7879C43.6355 22.8911 43.5941 22.9898 43.5211 23.0628C43.4481 23.1358 43.3494 23.1772 43.2462 23.1781C43.1436 23.1751 43.0461 23.1331 42.9735 23.0605C42.901 22.988 42.8589 22.8904 42.8559 22.7879V14.5218H40.8338C40.7821 14.5233 40.7307 14.5142 40.6827 14.4951C40.6347 14.476 40.5911 14.4473 40.5545 14.4108C40.518 14.3742 40.4893 14.3306 40.4702 14.2826C40.4511 14.2346 40.442 14.1832 40.4435 14.1316C40.4444 14.0283 40.4858 13.9296 40.5588 13.8566C40.6318 13.7837 40.7305 13.7422 40.8338 13.7413H42.8559V10.7258C42.8561 10.6259 42.892 10.5293 42.957 10.4534C43.022 10.3776 43.112 10.3274 43.2107 10.3119C43.2659 10.3046 43.322 10.3092 43.3752 10.3256C43.4284 10.3419 43.4775 10.3696 43.519 10.4066C43.5605 10.4437 43.5936 10.4893 43.6159 10.5403C43.6382 10.5913 43.6492 10.6465 43.6482 10.7021V13.7413H45.7414Z" fill="white"/>
<path d="M58.5716 17.7384V22.7406C58.5686 22.8431 58.5265 22.9407 58.454 23.0132C58.3814 23.0858 58.2839 23.1278 58.1813 23.1308C58.1297 23.1323 58.0783 23.1232 58.0303 23.1041C57.9822 23.085 57.9386 23.0563 57.9021 23.0198C57.8656 22.9833 57.8369 22.9396 57.8178 22.8916C57.7987 22.8436 57.7896 22.7922 57.7911 22.7406V17.7384C57.7911 16.0473 56.8332 14.3681 54.9529 14.3681C52.5405 14.3681 51.4999 16.473 51.6418 18.6371C51.6418 18.6962 51.6654 18.9446 51.6654 18.98V22.7288C51.6652 22.8287 51.6294 22.9252 51.5644 23.0011C51.4993 23.077 51.4094 23.1272 51.3107 23.1426C51.2555 23.15 51.1994 23.1453 51.1462 23.129C51.0929 23.1126 51.0439 23.085 51.0023 23.0479C50.9608 23.0109 50.9278 22.9653 50.9055 22.9143C50.8831 22.8633 50.8721 22.8081 50.8731 22.7524V6.30303C50.874 6.19982 50.9154 6.1011 50.9884 6.02811C51.0614 5.95513 51.1601 5.91371 51.2634 5.91279C51.3659 5.91576 51.4635 5.95783 51.536 6.03038C51.6086 6.10293 51.6506 6.20047 51.6536 6.30303V15.5979C52.3277 14.3917 53.5339 13.5758 54.9411 13.5758C57.2589 13.5758 58.5716 15.5979 58.5716 17.7384Z" fill="white"/>
<path d="M72.6563 18.4124C72.6544 18.5237 72.6086 18.6296 72.5288 18.7072C72.449 18.7848 72.3418 18.8276 72.2305 18.8263H64.3902C64.5912 20.7657 66.0458 22.5395 68.1034 22.5395C69.5107 22.5395 70.5513 22.0074 71.3318 20.884C71.3681 20.8249 71.4184 20.7757 71.4782 20.7407C71.538 20.7056 71.6055 20.6858 71.6747 20.6829C71.7264 20.6815 71.7778 20.6905 71.8258 20.7096C71.8738 20.7287 71.9174 20.7574 71.954 20.794C71.9905 20.8305 72.0192 20.8741 72.0383 20.9221C72.0574 20.9701 72.0665 21.0215 72.065 21.0732C72.0653 21.1445 72.0447 21.2144 72.0059 21.2742C71.2135 22.646 69.6407 23.32 68.1034 23.32C65.4663 23.32 63.5742 20.9549 63.5742 18.4361C63.5742 15.9172 65.4545 13.5521 68.1034 13.5521C70.7287 13.5521 72.6444 15.8936 72.6563 18.4124ZM71.8048 18.0458C71.6393 16.1064 70.1492 14.3326 68.0916 14.3326C66.0339 14.3326 64.5794 16.1064 64.3784 18.0458H71.8048Z" fill="white"/>
<path d="M82.2947 14.1079C82.3022 14.2129 82.2678 14.3166 82.1992 14.3964C82.1305 14.4761 82.033 14.5255 81.9281 14.5336C79.6221 14.8766 78.5814 16.7568 78.5814 18.9446V22.6933C78.5812 22.7932 78.5454 22.8898 78.4804 22.9656C78.4153 23.0415 78.3254 23.0917 78.2267 23.1072C78.1715 23.1145 78.1154 23.1098 78.0622 23.0935C78.009 23.0771 77.9599 23.0495 77.9184 23.0124C77.8768 22.9754 77.8438 22.9298 77.8215 22.8788C77.7992 22.8278 77.7881 22.7726 77.7891 22.7169V14.167C77.7893 14.0671 77.8252 13.9705 77.8902 13.8947C77.9552 13.8188 78.0452 13.7686 78.1439 13.7531C78.1991 13.7458 78.2552 13.7505 78.3084 13.7668C78.3616 13.7832 78.4107 13.8108 78.4522 13.8479C78.4937 13.8849 78.5268 13.9305 78.5491 13.9815C78.5714 14.0325 78.5824 14.0877 78.5814 14.1434V15.8817C79.2318 14.782 80.5208 13.7413 81.869 13.7413C82.07 13.7413 82.2947 13.8832 82.2947 14.1079Z" fill="white"/>
<path d="M95.1836 18.4124C95.1817 18.5237 95.1359 18.6296 95.0561 18.7072C94.9764 18.7848 94.8691 18.8276 94.7579 18.8263H86.9175C87.1186 20.7657 88.5731 22.5395 90.6308 22.5395C92.038 22.5395 93.0787 22.0074 93.8591 20.884C93.8955 20.8249 93.9458 20.7757 94.0056 20.7407C94.0654 20.7056 94.1328 20.6858 94.2021 20.6829C94.2537 20.6815 94.3051 20.6905 94.3531 20.7096C94.4012 20.7287 94.4448 20.7574 94.4813 20.794C94.5178 20.8305 94.5465 20.8741 94.5656 20.9221C94.5847 20.9701 94.5938 21.0215 94.5923 21.0732C94.5926 21.1445 94.5721 21.2144 94.5332 21.2742C93.7409 22.646 92.1681 23.32 90.6308 23.32C87.9937 23.32 86.1016 20.9549 86.1016 18.4361C86.1016 15.9172 87.9818 13.5521 90.6308 13.5521C93.2797 13.5521 95.1718 15.8936 95.1836 18.4124ZM94.344 18.0458C94.1784 16.1064 92.6884 14.3326 90.6308 14.3326C88.5731 14.3326 87.1186 16.1064 86.9175 18.0458H94.344Z" fill="white"/>
<path d="M107.86 14.2025V22.7879C107.857 22.8904 107.815 22.988 107.743 23.0605C107.67 23.1331 107.573 23.1751 107.47 23.1781C107.418 23.1796 107.367 23.1705 107.319 23.1514C107.271 23.1323 107.227 23.1036 107.191 23.0671C107.154 23.0306 107.126 22.987 107.106 22.9389C107.087 22.8909 107.078 22.8395 107.08 22.7879V21.1559C106.429 22.4449 105.282 23.3792 103.816 23.3792C101.486 23.3792 100.197 21.357 100.197 19.2166V14.1907C100.198 14.0875 100.24 13.9888 100.313 13.9158C100.386 13.8428 100.484 13.8014 100.588 13.8004C100.69 13.8034 100.788 13.8455 100.86 13.918C100.933 13.9906 100.975 14.0881 100.978 14.1907V19.2166C100.978 20.9076 101.936 22.5868 103.816 22.5868C106.453 22.5868 107.08 20.1153 107.08 17.3836V14.1789C107.081 14.1156 107.097 14.0535 107.126 13.9977C107.156 13.9418 107.199 13.894 107.251 13.8581C107.303 13.8222 107.363 13.7993 107.426 13.7913C107.489 13.7834 107.552 13.7905 107.612 13.8123C107.686 13.8468 107.749 13.9019 107.793 13.9711C107.837 14.0402 107.86 14.1205 107.86 14.2025Z" fill="white"/>
<path d="M127.716 17.7029V22.7287C127.713 22.8313 127.671 22.9288 127.598 23.0014C127.526 23.0739 127.428 23.116 127.325 23.119C127.274 23.1205 127.222 23.1114 127.174 23.0923C127.126 23.0732 127.083 23.0445 127.046 23.008C127.01 22.9714 126.981 22.9278 126.962 22.8798C126.943 22.8318 126.934 22.7804 126.935 22.7287V17.7029C126.935 16.0118 125.977 14.3562 124.097 14.3562C121.732 14.3562 120.833 16.8869 120.833 18.85V22.7287C120.83 22.8313 120.788 22.9288 120.716 23.0014C120.643 23.0739 120.546 23.116 120.443 23.119C120.391 23.1205 120.34 23.1114 120.292 23.0923C120.244 23.0732 120.2 23.0445 120.164 23.008C120.127 22.9714 120.099 22.9278 120.079 22.8798C120.06 22.8318 120.051 22.7804 120.053 22.7287V17.7029C120.053 16.0118 119.095 14.3562 117.215 14.3562C114.826 14.3562 113.844 16.2365 113.927 18.7435C113.927 18.8027 113.951 18.9091 113.927 18.9446V22.7169C113.927 22.8168 113.891 22.9134 113.826 22.9893C113.761 23.0651 113.671 23.1153 113.572 23.1308C113.517 23.1381 113.461 23.1335 113.408 23.1171C113.355 23.1008 113.306 23.0731 113.264 23.0361C113.223 22.999 113.189 22.9534 113.167 22.9024C113.145 22.8514 113.134 22.7962 113.135 22.7406V14.167C113.135 14.0671 113.171 13.9705 113.236 13.8947C113.301 13.8188 113.391 13.7686 113.49 13.7531C113.545 13.7458 113.601 13.7505 113.654 13.7668C113.707 13.7832 113.756 13.8108 113.798 13.8479C113.839 13.8849 113.872 13.9305 113.895 13.9815C113.917 14.0325 113.928 14.0877 113.927 14.1434V15.5743C114.601 14.3681 115.807 13.5758 117.215 13.5758C118.811 13.5758 120.053 14.5928 120.561 16.071C121.212 14.6046 122.477 13.5758 124.097 13.5758C126.403 13.5758 127.716 15.5743 127.716 17.7029Z" fill="white"/>
<path opacity="0.6" d="M9.81523 11.8374L0 16.2956L9.81523 22.102L19.6423 16.2956L9.81523 11.8374Z" fill="white"/>
<path opacity="0.45" d="M0 16.2956L9.81523 22.102V0L0 16.2956Z" fill="white"/>
<path opacity="0.8" d="M9.81445 0V22.102L19.6415 16.2956L9.81445 0Z" fill="white"/>
<path opacity="0.45" d="M0 18.1641L9.81523 32V23.9586L0 18.1641Z" fill="white"/>
<path opacity="0.8" d="M9.81445 23.9586V32L19.6415 18.1641L9.81445 23.9586Z" fill="white"/>
</g>
<defs>
<clipPath id="clip0_1342_12732">
<rect width="127.716" height="32" fill="white"/>
</clipPath>
</defs>
</svg>
