<svg width="123" height="33" viewBox="0 0 123 33" fill="none" xmlns="http://www.w3.org/2000/svg">
<g clip-path="url(#clip0_167:8116)">
<path d="M11.6225 0.306667C12.3902 -0.102222 13.5583 -0.102222 14.3259 0.306667L22.1593 4.47901C22.6216 4.72527 22.8756 5.09222 22.9211 5.47104H22.9285V26.4434C22.9184 26.8566 22.662 27.267 22.1593 27.5349L14.3259 31.7072C13.5583 32.1161 12.3902 32.1161 11.6225 31.7072L3.78914 27.5349C3.28851 27.2683 3.04827 26.8548 3.03638 26.4434C3.03519 26.4029 3.03504 26.3691 3.03618 26.3411L3.03613 5.60575C3.03534 5.58304 3.03527 5.56035 3.03591 5.53777L3.03638 5.47104L3.03988 5.47101C3.07467 5.08805 3.31707 4.73047 3.78914 4.47901L11.6225 0.306667ZM21.6954 17.1714L14.3259 21.0967C13.5583 21.5056 12.3902 21.5056 11.6225 21.0967L4.26919 17.1802V26.4019L11.6225 30.2978C12.0377 30.5217 12.4687 30.7398 12.8901 30.7675L12.9742 30.7703C13.4133 30.7718 13.8396 30.5469 14.2719 30.3341L21.6954 26.3684V17.1714ZM1.76228 25.9875C1.76228 26.7908 1.85489 27.3191 2.03876 27.6912C2.19115 27.9996 2.41982 28.2352 2.83734 28.5221L2.86118 28.5383C2.95281 28.6006 3.05375 28.6659 3.17661 28.7424L3.32151 28.832L3.76644 29.1028L3.12829 30.1668L2.63029 29.8634L2.54659 29.8116C2.4026 29.7218 2.28325 29.6451 2.17193 29.5693C0.981978 28.7602 0.538186 27.8783 0.529429 26.0432L0.529297 25.9875H1.76228ZM12.3576 11.5502C12.3005 11.5699 12.2471 11.5928 12.1983 11.6187L4.36498 15.7911C4.35676 15.7955 4.34892 15.7998 4.34146 15.8041L4.33483 15.808L4.34711 15.8151L4.36498 15.8248L12.1983 19.9972C12.2471 20.0231 12.3005 20.046 12.3576 20.0657V11.5502ZM13.5909 11.5502V20.0657C13.6479 20.046 13.7014 20.0231 13.7501 19.9972L21.5835 15.8248C21.5917 15.8205 21.5995 15.8161 21.607 15.8119L21.6136 15.808L21.6013 15.8009L21.5835 15.7911L13.7501 11.6187C13.7014 11.5928 13.6479 11.5699 13.5909 11.5502ZM21.6954 6.95876L14.6684 10.7016L21.6954 14.4445V6.95876ZM4.26919 6.96751V14.4357L11.2799 10.7016L4.26919 6.96751ZM13.7501 1.40615C13.3427 1.18917 12.6057 1.18917 12.1983 1.40615L4.36498 5.57851C4.35676 5.58289 4.34892 5.58721 4.34146 5.59149L4.33483 5.59537L4.34711 5.60247L4.36498 5.61225L12.1983 9.7846C12.6057 10.0016 13.3427 10.0016 13.7501 9.7846L21.5835 5.61225C21.5917 5.60787 21.5995 5.60355 21.607 5.59924L21.6136 5.59537L21.6013 5.58826L21.5835 5.57851L13.7501 1.40615ZM22.853 1.86369L23.351 2.167L23.4347 2.21882C23.5787 2.30845 23.6981 2.38546 23.8094 2.46114C24.9993 3.27016 25.4431 4.15222 25.4518 5.98711L25.452 6.04301H24.219C24.219 5.23946 24.1264 4.71134 23.9426 4.33925C23.7902 4.03087 23.5615 3.79519 23.144 3.50842L23.1202 3.49213C23.0285 3.42983 22.9276 3.36458 22.8047 3.28787L22.6598 3.19838L22.2149 2.92761L22.853 1.86369Z" fill="white"/>
<path d="M37.9769 25.569V13.8731H41.1769V11.7316H37.9769V10.1942C37.9769 8.45535 38.7273 7.58595 40.2279 7.58595C40.6617 7.58595 41.1229 7.65916 41.6109 7.80557V5.52682C41.0143 5.34379 40.3544 5.25227 39.6312 5.25227C38.2392 5.25227 37.1589 5.65495 36.3905 6.46029C35.6221 7.26564 35.2379 8.43705 35.2379 9.97454V11.7316H32.6074V13.8731H35.2379V25.569H37.9769ZM49.0957 25.7611C50.1444 25.7611 51.0618 25.5415 51.8483 25.1021C52.6347 24.6629 53.2269 24.0315 53.6247 23.2078V25.569H56.3366V11.7316H53.6247V13.9829C53.2087 13.1593 52.6122 12.5233 51.8347 12.0748C51.0574 11.6264 50.1444 11.4022 49.0957 11.4022C47.9206 11.4022 46.8719 11.7042 45.95 12.3082C45.0278 12.9122 44.3093 13.7633 43.794 14.8615C43.2788 15.9597 43.0212 17.2226 43.0212 18.6503C43.0212 20.078 43.2741 21.3272 43.7805 22.3979C44.2866 23.4686 44.9962 24.2969 45.9093 24.8826C46.8223 25.4683 47.8843 25.7611 49.0957 25.7611ZM49.7466 23.5647C48.499 23.5647 47.5273 23.1346 46.8314 22.2743C46.1353 21.4141 45.7871 20.2061 45.7871 18.6503C45.7871 17.0762 46.1353 15.8453 46.8314 14.9576C47.5273 14.0699 48.4901 13.626 49.7195 13.626C50.9668 13.626 51.9297 14.0562 52.6075 14.9164C53.2856 15.7767 53.6247 17.003 53.6247 18.5954C53.6247 20.1695 53.2856 21.3912 52.6075 22.2606C51.9297 23.13 50.976 23.5647 49.7466 23.5647ZM63.062 25.569V17.6894C63.062 16.463 63.4099 15.4838 64.1061 14.7517C64.8022 14.0196 65.7287 13.6535 66.8858 13.6535C67.8983 13.6535 68.6348 13.928 69.096 14.4771C69.557 15.0262 69.7875 15.9048 69.7875 17.1128V25.569H72.5265V16.9481C72.5265 13.2508 70.8902 11.4022 67.6179 11.4022C66.5695 11.4022 65.6337 11.6356 64.8111 12.1023C63.9886 12.569 63.3603 13.2417 62.9263 14.1202L62.6823 11.7316H60.1332C60.2778 12.8847 60.3501 14.1843 60.3501 15.6303V25.569H63.062ZM81.6926 25.7611C82.4519 25.7611 83.13 25.6606 83.7267 25.4592V23.2078C83.2383 23.3542 82.7594 23.4274 82.2893 23.4274C81.566 23.4274 81.0012 23.2307 80.5943 22.8372C80.1876 22.4436 79.9841 21.771 79.9841 20.8192V13.8731H83.7538V11.7316H79.9841V7.31139L77.2453 8.27233V11.7316H74.5874V13.8731H77.2453V21.0389C77.2453 22.5764 77.6339 23.7478 78.4112 24.5531C79.1888 25.3585 80.2824 25.7611 81.6926 25.7611ZM92.1607 25.7611C93.4803 25.7611 94.6465 25.4683 95.659 24.8826C96.6714 24.2969 97.4532 23.4641 98.0047 22.3842C98.5562 21.3043 98.8318 20.0413 98.8318 18.5954C98.8318 17.1494 98.5562 15.8819 98.0047 14.7929C97.4532 13.7038 96.6714 12.8665 95.659 12.2807C94.6465 11.695 93.4803 11.4022 92.1607 11.4022C90.8227 11.4022 89.6477 11.695 88.6352 12.2807C87.6227 12.8665 86.8408 13.7038 86.2893 14.7929C85.738 15.8819 85.4621 17.1494 85.4621 18.5954C85.4621 20.0413 85.738 21.3043 86.2893 22.3842C86.8408 23.4641 87.6227 24.2969 88.6352 24.8826C89.6477 25.4683 90.8227 25.7611 92.1607 25.7611ZM92.1335 23.5647C90.8859 23.5647 89.9233 23.1437 89.2452 22.3018C88.5673 21.4598 88.2283 20.2244 88.2283 18.5954C88.2283 17.003 88.5718 15.7767 89.2588 14.9164C89.9457 14.0562 90.913 13.626 92.1607 13.626C93.39 13.626 94.3437 14.0562 95.0216 14.9164C95.6997 15.7767 96.0385 17.003 96.0385 18.5954C96.0385 20.2244 95.7041 21.4598 95.0352 22.3018C94.3662 23.1437 93.3989 23.5647 92.1335 23.5647ZM104.744 25.569V17.7443C104.744 16.4813 105.051 15.4838 105.666 14.7517C106.281 14.0196 107.112 13.6535 108.161 13.6535C109.065 13.6535 109.72 13.928 110.127 14.4771C110.534 15.0262 110.737 15.8956 110.737 17.0854V25.569H113.476V17.7443C113.476 16.4813 113.779 15.4838 114.385 14.7517C114.99 14.0196 115.817 13.6535 116.866 13.6535C117.77 13.6535 118.425 13.928 118.832 14.4771C119.239 15.0262 119.442 15.8956 119.442 17.0854V25.569H122.181V16.9481C122.181 13.2508 120.663 11.4022 117.625 11.4022C116.613 11.4022 115.704 11.6401 114.9 12.116C114.095 12.5919 113.485 13.2417 113.069 14.0653C112.418 12.2899 111.035 11.4022 108.92 11.4022C107.926 11.4022 107.058 11.631 106.317 12.0886C105.575 12.5461 105.006 13.1959 104.608 14.0379L104.364 11.7316H101.815C101.959 12.8847 102.032 14.1843 102.032 15.6303V25.569H104.744Z" fill="white"/>
</g>
<defs>
<clipPath id="clip0_167:8116">
<rect width="121.653" height="32.0138" fill="white" transform="translate(0.529297)"/>
</clipPath>
</defs>
</svg>
