<svg width="118" height="32" viewBox="0 0 118 32" fill="none" xmlns="http://www.w3.org/2000/svg">
<path d="M47.6602 4.89434C46.9311 4.86666 46.2207 5.12828 45.6845 5.62192C45.1483 6.11556 44.83 6.80101 44.7992 7.52824V10.1916H50.929V14.6772H44.7992V31.5931H39.2822V14.6772H35.6016V10.1916H39.2782V7.1312C39.2782 2.85208 42.955 0.00195609 47.0415 0.00195609C48.9128 -0.0390465 50.7328 0.614481 52.1487 1.83587L50.1074 5.70811C49.3716 5.23447 48.5278 4.95389 47.6543 4.89238" fill="white"/>
<path d="M74.2117 10.1917V31.5931H69.9242L69.1065 29.1479H68.4977C67.68 30.1661 65.8416 31.7976 62.163 31.7976C56.4489 31.7976 53.582 27.7209 53.582 21.8103V10.1917H59.5089V20.3833C59.5089 23.0329 59.7059 26.7007 63.3925 26.7007C65.2308 26.7007 68.2947 25.6806 68.2947 20.1789V10.1917H74.2117Z" fill="white"/>
<path d="M86.2663 14.4727C84.4279 14.4727 83.6122 15.2865 83.6122 16.3066C83.6122 17.7337 85.4506 18.1405 86.8811 18.5474C90.7627 19.3631 94.6443 20.5858 94.6443 25.0693C94.6443 29.5528 90.9656 32 86.4712 32C81.567 32 77.6854 28.9415 77.4824 24.458H82.8024C82.8991 25.3426 83.3358 26.1553 84.0207 26.7254C84.7056 27.2954 85.5855 27.5783 86.4752 27.5145C88.7234 27.5145 89.1312 26.2919 89.1312 25.4781C89.1312 23.8467 87.7027 23.4398 86.0673 23.031C83.6162 22.4216 78.0991 21.4015 78.0991 16.5091C78.0991 12.23 82.1877 10.1917 86.2722 10.1917C91.1765 10.1917 94.2404 13.0457 94.4453 16.7135H89.1253C89.1253 15.6953 88.5165 14.4727 86.2644 14.4727" fill="white"/>
<path d="M102.613 18.1405H112.217C112.009 17.1208 111.44 16.2097 110.615 15.5735C109.789 14.9373 108.762 14.6185 107.72 14.6752C106.603 14.6024 105.494 14.9038 104.569 15.5317C103.644 16.1595 102.955 17.0777 102.613 18.1405ZM117.937 22.4197H102.205C102.814 25.6806 105.472 26.9052 107.919 26.9052C108.697 26.9421 109.473 26.795 110.183 26.476C110.893 26.1569 111.518 25.6749 112.006 25.0693H117.523C116.786 27.0645 115.447 28.7827 113.691 29.9874C111.935 31.192 109.847 31.8238 107.716 31.7956C106.289 31.792 104.877 31.5079 103.56 30.9597C102.243 30.4114 101.047 29.6097 100.04 28.6003C99.0341 27.5909 98.2369 26.3936 97.6945 25.0768C97.1521 23.76 96.8751 22.3494 96.8792 20.9258C96.8792 20.8138 96.8792 20.6998 96.8792 20.5858C96.784 17.8181 97.7945 15.1259 99.6885 13.1012C101.582 11.0765 104.205 9.88504 106.979 9.78869C107.155 9.78869 107.328 9.78869 107.503 9.78869C113.02 9.78869 118.735 13.6609 117.923 22.4256" fill="white"/>
<path fill-rule="evenodd" clip-rule="evenodd" d="M15.3877 25.9703C14.3012 25.9703 13.2915 25.7437 12.4674 25.3149L3.59298 20.6986L0.933759 22.2885C-0.330252 23.0439 -0.308174 24.2021 0.983012 24.8739L13.2571 31.2593C13.8533 31.5692 14.6154 31.7218 15.3877 31.7218C16.2896 31.7218 17.2046 31.5141 17.8856 31.1071L29.9016 23.9226C31.1656 23.1667 31.1435 22.0085 29.8523 21.3371L27.3005 20.0091L18.7632 25.114C17.8393 25.666 16.6407 25.9703 15.3877 25.9703Z" fill="white"/>
<path fill-rule="evenodd" clip-rule="evenodd" d="M29.8523 13.3747L27.7273 12.2007L22.7787 15.3425L21.9291 15.8817L21.0799 16.421L18.7633 17.8919C17.8394 18.4789 16.6404 18.8016 15.3878 18.8016C14.3013 18.8016 13.2916 18.561 12.4675 18.1061L9.8134 16.6397L8.93493 16.1549L8.05645 15.6697L3.16603 12.9676L0.933961 14.3849C-0.330042 15.1876 -0.308388 16.417 0.982789 17.1303L3.535 18.5401L4.41347 19.0253L5.29152 19.5105L13.2572 23.9107C13.8529 24.2397 14.6155 24.4013 15.3878 24.4013C16.2892 24.4013 17.2047 24.1813 17.8853 23.7491L25.5436 18.8869L26.3932 18.3477L27.2424 17.8084L29.9016 16.1201C31.1656 15.3179 31.1435 14.0881 29.8523 13.3747Z" fill="white"/>
<path fill-rule="evenodd" clip-rule="evenodd" d="M29.8523 6.88434L17.5779 0.464929C16.9822 0.153004 16.22 0 15.4473 0C14.5459 0 13.6305 0.208795 12.9498 0.617933L0.933961 7.84124C-0.330042 8.60077 -0.308388 9.76478 0.982789 10.4402L3.10786 11.5518L3.98634 12.0112L4.86481 12.4707L9.75523 15.0286L10.6337 15.4876L11.5122 15.9475L13.2572 16.8605C13.8529 17.172 14.6155 17.325 15.3878 17.325C16.2892 17.325 17.2047 17.1162 17.8853 16.707L19.3229 15.8427L20.1725 15.3321L21.0217 14.8215L25.9703 11.8468L26.8199 11.3362L27.6691 10.8257L29.9016 9.48371C31.1656 8.72419 31.1435 7.55975 29.8523 6.88434Z" fill="white"/>
</svg>
