<svg width="144" height="32" viewBox="0 0 144 32" fill="none" xmlns="http://www.w3.org/2000/svg">
<path d="M45.8482 21.3276C47.6122 21.3276 49.3441 20.7371 50.3865 19.9391V14.8479H45.6077V17.0504H47.8207V18.391C47.1632 18.7422 46.5538 18.8858 45.8482 18.8858C43.9078 18.8858 42.7692 17.3855 42.7692 15.5502C42.7692 13.4434 44.1163 12.2145 45.736 12.2145C46.9548 12.2145 47.8527 12.7412 48.4622 13.3317L50.3544 11.7357C49.1838 10.3951 47.3877 9.7088 45.736 9.7088C42.0957 9.7088 39.9629 12.2624 39.9629 15.5502C39.9629 19.2369 42.5607 21.3276 45.8482 21.3276ZM52.0432 21.2H54.5448V17.2738C54.5448 16.0608 55.1221 15.4703 55.9881 15.4703C56.806 15.4703 57.2389 15.8374 57.2389 17.1302V21.2H59.7404V16.5237C59.7404 14.0499 58.5536 13.2519 56.9342 13.2519C56.0202 13.2519 55.1863 13.603 54.5769 14.3053H54.5448V13.3955H52.0432V21.2ZM65.2415 21.3436C67.711 21.3436 69.4754 19.6998 69.4754 17.3058C69.4754 14.8958 67.711 13.2519 65.2415 13.2519C62.7077 13.2519 60.9921 14.9277 60.9921 17.3058C60.9921 19.6678 62.7077 21.3436 65.2415 21.3436ZM65.2415 19.1411C64.247 19.1411 63.5259 18.3431 63.5259 17.3058C63.5259 16.2365 64.2315 15.4703 65.2415 15.4703C66.2199 15.4703 66.9416 16.2205 66.9416 17.3058C66.9416 18.3751 66.1877 19.1411 65.2415 19.1411ZM73.4021 21.3436C75.5506 21.3436 76.5933 20.2903 76.5933 18.8379C76.5933 17.3058 75.647 16.8588 73.9154 16.2683C73.1293 15.997 72.8405 15.8215 72.8405 15.5821C72.8405 15.2789 73.1776 15.1511 73.4664 15.1511C73.9952 15.1511 74.6687 15.4225 75.2141 15.9651L76.4009 14.2255C75.4869 13.5551 74.6204 13.2519 73.4342 13.2519C71.7984 13.2519 70.4991 14.1617 70.4991 15.7417C70.4991 17.2419 71.6537 17.8803 72.9692 18.2793C73.947 18.5826 74.1875 18.7422 74.1875 18.9975C74.1875 19.2848 73.9309 19.4603 73.4342 19.4603C72.7125 19.4603 72.039 19.1731 71.3816 18.5826L70.2109 20.1945C71.0767 20.9606 72.167 21.3436 73.4021 21.3436ZM79.2137 12.422C80.0802 12.422 80.7215 11.7995 80.7215 10.9856C80.7215 10.2035 80.0802 9.58114 79.2137 9.58114C78.3479 9.58114 77.7226 10.2195 77.7226 10.9856C77.7226 11.7995 78.3479 12.422 79.2137 12.422ZM77.9632 21.2H80.4648V13.3955H77.9632V21.2ZM84.8652 21.3436C87.0143 21.3436 88.0564 20.2903 88.0564 18.8379C88.0564 17.3058 87.1108 16.8588 85.3785 16.2683C84.5931 15.997 84.3043 15.8215 84.3043 15.5821C84.3043 15.2789 84.6407 15.1511 84.9295 15.1511C85.4589 15.1511 86.1324 15.4225 86.6773 15.9651L87.8641 14.2255C86.95 13.5551 86.0842 13.2519 84.8974 13.2519C83.2616 13.2519 81.9628 14.1617 81.9628 15.7417C81.9628 17.2419 83.1175 17.8803 84.4323 18.2793C85.4107 18.5826 85.6513 18.7422 85.6513 18.9975C85.6513 19.2848 85.3946 19.4603 84.8974 19.4603C84.1757 19.4603 83.5022 19.1731 82.8448 18.5826L81.674 20.1945C82.5404 20.9606 83.6308 21.3436 84.8652 21.3436ZM98.8593 21.3436C100.88 21.3436 102.467 20.386 103.446 19.189L101.489 17.5132C100.832 18.2952 99.9175 18.79 98.8593 18.79C96.999 18.79 95.7961 17.3696 95.7961 15.5502C95.7961 13.4754 97.1914 12.2624 98.8432 12.2624C99.9496 12.2624 100.864 12.8529 101.473 13.5711L103.43 11.8953C102.179 10.3791 100.447 9.7088 98.8432 9.7088C95.0905 9.7088 92.9736 12.3103 92.9736 15.5502C92.9736 19.3167 95.5877 21.3436 98.8593 21.3436ZM104.678 21.2H107.18V17.2579C107.18 16.0449 107.757 15.4703 108.639 15.4703C109.521 15.4703 109.954 15.8534 109.954 17.1142V21.2H112.456V16.4918C112.456 14.0339 111.253 13.2519 109.633 13.2519C108.671 13.2519 107.821 13.603 107.212 14.2893L107.18 14.2734V9.45343H104.678V21.2ZM117.378 21.3436C118.323 21.3436 119.029 21.0244 119.542 20.37L119.575 20.386V21.2H121.964V13.3955H119.446V14.2095L119.414 14.2255C118.869 13.5871 118.083 13.2519 117.249 13.2519C115.229 13.2519 113.673 14.9118 113.673 17.3058C113.673 19.7157 115.229 21.3436 117.378 21.3436ZM117.907 19.1411C116.913 19.1411 116.223 18.407 116.223 17.3058C116.223 16.1886 116.945 15.4544 117.907 15.4544C118.837 15.4544 119.558 16.2365 119.558 17.3058C119.558 18.423 118.805 19.1411 117.907 19.1411ZM124.974 12.422C125.84 12.422 126.482 11.7995 126.482 10.9856C126.482 10.2035 125.84 9.58114 124.974 9.58114C124.108 9.58114 123.483 10.2195 123.483 10.9856C123.483 11.7995 124.108 12.422 124.974 12.422ZM123.723 21.2H126.225V13.3955H123.723V21.2ZM128.043 21.2H130.545V17.2738C130.545 16.0608 131.123 15.4703 131.988 15.4703C132.807 15.4703 133.24 15.8374 133.24 17.1302V21.2H135.741V16.5237C135.741 14.0499 134.554 13.2519 132.935 13.2519C132.021 13.2519 131.187 13.603 130.577 14.3053H130.545V13.3955H128.043V21.2Z" fill="white"/>
<path d="M15.5056 17.8686C16.3212 17.8686 17.074 17.5982 17.6805 17.1301L12.7034 12.1784C12.2329 12.7714 11.961 13.5203 11.961 14.3422C11.9505 16.2874 13.5399 17.8686 15.5056 17.8686Z" fill="white"/>
<path d="M30.3113 14.3317C30.3113 13.5203 30.0395 12.7714 29.5689 12.168L24.5918 17.1196C25.1878 17.5877 25.9407 17.8582 26.7667 17.8582C28.722 17.8686 30.3113 16.2874 30.3113 14.3317Z" fill="white"/>
<path d="M32.8211 8.95366L30.6148 11.1486C31.3467 12.0224 31.7859 13.1251 31.7859 14.3526C31.7859 17.1093 29.5378 19.3458 26.7669 19.3458C25.5436 19.3458 24.4247 18.9089 23.5465 18.1807L21.1311 20.5837L18.7157 18.1807C17.8374 18.9089 16.729 19.3458 15.4952 19.3458C12.7243 19.3458 10.4762 17.1093 10.4762 14.3526C10.4762 13.1355 10.9154 12.0224 11.6473 11.1486L10.5181 10.0251L9.44105 8.95366C8.18634 11.0134 7.46484 13.4164 7.46484 15.9962C7.46484 23.5069 13.5817 29.5819 21.1206 29.5819C28.6595 29.5819 34.7763 23.4965 34.7763 15.9962C34.7973 13.406 34.0758 11.003 32.8211 8.95366Z" fill="white"/>
<path d="M31.0112 6.61303C28.5331 4.0228 25.0198 2.40001 21.1302 2.40001C17.2404 2.40001 13.7377 4.0228 11.2491 6.61303C10.9145 6.96674 10.5904 7.34126 10.2871 7.72612L21.1197 18.5031L31.9523 7.71571C31.6804 7.3412 31.3563 6.95634 31.0112 6.61303ZM21.1302 4.16844C24.3298 4.16844 27.2993 5.39594 29.5264 7.63252L21.1302 15.9858L12.7338 7.63252C14.9715 5.39594 17.9306 4.16844 21.1302 4.16844Z" fill="white"/>
</svg>
