<svg width="116" height="27" viewBox="0 0 116 27" fill="none" xmlns="http://www.w3.org/2000/svg">
<g clip-path="url(#clip0_494:6908)">
<path d="M18.9605 1.63191C17.6923 1.6309 16.4756 2.14551 15.5773 3.06278C14.6791 3.98005 14.1728 5.22503 14.1695 6.52442V11.949C13.6761 11.9832 13.1716 12.0046 12.6486 12.0046C12.1256 12.0046 11.6235 12.0261 11.1276 12.0565V6.52442C11.1075 5.23629 10.5939 4.00792 9.69771 3.1043C8.80154 2.20068 7.59459 1.69424 6.33725 1.69424C5.07992 1.69424 3.87297 2.20068 2.9768 3.1043C2.08062 4.00792 1.56705 5.23629 1.54688 6.52442V19.4894C1.56705 20.7775 2.08062 22.0059 2.9768 22.9095C3.87297 23.8131 5.07992 24.3196 6.33725 24.3196C7.59459 24.3196 8.80154 23.8131 9.69771 22.9095C10.5939 22.0059 11.1075 20.7775 11.1276 19.4894V14.0648C11.621 14.0307 12.1256 14.0092 12.6486 14.0092C13.1716 14.0092 13.6736 13.9877 14.1695 13.9574V19.4894C14.1897 20.7775 14.7032 22.0059 15.5994 22.9095C16.4956 23.8131 17.7025 24.3196 18.9599 24.3196C20.2172 24.3196 21.4242 23.8131 22.3203 22.9095C23.2165 22.0059 23.7301 20.7775 23.7503 19.4894V6.52442C23.747 5.22525 23.2408 3.98046 22.3429 3.06323C21.4449 2.14599 20.2285 1.63123 18.9605 1.63191ZM6.33664 3.63643C7.08507 3.6361 7.80307 3.93998 8.3331 4.4814C8.86313 5.02282 9.16191 5.75756 9.16387 6.52442V12.2688C7.76232 12.4769 6.39366 12.8734 5.09325 13.448C4.52982 13.7014 3.99942 14.0257 3.51434 14.4136V6.52442C3.5163 5.75844 3.81439 5.02446 4.34336 4.48318C4.87232 3.9419 5.58906 3.63743 6.33664 3.63643ZM9.16387 19.4894C9.16387 20.2577 8.866 20.9945 8.33579 21.5378C7.80558 22.081 7.08647 22.3862 6.33664 22.3862C5.58681 22.3862 4.86769 22.081 4.33748 21.5378C3.80728 20.9945 3.50941 20.2577 3.50941 19.4894V18.1889C3.50941 17.04 4.39754 15.9518 5.8864 15.2743C6.93548 14.8106 8.03623 14.4808 9.16387 14.2923V19.4894ZM18.9605 22.3774C18.2121 22.3777 17.4941 22.0738 16.964 21.5324C16.434 20.991 16.1352 20.2562 16.1333 19.4894V13.745C17.5348 13.5369 18.9035 13.1404 20.2039 12.5658C20.7673 12.3124 21.2977 11.9881 21.7828 11.6002V19.4894C21.7808 20.2554 21.4827 20.9894 20.9538 21.5306C20.4248 22.0719 19.7081 22.3764 18.9605 22.3774ZM19.4107 10.7319C18.3616 11.1956 17.2609 11.5255 16.1333 11.7139V6.52442C16.1333 5.75613 16.4311 5.01931 16.9613 4.47605C17.4915 3.93279 18.2107 3.62759 18.9605 3.62759C19.7103 3.62759 20.4294 3.93279 20.9596 4.47605C21.4899 5.01931 21.7877 5.75613 21.7877 6.52442V7.82496C21.7877 8.96878 20.8996 10.057 19.4107 10.7319Z" fill="white"/>
<path d="M87.7861 9.49329C86.7166 9.49404 85.6712 9.81969 84.7822 10.4291C83.8932 11.0384 83.2005 11.9042 82.7917 12.9169C82.3828 13.9296 82.2761 15.0437 82.4852 16.1185C82.6942 17.1933 83.2095 18.1805 83.966 18.9552C84.7225 19.73 85.6861 20.2575 86.7352 20.4712C87.7843 20.6849 88.8716 20.5751 89.8598 20.1557C90.8479 19.7363 91.6926 19.0262 92.2869 18.115C92.8812 17.2039 93.1986 16.1326 93.1988 15.0367C93.1988 14.3085 93.0588 13.5875 92.7868 12.9148C92.5147 12.242 92.116 11.6308 91.6133 11.116C91.1107 10.6012 90.514 10.193 89.8573 9.91453C89.2006 9.6361 88.4968 9.49296 87.7861 9.49329ZM91.4361 15.0354C91.4352 16.028 91.0495 16.9795 90.364 17.6808C89.6785 18.3821 88.7493 18.7758 87.7806 18.7753C86.8119 18.7748 85.883 18.3801 85.1982 17.6781C84.5134 16.9761 84.1288 16.0242 84.1288 15.0317C84.1288 14.0391 84.5134 13.0872 85.1982 12.3852C85.883 11.6832 86.8119 11.2885 87.7806 11.288C88.7493 11.2875 89.6785 11.6812 90.364 12.3825C91.0495 13.0838 91.4352 14.0353 91.4361 15.0279V15.0354Z" fill="white"/>
<path d="M55.2636 9.53249C55.1485 9.53249 55.0345 9.55575 54.9281 9.60092C54.8218 9.6461 54.7252 9.71231 54.6439 9.79577C54.5625 9.87923 54.498 9.97831 54.4541 10.0873C54.4101 10.1963 54.3876 10.3132 54.3878 10.4311V10.9594C53.615 10.2294 52.6513 9.74597 51.6147 9.56813C50.578 9.39029 49.5132 9.52578 48.5505 9.95804C47.5878 10.3903 46.7689 11.1006 46.1938 12.0021C45.6187 12.9036 45.3125 13.9572 45.3125 15.0342C45.3125 16.1112 45.6187 17.1648 46.1938 18.0663C46.7689 18.9678 47.5878 19.6781 48.5505 20.1104C49.5132 20.5426 50.578 20.6781 51.6147 20.5003C52.6513 20.3224 53.615 19.839 54.3878 19.109V19.631C54.3834 19.7517 54.4027 19.8722 54.4448 19.9851C54.4869 20.098 54.5507 20.201 54.6325 20.2881C54.7143 20.3751 54.8124 20.4443 54.921 20.4916C55.0295 20.5389 55.1462 20.5633 55.2642 20.5633C55.3821 20.5633 55.4989 20.5389 55.6074 20.4916C55.7159 20.4443 55.814 20.3751 55.8959 20.2881C55.9777 20.201 56.0415 20.098 56.0836 19.9851C56.1256 19.8722 56.145 19.7517 56.1406 19.631V10.4311C56.1406 10.1928 56.0482 9.96422 55.8837 9.79569C55.7193 9.62717 55.4962 9.53249 55.2636 9.53249ZM54.3878 15.0355C54.3874 16.0285 54.0022 16.9807 53.3168 17.6827C52.6314 18.3847 51.702 18.7791 50.7329 18.7791C50.0098 18.7793 49.303 18.5599 48.7017 18.1486C48.1003 17.7373 47.6315 17.1526 47.3545 16.4683C47.0775 15.784 47.0047 15.0309 47.1453 14.3043C47.2859 13.5776 47.6337 12.91 48.1446 12.3858C48.6555 11.8616 49.3066 11.5044 50.0156 11.3593C50.7246 11.2142 51.4597 11.2878 52.1279 11.5707C52.7961 11.8536 53.3675 12.3332 53.7697 12.9488C54.172 13.5644 54.387 14.2883 54.3878 15.0291V15.0355Z" fill="white"/>
<path d="M64.6836 10.3932C64.6833 10.6311 64.5909 10.8591 64.4267 11.0274C64.2626 11.1956 64.04 11.2902 63.8078 11.2906H63.6943C62.726 11.2902 61.7971 11.6838 61.1117 12.3848C60.4264 13.0858 60.0407 14.0369 60.0394 15.0291C59.9938 15.2137 60.0123 18.0625 60.0271 19.7485C60.0121 19.8656 59.9746 19.9785 59.9167 20.0806C59.8589 20.1828 59.7819 20.2721 59.6901 20.3436C59.5983 20.4151 59.4937 20.4672 59.3821 20.4969C59.2706 20.5267 59.1544 20.5335 59.0403 20.5169H59.0255C58.8143 20.4773 58.6239 20.3619 58.4882 20.1915C58.3526 20.021 58.2807 19.8066 58.2854 19.5867V10.4311C58.2854 10.3131 58.3081 10.1962 58.3521 10.0872C58.3962 9.97819 58.4608 9.87913 58.5422 9.79568C58.6237 9.71224 58.7204 9.64605 58.8268 9.60089C58.9332 9.55573 59.0472 9.53248 59.1624 9.53248H59.2093C59.4389 9.55356 59.6522 9.66313 59.806 9.83907C59.9599 10.015 60.0429 10.2442 60.0382 10.4804V10.9581C61.0331 10.0157 62.3382 9.49214 63.6931 9.49204H63.8066C64.0389 9.49204 64.2616 9.58658 64.4259 9.75487C64.5901 9.92316 64.6824 10.1514 64.6824 10.3894L64.6836 10.3932Z" fill="white"/>
<path d="M103.626 14.1444V19.6398C103.626 19.8781 103.534 20.1067 103.369 20.2752C103.205 20.4438 102.982 20.5384 102.749 20.5384C102.517 20.5378 102.295 20.4428 102.131 20.2743C101.967 20.1059 101.875 19.8777 101.875 19.6398V18.7424V14.1444C101.873 13.4 101.584 12.6866 101.069 12.161C100.555 11.6353 99.8579 11.3404 99.1314 11.3411C99.0685 11.3411 99.008 11.3411 98.9439 11.3487C97.492 11.4473 96.3966 12.7516 96.3966 14.243V15.335V18.7475V19.6449C96.3966 19.8832 96.3042 20.1118 96.1398 20.2803C95.9753 20.4488 95.7522 20.5435 95.5196 20.5435C95.287 20.5435 95.0639 20.4488 94.8995 20.2803C94.735 20.1118 94.6426 19.8832 94.6426 19.6449V10.4362C94.6426 10.1978 94.735 9.96927 94.8995 9.80074C95.0639 9.63222 95.287 9.53754 95.5196 9.53754C95.7522 9.53754 95.9753 9.63222 96.1398 9.80074C96.3042 9.96927 96.3966 10.1978 96.3966 10.4362V10.5208C97.1138 9.93034 97.9953 9.58826 98.9143 9.54386C100.103 9.48336 101.267 9.90913 102.149 10.7275C103.032 11.546 103.561 12.69 103.62 13.9081C103.624 13.9852 103.626 14.061 103.626 14.1444Z" fill="white"/>
<path d="M43.6368 6.29946V19.7156C43.6368 19.9503 43.5458 20.1753 43.3839 20.3412C43.222 20.5071 43.0023 20.6004 42.7733 20.6004C42.5443 20.6004 42.3247 20.5071 42.1628 20.3412C42.0008 20.1753 41.9099 19.9503 41.9099 19.7156V13.6603H32.8793V19.727C32.8793 19.9617 32.7883 20.1867 32.6264 20.3526C32.4644 20.5185 32.2448 20.6117 32.0158 20.6117C31.7868 20.6117 31.5672 20.5185 31.4052 20.3526C31.2433 20.1867 31.1523 19.9617 31.1523 19.727V6.29946C31.1523 6.06481 31.2433 5.83978 31.4052 5.67386C31.5672 5.50795 31.7868 5.41473 32.0158 5.41473C32.2448 5.41473 32.4644 5.50795 32.6264 5.67386C32.7883 5.83978 32.8793 6.06481 32.8793 6.29946V12.1222H41.8975V6.29946C41.8975 6.06481 41.9885 5.83978 42.1504 5.67386C42.3124 5.50795 42.532 5.41473 42.761 5.41473C42.99 5.41473 43.2096 5.50795 43.3716 5.67386C43.5335 5.83978 43.6245 6.06481 43.6245 6.29946H43.6368Z" fill="white"/>
<path d="M81.0674 14.5628V19.6322C81.0674 19.8705 80.975 20.0991 80.8105 20.2676C80.646 20.4362 80.4229 20.5308 80.1903 20.5308C80.0752 20.5308 79.9612 20.5076 79.8549 20.4624C79.7486 20.4172 79.652 20.351 79.5706 20.2676C79.4893 20.1841 79.4248 20.085 79.3809 19.976C79.3369 19.867 79.3144 19.7502 79.3145 19.6322V15.0127V13.7981C79.3219 13.4689 79.2659 13.1414 79.1498 12.8344C79.0336 12.5273 78.8596 12.2467 78.6376 12.0086C78.4156 11.7705 78.15 11.5795 77.856 11.4465C77.562 11.3136 77.2453 11.2412 76.924 11.2337C76.6027 11.2261 76.2831 11.2835 75.9834 11.4025C75.6837 11.5215 75.4099 11.6998 75.1775 11.9273C74.7081 12.3866 74.436 13.0182 74.4212 13.6831C74.4212 13.721 74.4212 13.7589 74.4212 13.7981V19.6322C74.4256 19.753 74.4062 19.8734 74.3641 19.9863C74.3221 20.0992 74.2582 20.2023 74.1764 20.2893C74.0946 20.3763 73.9965 20.4456 73.8879 20.4929C73.7794 20.5402 73.6627 20.5645 73.5447 20.5645C73.4268 20.5645 73.3101 20.5402 73.2015 20.4929C73.093 20.4456 72.9949 20.3763 72.9131 20.2893C72.8312 20.2023 72.7674 20.0992 72.7253 19.9863C72.6833 19.8734 72.6639 19.753 72.6683 19.6322V15.0127V13.7981C72.6832 13.1332 72.4397 12.4895 71.9914 12.0086C71.5431 11.5277 70.9267 11.2489 70.2778 11.2337C69.9564 11.2261 69.6368 11.2835 69.3372 11.4025C69.0375 11.5215 68.7636 11.6998 68.5312 11.9273C68.0619 12.3866 67.7898 13.0182 67.7749 13.6831C67.7749 13.721 67.7749 13.7589 67.7749 13.7981V19.6322C67.7794 19.753 67.76 19.8734 67.7179 19.9863C67.6759 20.0992 67.612 20.2023 67.5302 20.2893C67.4484 20.3763 67.3503 20.4456 67.2417 20.4929C67.1332 20.5402 67.0165 20.5645 66.8985 20.5645C66.7806 20.5645 66.6638 20.5402 66.5553 20.4929C66.4468 20.4456 66.3487 20.3763 66.2668 20.2893C66.185 20.2023 66.1212 20.0992 66.0791 19.9863C66.0371 19.8734 66.0177 19.753 66.0221 19.6322V10.4362C66.0195 10.2077 66.1022 9.98676 66.2532 9.81865C66.4043 9.65054 66.6124 9.54792 66.8348 9.53178C67.0573 9.51563 67.2774 9.58719 67.4501 9.73181C67.6228 9.87642 67.735 10.0832 67.7638 10.3098C68.6481 9.65573 69.7462 9.38032 70.8253 9.54194C71.9044 9.70357 72.8796 10.2895 73.5441 11.1755C74.0775 10.4614 74.8162 9.93674 75.6559 9.67543C76.4957 9.41411 77.3944 9.42933 78.2253 9.71893C79.0562 10.0085 79.7775 10.5579 80.2876 11.2897C80.7977 12.0215 81.0708 12.8988 81.0686 13.7981L81.0674 14.5628Z" fill="white"/>
<path d="M114.326 10.8292L108.416 23.9282C108.303 24.121 108.124 24.2644 107.915 24.3308C107.705 24.3972 107.478 24.382 107.279 24.2881C107.079 24.1941 106.921 24.0281 106.833 23.8218C106.746 23.6155 106.736 23.3833 106.805 23.1698L108.394 19.6449L104.414 10.833C104.353 10.7297 104.313 10.6151 104.295 10.4956C104.278 10.3762 104.283 10.2544 104.312 10.1373C104.341 10.0201 104.392 9.90994 104.462 9.81312C104.533 9.7163 104.621 9.63476 104.722 9.5732C104.824 9.51164 104.936 9.47129 105.053 9.45448C105.17 9.43767 105.288 9.44474 105.402 9.47527C105.516 9.5058 105.624 9.55919 105.717 9.63236C105.811 9.70552 105.89 9.79701 105.949 9.90153C105.98 9.95467 106.006 10.011 106.025 10.0696L109.372 17.4798L112.717 10.0696C112.757 9.94769 112.821 9.83566 112.905 9.74085C112.99 9.64603 113.093 9.57057 113.208 9.51937C113.323 9.46818 113.447 9.44241 113.573 9.44375C113.698 9.44509 113.822 9.4735 113.936 9.52714C114.05 9.58078 114.151 9.65843 114.234 9.75503C114.317 9.85163 114.379 9.965 114.416 10.0878C114.453 10.2105 114.464 10.3399 114.449 10.4674C114.434 10.595 114.393 10.7178 114.328 10.828L114.326 10.8292Z" fill="white"/>
</g>
<defs>
<clipPath id="clip0_494:6908">
<rect width="116" height="26" fill="white" transform="translate(0 0.00691223)"/>
</clipPath>
</defs>
</svg>
