<svg width="106" height="33" viewBox="0 0 106 33" fill="none" xmlns="http://www.w3.org/2000/svg">
<g clip-path="url(#clip0_167:8129)">
<path d="M44.7995 26.7751V17.7408H37.5616V25.7494C37.5616 26.3154 37.0996 26.7751 36.5308 26.7751H33.3867V6.25812C33.3867 5.69212 33.8487 5.2324 34.4176 5.2324H37.5616V14.0657H44.7995V6.25812C44.7995 5.69212 45.2615 5.2324 45.8304 5.2324H48.9731V25.7494C48.9731 26.3154 48.5111 26.7751 47.9423 26.7751H44.7995Z" fill="white"/>
<path d="M53.959 26.7751V6.25805C53.959 5.69205 54.421 5.23233 54.9898 5.23233H68.0435V7.91253C68.0435 8.47853 67.5815 8.93825 67.0127 8.93825H58.1326V14.0656H66.5712V16.7458C66.5712 17.3118 66.1092 17.7715 65.5404 17.7715H58.1326V23.0704H68.0435V25.7506C68.0435 26.3166 67.5815 26.7764 67.0127 26.7764H53.959V26.7751Z" fill="white"/>
<path d="M79.2775 26.825C76.9353 26.825 75.0125 25.9875 73.5119 24.4944C71.3498 22.3431 71.4103 19.6834 71.4103 16.0082C71.4103 12.333 71.3498 9.67329 73.5119 7.52196C75.0138 6.02755 76.9353 5.19135 79.2775 5.19135C83.2723 5.19135 86.3957 7.46305 87.146 11.9155H83.6673C83.2414 11.9155 82.8578 11.6543 82.7073 11.2573C82.1848 9.88458 81.1295 8.89727 79.3071 8.89727C78.1656 8.89727 77.2351 9.31601 76.6341 10.0024C75.8233 10.8988 75.5827 11.9143 75.5827 16.0082C75.5827 20.1021 75.8233 21.1176 76.6341 22.014C77.2351 22.7016 78.1656 23.1191 79.3071 23.1191C81.41 23.1191 82.4911 21.8052 82.9106 20.1008H85.8462C86.5308 20.1008 87.0379 20.7578 86.8384 21.4096C85.7368 24.9989 82.8334 26.825 79.2775 26.825Z" fill="white"/>
<path d="M103.695 24.4944C102.193 25.9888 100.362 26.825 97.9295 26.825C95.4972 26.825 93.6349 25.9875 92.133 24.4944C89.9709 22.3431 90.0314 19.6834 90.0314 16.0082C90.0314 12.333 89.9709 9.67329 92.133 7.52196C93.6349 6.02755 95.4972 5.19135 97.9295 5.19135C100.362 5.19135 102.195 6.02883 103.695 7.52196C105.857 9.67329 105.828 12.333 105.828 16.0082C105.828 19.6834 105.857 22.3431 103.695 24.4944ZM100.601 10.0318C100 9.34418 99.0698 8.89599 97.9282 8.89599C96.7867 8.89599 95.8253 9.34418 95.2256 10.0318C94.4148 10.9282 94.2038 11.9143 94.2038 16.0082C94.2038 20.1021 94.4135 21.0881 95.2256 21.9845C95.8266 22.6722 96.7867 23.1204 97.9282 23.1204C99.0698 23.1204 100 22.6722 100.601 21.9845C101.412 21.0881 101.653 20.1021 101.653 16.0082C101.653 11.9143 101.412 10.9282 100.601 10.0318Z" fill="white"/>
<path d="M6.64101 4.4525V7.81908C3.91393 8.83584 1.63729 10.772 0.189453 13.2473V3.2014H5.38622C6.0786 3.2014 6.64101 3.76101 6.64101 4.4525Z" fill="white"/>
<path d="M15.6085 8.71416V11.9399C15.6085 13.7186 14.1594 15.1605 12.3718 15.1605H11.3165C8.74253 15.1605 6.65378 17.2337 6.64864 19.7973V28.8124H1.44544C0.750479 28.8124 0.189362 28.2528 0.189362 27.5626V19.9267C0.184215 19.7935 0.181641 19.6603 0.181641 19.5259C0.181641 13.5508 5.05023 8.7052 11.0565 8.7052C11.1916 8.7052 11.3255 8.70776 11.4606 8.71288H15.6085V8.71416Z" fill="white"/>
<path d="M17.2852 27.5613V24.1948C20.0135 23.1767 22.2902 21.2405 23.7367 18.7652V28.8124H18.5399C17.8488 28.8124 17.2852 28.2528 17.2852 27.5613Z" fill="white"/>
<path d="M8.31836 23.2997V20.0739C8.31836 18.2953 9.76748 16.8534 11.5551 16.8534H12.6104C15.1843 16.8534 17.2731 14.7801 17.2782 12.2165V3.20138H22.4814C23.1764 3.20138 23.7375 3.76098 23.7375 4.4512V12.0871C23.7439 12.2203 23.7452 12.3535 23.7452 12.4892C23.7452 18.4643 18.8766 23.3099 12.8704 23.3099C12.7352 23.3099 12.6014 23.3073 12.4662 23.3022H8.31836V23.2997Z" fill="white"/>
</g>
<defs>
<clipPath id="clip0_167:8129">
<rect width="105.646" height="32.0138" fill="white" transform="translate(0.181641)"/>
</clipPath>
</defs>
</svg>
