<svg width="227" height="26" viewBox="0 0 227 26" fill="none" xmlns="http://www.w3.org/2000/svg">
<path d="M104.868 12.0483C102.58 11.3679 101.961 10.9556 101.961 10.2134C101.961 9.61556 102.477 9.10015 103.528 9.10015C104.765 9.10015 105.631 9.71863 106.167 10.9762L109.795 8.85276C108.62 6.31697 106.311 4.99754 103.507 4.99754C100.229 4.99754 97.6317 7.07977 97.6317 10.234C97.6317 13.3883 100.003 14.749 102.662 15.5324C104.806 16.1303 105.919 16.4189 105.919 17.3878C105.919 17.9651 105.466 18.5217 103.94 18.5217C102.25 18.5217 101.219 17.7177 100.6 16.2746L96.9102 18.4186C97.7966 20.9132 100.147 22.6243 103.817 22.6243C107.631 22.6243 110.249 20.6864 110.249 17.326C110.249 13.8006 107.466 12.8317 104.868 12.0483Z" fill="white"/>
<path d="M123.548 10.7494C122.269 10.7494 121.115 11.203 120.208 11.9658C119.301 11.2236 118.146 10.7701 116.889 10.7701C114.023 10.7701 111.693 13.0997 111.693 15.9653V22.2739H115.404V20.9544V15.7592C115.404 15.1201 115.817 14.5222 116.456 14.3367C117.239 14.1099 118.064 14.5634 118.291 15.3468C118.332 15.4912 118.332 15.6149 118.332 15.7592V15.9447V15.9653V22.2739V22.2945H122.043V15.9859V15.9653V15.7386C122.043 15.0995 122.455 14.5016 123.094 14.316C123.877 14.0893 124.702 14.5428 124.929 15.3262C124.97 15.4705 124.97 15.5942 124.97 15.7386V20.9338V22.2533H128.681V15.9447C128.743 13.0791 126.413 10.7494 123.548 10.7494Z" fill="white"/>
<path d="M213.947 11.0999H210.236V22.2945H213.947V11.0999Z" fill="white"/>
<path d="M135.958 10.7494C132.783 10.7494 130.186 13.3265 130.186 16.522C130.186 19.7175 132.763 22.2945 135.958 22.2945C136.68 22.2945 137.36 22.1502 137.999 21.9234V22.3151H141.71V16.5838C141.71 16.5632 141.71 16.5632 141.71 16.5426C141.731 13.3265 139.154 10.7494 135.958 10.7494ZM135.958 18.563C134.824 18.563 133.917 17.6558 133.917 16.522C133.917 15.3881 134.824 14.481 135.958 14.481C137.092 14.481 137.999 15.3881 137.999 16.522C137.999 17.6352 137.092 18.563 135.958 18.563Z" fill="white"/>
<path d="M201.724 10.7494C198.549 10.7494 195.951 13.3265 195.951 16.522C195.951 19.7175 198.528 22.2945 201.724 22.2945C202.445 22.2945 203.126 22.1502 203.765 21.9234V22.3151H207.476V16.5838C207.476 16.5632 207.476 16.5632 207.476 16.5426C207.496 13.3265 204.899 10.7494 201.724 10.7494ZM201.724 18.563C200.59 18.563 199.683 17.6558 199.683 16.522C199.683 15.3881 200.59 14.481 201.724 14.481C202.858 14.481 203.765 15.3881 203.765 16.522C203.765 17.6352 202.858 18.563 201.724 18.563Z" fill="white"/>
<path d="M143.545 16.522C143.545 16.5426 143.545 16.5426 143.545 16.5632V22.2945H147.256V16.5632C147.256 16.5426 147.256 16.5426 147.256 16.522C147.256 15.3881 148.163 14.481 149.297 14.481H151.029V10.7701H149.297C146.122 10.7494 143.545 13.3265 143.545 16.522Z" fill="white"/>
<path d="M156.531 8.06935H152.82V16.4807C152.82 16.5013 152.82 16.5013 152.82 16.522C152.82 19.6968 155.397 22.2945 158.593 22.2945H160.325V18.5836H158.593C157.459 18.5836 156.552 17.6765 156.552 16.5426C156.552 16.522 156.552 16.522 156.552 16.5014V14.7284H160.325V11.0175H156.531V8.06935Z" fill="white"/>
<path d="M174.097 18.9134C171.273 18.9134 169.005 16.625 169.005 13.8213C169.005 10.9968 171.293 8.72907 174.097 8.72907C175.891 8.72907 177.478 9.65679 178.385 11.0587L181.581 9.18263C180.035 6.68807 177.251 5.01816 174.097 5.01816C169.232 5.01816 165.273 8.95584 165.273 13.8419C165.273 18.7279 169.211 22.6656 174.097 22.6656C177.272 22.6656 180.055 20.9751 181.601 18.4599L178.406 16.5838C177.499 17.9651 175.911 18.9134 174.097 18.9134Z" fill="white"/>
<path d="M189.042 10.234C188.424 10.234 187.826 10.3371 187.269 10.5227V6.585H183.559V22.2533H187.269V20.8514V15.6973C187.269 14.9551 187.744 14.2542 188.486 14.0274C189.414 13.7388 190.403 14.2542 190.692 15.1819C190.754 15.3468 190.754 15.5324 190.754 15.6973V20.872V22.2739H194.465V15.6973V15.553C194.423 12.6049 192.011 10.234 189.042 10.234Z" fill="white"/>
<path d="M212.113 5.88404C210.938 5.88404 209.969 6.853 209.969 8.02812C209.969 9.22386 210.938 10.1722 212.113 10.1722C213.309 10.1722 214.257 9.20324 214.257 8.02812C214.257 6.853 213.288 5.88404 212.113 5.88404Z" fill="white"/>
<path d="M221.556 10.7494C218.526 10.7494 216.072 13.2028 216.072 16.2333V22.2945H219.783V21.408V16.2333C219.783 15.2644 220.567 14.481 221.536 14.481C222.504 14.481 223.288 15.2644 223.288 16.2333V21.408V22.2739H226.999V16.2127C227.04 13.2028 224.587 10.7494 221.556 10.7494Z" fill="white"/>
<path d="M58.3567 11.6978H52.5636V5.03879H48.4609V22.4388H52.5636V15.8004H58.3567V22.4388H62.4799V5.03879H58.3567V11.6978Z" fill="white"/>
<path d="M70.5004 8.894C66.7689 8.894 63.7383 11.9246 63.7383 15.6561C63.7383 19.3876 66.7689 22.4182 70.5004 22.4182C74.2319 22.4182 77.2625 19.3876 77.2625 15.6561C77.2625 11.9246 74.2319 8.894 70.5004 8.894ZM70.5004 18.6661C68.8511 18.6661 67.511 17.326 67.511 15.6767C67.511 14.0274 68.8511 12.6874 70.5004 12.6874C72.1497 12.6874 73.4897 14.0274 73.4897 15.6767C73.4691 17.326 72.1497 18.6661 70.5004 18.6661Z" fill="white"/>
<path d="M85.1586 8.894C81.4271 8.894 78.3965 11.9246 78.3965 15.6561C78.3965 19.3876 81.4271 22.4182 85.1586 22.4182C88.8901 22.4182 91.9207 19.3876 91.9207 15.6561C91.9413 11.9246 88.9107 8.894 85.1586 8.894ZM85.1586 18.6661C83.5093 18.6661 82.1692 17.326 82.1692 15.6767C82.1692 14.0274 83.5093 12.6874 85.1586 12.6874C86.8079 12.6874 88.1479 14.0274 88.1479 15.6767C88.1479 17.326 86.8079 18.6661 85.1586 18.6661Z" fill="white"/>
<path d="M30.1963 0.73001C25.5989 0.73001 21.5994 3.26579 19.4966 6.99731C19.4553 7.07978 19.4141 7.18286 19.3523 7.28594C19.2079 7.57456 19.0636 7.8838 18.9193 8.17243C18.6513 8.89399 18.4451 9.78049 18.2802 10.6464C18.1153 11.5122 18.0122 12.3575 17.9297 12.9554V12.976C17.9297 12.9966 17.9297 13.0172 17.9297 13.0585C17.8885 16.0066 15.4764 18.398 12.5283 18.398C9.53898 18.398 7.12689 15.9859 7.12689 12.9966C7.12689 10.0073 9.55959 7.59518 12.5283 7.59518C14.0745 7.59518 15.4558 8.23428 16.4454 9.26509C17.002 7.18286 18.0328 5.22433 19.5584 3.51319C19.6615 3.41011 19.7646 3.28641 19.8677 3.18333C17.8267 1.65773 15.2703 0.750621 12.5283 0.750621C5.76623 0.750621 0.261719 6.23451 0.261719 13.0172C0.261719 19.7999 5.74561 25.2632 12.5283 25.2838C18.4658 25.2838 23.4136 21.0987 24.5475 15.4293C24.63 15.0376 24.6918 14.6253 24.7331 14.213C24.7331 14.213 24.7331 14.1923 24.7331 14.1717C24.7537 13.9862 24.7743 13.78 24.7743 13.5945C24.7949 13.4295 24.8155 13.2234 24.8361 13.0172C24.9186 12.3575 25.0629 11.5535 25.2897 10.9556C25.3722 10.7701 25.4752 10.5845 25.5783 10.399C25.5989 10.3577 25.6196 10.3371 25.6402 10.3165C26.6091 8.72907 28.2997 7.6158 30.217 7.6158C33.2063 7.6158 35.6184 10.0279 35.6184 13.0172C35.6184 16.0066 33.2063 18.4186 30.217 18.4186C28.6707 18.4186 27.2895 17.7795 26.2999 16.7487C25.6814 19.0577 24.4857 21.14 22.8776 22.8305C24.9186 24.3561 27.475 25.2632 30.217 25.2632C36.979 25.2632 42.4836 19.7793 42.4836 12.9966C42.4836 6.2139 36.9791 0.73001 30.1963 0.73001Z" fill="white"/>
</svg>
