<svg width="107" height="32" viewBox="0 0 107 32" fill="none" xmlns="http://www.w3.org/2000/svg">
<path d="M45.0149 10.0657C45.2789 10.0657 45.4109 10.1939 45.4109 10.4503V21.9645C45.4109 22.2295 45.2789 22.3492 45.0149 22.3492H43.0875C42.8146 22.3492 42.6738 22.221 42.6738 21.9645V10.4503C42.6738 10.1854 42.8146 10.0657 43.0875 10.0657H45.0149Z" fill="white"/>
<path d="M56.8613 12.7156C57.6622 12.7156 58.331 12.7754 58.8767 12.9122C59.4224 13.049 59.8536 13.2541 60.1881 13.5447C60.5225 13.8354 60.7425 14.2029 60.8922 14.656C61.0418 15.109 61.1034 15.6476 61.1034 16.2801V18.8018C61.1034 19.4343 61.033 19.9729 60.8922 20.4259C60.7425 20.8789 60.5137 21.2465 60.1881 21.5371C59.8624 21.8278 59.4224 22.0329 58.8767 22.1611C58.331 22.2894 57.6622 22.3492 56.8613 22.3492H51.8183C51.0086 22.3492 50.3309 22.2894 49.794 22.1611C49.2572 22.0329 48.8171 21.8278 48.4915 21.5371C48.1658 21.2465 47.937 20.8789 47.7874 20.4259C47.6466 19.9729 47.5762 19.4343 47.5762 18.8018V16.2801C47.5762 15.6476 47.6466 15.109 47.7874 14.656C47.937 14.2029 48.1658 13.8354 48.4915 13.5447C48.8171 13.2541 49.2484 13.049 49.794 12.9122C50.3397 12.7754 51.0086 12.7156 51.8183 12.7156H56.8613ZM50.1197 18.3658C50.1197 18.7419 50.1461 19.0497 50.2077 19.2976C50.2693 19.5454 50.3749 19.7421 50.5157 19.8874C50.6653 20.0327 50.8678 20.1438 51.1142 20.2036C51.3606 20.2635 51.6863 20.3062 52.0559 20.3062H56.6148C57.0109 20.3062 57.3277 20.2806 57.5742 20.2036C57.8206 20.1438 58.023 20.0327 58.1726 19.8874C58.3222 19.7421 58.4279 19.5454 58.4807 19.2976C58.5423 19.0582 58.5687 18.7419 58.5687 18.3658V16.699C58.5687 16.3399 58.5423 16.0322 58.4807 15.7929C58.4191 15.5535 58.3134 15.3484 58.1726 15.1945C58.023 15.0406 57.8206 14.9295 57.5742 14.8782C57.3277 14.8269 57.0021 14.7842 56.6148 14.7842H52.0647C51.6775 14.7842 51.3694 14.8098 51.123 14.8782C50.8766 14.9381 50.6741 15.0406 50.5245 15.1945C50.3749 15.3484 50.2693 15.545 50.2165 15.7929C50.1549 16.0322 50.1285 16.3399 50.1285 16.699V18.3658H50.1197Z" fill="white"/>
<path d="M76.8477 10.0657C77.1205 10.0657 77.2613 10.1939 77.2613 10.4503V12.1685C77.2613 12.442 77.1205 12.5703 76.8477 12.5703H71.2414V21.956C71.2414 22.221 71.1094 22.3406 70.8454 22.3406H68.9003C68.6363 22.3406 68.5043 22.2124 68.5043 21.956V12.5703H62.898C62.6252 12.5703 62.4844 12.4335 62.4844 12.1685V10.4503C62.4844 10.1854 62.6252 10.0657 62.898 10.0657H76.8389H76.8477Z" fill="white"/>
<path d="M87.5246 12.7156C88.1319 12.7156 88.6335 12.7583 89.0384 12.8609C89.4432 12.9635 89.7513 13.1259 89.9801 13.3567C90.2089 13.5789 90.3761 13.8781 90.473 14.2457C90.561 14.6132 90.6226 15.0663 90.6226 15.5877V17.2546C90.6226 17.6307 90.5434 17.8871 90.3761 18.041C90.2089 18.1863 89.9537 18.2547 89.6105 18.2547H80.5894V18.6821C80.5894 19.2292 80.7302 19.6309 80.9942 19.8703C81.2583 20.1096 81.7863 20.2378 82.552 20.2378H89.9889C90.2001 20.2378 90.3057 20.349 90.3057 20.5541V22.0329C90.3057 22.2381 90.2001 22.3492 89.9889 22.3492H82.2968C81.4871 22.3492 80.8094 22.2894 80.2725 22.1611C79.7357 22.0329 79.3044 21.8278 78.97 21.5371C78.6444 21.2465 78.4155 20.8789 78.2659 20.4259C78.1163 19.9729 78.0547 19.4343 78.0547 18.8018V16.2801C78.0547 15.6476 78.1251 15.109 78.2659 14.656C78.4155 14.2029 78.6444 13.8354 78.97 13.5447C79.2956 13.2541 79.7269 13.049 80.2725 12.9122C80.8094 12.7754 81.4871 12.7156 82.2968 12.7156H87.5246ZM80.5806 16.699H87.8062C88.0087 16.699 88.1055 16.5964 88.1055 16.3998V15.6646C88.1055 15.3056 88.0351 15.0406 87.8767 14.8868C87.7182 14.7329 87.4366 14.6645 87.0229 14.6645H82.5432C81.7775 14.6645 81.2495 14.7842 80.9854 15.0235C80.7214 15.2629 80.5806 15.6646 80.5806 16.2203V16.699Z" fill="white"/>
<path d="M106.463 10.0657C106.63 10.0657 106.718 10.117 106.736 10.2367C106.753 10.3478 106.718 10.4418 106.639 10.5273L101.165 15.9895L106.894 21.8961C106.973 21.9731 107.017 22.0757 106.991 22.1868C106.973 22.2979 106.885 22.3577 106.718 22.3577H104.272C104.122 22.3577 104.016 22.3407 103.928 22.3065C103.849 22.2723 103.761 22.2039 103.699 22.1184L99.2902 17.5709L94.8632 22.1099C94.784 22.2039 94.696 22.2723 94.6256 22.2979C94.5552 22.3321 94.432 22.3492 94.2736 22.3492H91.9589C91.8005 22.3492 91.7213 22.2979 91.7037 22.1782C91.6861 22.0671 91.7213 21.9731 91.8005 21.8876L97.6708 15.8869L92.3725 10.5187C92.3021 10.4418 92.2757 10.3392 92.2845 10.2281C92.2933 10.117 92.3813 10.0571 92.5486 10.0571H94.9953C95.1449 10.0571 95.2505 10.0742 95.3385 10.117C95.4177 10.1512 95.5057 10.2196 95.5673 10.2965L99.4574 14.3653L103.576 10.2965C103.647 10.2196 103.726 10.1512 103.805 10.117C103.884 10.0742 103.999 10.0571 104.148 10.0571H106.463V10.0657Z" fill="white"/>
<path d="M21.207 0V7.69541L28.1224 3.85291L21.207 0Z" fill="white"/>
<path opacity="0.9" d="M28.123 3.85291V11.5587L35.0491 7.69541L28.123 3.85291Z" fill="white"/>
<path opacity="0.8" d="M21.207 7.6954V15.4012L28.1224 11.5587L21.207 7.6954Z" fill="white"/>
<path opacity="0.8" d="M28.123 11.5587V19.2542L35.0491 15.4012L28.123 11.5587Z" fill="white"/>
<path opacity="0.8" d="M21.207 15.4012V23.107L28.1224 19.2541L21.207 15.4012Z" fill="white"/>
<path d="M28.123 19.2541V26.96L35.0491 23.1071L28.123 19.2541Z" fill="white"/>
<path opacity="0.4" d="M3.32422 7.44548V15.1409L10.2396 11.288L3.32422 7.44548Z" fill="white"/>
<path opacity="0.2" d="M12.0508 10.2988V18.0046L18.9554 14.1621L12.0508 10.2988Z" fill="white"/>
<path opacity="0.3" d="M6.92578 15.1722V22.878L13.8412 19.0251L6.92578 15.1722Z" fill="white"/>
<path opacity="0.9" d="M11.4824 20.9827V28.6886L18.3871 24.8357L11.4824 20.9827Z" fill="white"/>
<path opacity="0.7" d="M21.1523 24.3046V32L28.057 28.1471L21.1523 24.3046Z" fill="white"/>
<path opacity="0.9" d="M13.209 6.49788V14.2037L20.1136 10.3612L13.209 6.49788Z" fill="white"/>
<path opacity="0.8" d="M21.2084 0V7.69541L14.293 3.85291L21.2084 0Z" fill="white"/>
<path opacity="0.6" d="M13.2093 3.26976V10.9756L6.2832 7.11225L13.2093 3.26976Z" fill="white"/>
<path opacity="0.6" d="M20.1244 7.08102V14.7868L13.209 10.9339L20.1244 7.08102Z" fill="white"/>
<path opacity="0.95" d="M12.0189 10.2988V18.0046L5.10352 14.1621L12.0189 10.2988Z" fill="white"/>
<path opacity="0.6" d="M21.2074 15.4012V23.107L14.3027 19.2541L21.2074 15.4012Z" fill="white"/>
<path opacity="0.55" d="M6.9261 17.1923V24.8981L0 21.0452L6.9261 17.1923Z" fill="white"/>
<path d="M35.0491 7.6954V15.4012L28.123 11.5587L35.0491 7.6954Z" fill="white"/>
<path opacity="0.95" d="M28.1224 11.5587V19.2542L21.207 15.4012L28.1224 11.5587Z" fill="white"/>
<path opacity="0.9" d="M35.0491 15.4012V23.107L28.123 19.2541L35.0491 15.4012Z" fill="white"/>
<path opacity="0.7" d="M28.1224 19.2541V26.96L21.207 23.1071L28.1224 19.2541Z" fill="white"/>
<path opacity="0.4" d="M19.6732 22.4614V30.1673L12.7578 26.3248L19.6732 22.4614Z" fill="white"/>
<path d="M28.1224 3.85291V11.5587L21.207 7.69541L28.1224 3.85291Z" fill="white"/>
</svg>
