<svg width="1201" height="362" viewBox="0 0 1201 362" fill="none" xmlns="http://www.w3.org/2000/svg">
<g clip-path="url(#clip0_4827_83170)">
<path d="M857.601 60.8496H925.601L807.201 355.05H728.701L610.301 60.8496H678.301L767.701 284.15L857.601 60.8496Z" fill="white"/>
<path d="M61.9 0H0V355.1H61.9V0Z" fill="white"/>
<path d="M231.4 355.15L95.5996 177.55L231.4 0.0498047H309.1L175.2 177.55L309.1 355.15H231.4Z" fill="white"/>
<path d="M457.4 53.0498C389.6 53.0498 338.5 90.5498 334.8 146.25L334.4 152.75H395.2L396.2 147.95C401.8 121.75 423.2 107.35 456.3 107.35C492.3 107.35 512.9 125.45 512.9 157.05V175.25L436.7 179.55C368.1 183.55 326.6 217.15 326.6 269.35C326.6 324.35 367.9 361.35 428.6 361.35C464.8 361.35 491.2 351.45 512.7 329.45V356.45H574.4V152.45C574.3 92.0498 527.7 53.0498 457.4 53.0498ZM512.9 223.15V241.45C508.9 281.35 481.3 306.45 438.9 308.55C422.6 309.35 408.5 304.95 399.2 296.15C391.9 289.25 388.1 280.05 388.1 269.55C388.1 246.15 408.1 231.35 443 229.15L512.9 223.15Z" fill="white"/>
<path d="M1083.1 53.0498C1015.3 53.0498 964.201 90.5498 960.501 146.25L960.101 152.75H1020.9L1021.9 147.95C1027.5 121.75 1048.9 107.35 1082 107.35C1118 107.35 1138.6 125.45 1138.6 157.05V175.25L1062.4 179.55C993.801 183.55 952.301 217.15 952.301 269.35C952.301 324.35 993.601 361.35 1054.3 361.35C1090.5 361.35 1116.9 351.45 1138.4 329.45V356.45H1200.1V152.45C1200 92.0498 1153.4 53.0498 1083.1 53.0498ZM1138.6 223.15V241.45C1134.6 281.35 1107 306.45 1064.6 308.55C1048.3 309.35 1034.2 304.95 1024.9 296.15C1017.6 289.25 1013.8 280.05 1013.8 269.55C1013.8 246.15 1033.8 231.35 1068.7 229.15L1138.6 223.15Z" fill="white"/>
</g>
<defs>
<clipPath id="clip0_4827_83170">
<rect width="1200.1" height="361.35" fill="white"/>
</clipPath>
</defs>
</svg>
