<svg width="95" height="27" viewBox="0 0 95 27" fill="none" xmlns="http://www.w3.org/2000/svg">
<g clip-path="url(#clip0_345:6615)">
<path d="M29.291 11.1002L28.4853 9.8219L24.121 2.71524L23.9643 2.4769H22.3753L16.1758 13.0286L22.4648 23.5369L24.0763 23.5152L24.0986 23.4502L29.3134 14.8269H26.0905L23.3153 19.5936L19.3763 13.0069L23.2705 6.39857L26.0458 11.1002H29.291Z" fill="white"/>
<path d="M5.03011 9.38857L7.93963 4.60024L6.97725 3.06191L6.28344 2.00024L1.29249 10.4936L1.1582 10.7319L1.94154 12.0752H14.4973L20.8087 1.58857L19.9358 0.136907L11.1625 0.158571H11.0282L9.6182 0.136907L10.3792 1.48024L11.1177 2.84524L16.8696 2.82357L12.9082 9.38857H5.03011Z" fill="white"/>
<path d="M11.2308 3.84191C11.007 3.84191 10.7832 3.88524 10.537 3.95024C10.2684 4.01524 10.0222 4.14524 9.77601 4.27524C9.10458 4.66524 8.63458 5.25024 8.54506 5.79191C8.5003 6.03024 8.56744 6.24691 8.70173 6.42024C8.72411 6.44191 8.74649 6.48524 8.79125 6.50691C8.81363 6.52858 8.83601 6.52858 8.85839 6.55024C8.88077 6.55024 8.88077 6.57191 8.90316 6.57191C8.94792 6.59358 8.9703 6.61524 9.01506 6.63691C9.4403 6.83191 10.0893 6.78858 10.7384 6.50691H10.7608C10.8279 6.48524 10.8727 6.44191 10.9398 6.42024C10.9846 6.39858 11.0517 6.35524 11.0965 6.33358C11.1636 6.29024 11.2084 6.26858 11.2755 6.22524C11.3203 6.18191 11.3874 6.16024 11.4322 6.11691L11.477 6.09524C11.5217 6.07358 11.5441 6.03024 11.5889 6.00858C11.6113 5.98691 11.6113 5.98691 11.6336 5.96524C11.656 5.94358 11.7008 5.90024 11.7232 5.87858C11.7455 5.85691 11.7679 5.83524 11.7903 5.81358C11.8127 5.79191 11.8574 5.74858 11.8798 5.72691C11.9022 5.70524 11.9022 5.70524 11.9246 5.68358C11.947 5.66191 11.9693 5.61858 11.9917 5.59691L12.0141 5.55358C12.0365 5.53191 12.0589 5.48858 12.0813 5.46691L12.1036 5.42358C12.126 5.38024 12.1708 5.33691 12.1932 5.27191C12.2155 5.22858 12.2379 5.18524 12.2603 5.14191L12.2827 5.12024C12.2827 5.09858 12.3051 5.07691 12.3051 5.07691C12.3051 5.05524 12.3051 5.05524 12.3274 5.03358C12.3274 5.01191 12.3498 4.96858 12.3498 4.94691C12.3498 4.92524 12.3722 4.90358 12.3722 4.88191C12.3722 4.86024 12.3722 4.86024 12.3722 4.83858C12.3722 4.81691 12.3722 4.77358 12.3722 4.75191V4.70858C12.3722 4.66524 12.3722 4.64358 12.3722 4.60024C12.3722 4.57858 12.3722 4.57858 12.3722 4.55691C12.3722 4.53524 12.3722 4.53524 12.3722 4.51358V4.49191V4.47024C12.3722 4.44858 12.3498 4.40524 12.3498 4.38358C12.3274 4.34024 12.3274 4.31858 12.3051 4.27524C12.0365 3.97191 11.6784 3.84191 11.2308 3.84191Z" fill="white"/>
<path d="M12.6848 5.25024C12.6848 5.2719 12.6624 5.31524 12.6624 5.3369C12.6624 5.35857 12.6624 5.35857 12.64 5.38024C12.6176 5.42357 12.5953 5.48857 12.5729 5.5319C12.3715 5.94357 11.991 6.3119 11.5434 6.61524C11.4762 6.65857 11.4315 6.7019 11.3643 6.72357C11.2972 6.7669 11.2524 6.78857 11.1853 6.8319H11.1629C11.1405 6.85357 11.1181 6.85357 11.0957 6.85357C11.051 6.87524 11.0286 6.8969 10.9838 6.8969H10.9615C10.9391 6.8969 10.9167 6.91857 10.9167 6.91857C10.8719 6.94024 10.8272 6.9619 10.8048 6.9619L10.76 6.98357C10.76 6.98357 10.76 6.98357 10.7376 6.98357C10.7153 6.98357 10.6929 7.00524 10.6929 7.00524C10.6481 7.0269 10.6257 7.0269 10.581 7.04857L10.5362 7.07024H10.5138C10.4691 7.0919 10.4467 7.0919 10.4019 7.0919C10.3795 7.0919 10.3572 7.11357 10.3348 7.11357C10.29 7.11357 10.2676 7.13524 10.2453 7.13524C10.2229 7.13524 10.2005 7.13524 10.1781 7.1569H10.1557C10.1334 7.1569 10.111 7.1569 10.0886 7.1569C10.0662 7.1569 10.0438 7.1569 10.0438 7.1569C9.97669 7.1569 9.90955 7.17857 9.84241 7.17857H9.82003C9.75288 7.17857 9.70812 7.17857 9.64098 7.17857C9.6186 7.17857 9.6186 7.17857 9.59622 7.17857H9.57383C9.52907 7.17857 9.48431 7.17857 9.43955 7.1569C9.41717 7.1569 9.39479 7.1569 9.37241 7.1569C9.32764 7.1569 9.28288 7.13524 9.2605 7.13524C9.23812 7.13524 9.21574 7.13524 9.19336 7.11357L10.29 8.8469L12.64 8.82524L13.8486 6.74524L12.7519 5.0119C12.7519 5.03357 12.7519 5.05524 12.7296 5.0769C12.7296 5.09857 12.7296 5.09857 12.7296 5.09857C12.7072 5.18524 12.6848 5.2069 12.6848 5.25024C12.6848 5.25024 12.6848 5.22857 12.6848 5.25024Z" fill="white"/>
<path d="M25.1722 11.5336C25.2841 11.7069 25.3736 11.9236 25.4407 12.1619C25.5079 12.4219 25.5526 12.6819 25.5526 12.9636C25.5526 13.7219 25.2841 14.4152 24.8588 14.7836C24.6574 14.9352 24.4336 15.0219 24.2322 14.9786C24.1874 14.9786 24.1426 14.9569 24.0979 14.9569C24.0755 14.9569 24.0531 14.9352 24.0307 14.9352C24.0084 14.9352 23.986 14.9136 23.986 14.9136C23.9412 14.8919 23.9188 14.8702 23.8741 14.8486C23.4712 14.5886 23.1803 14.0252 23.0907 13.3536V13.3319C23.0907 13.2669 23.0684 13.2019 23.0684 13.1369C23.0684 13.0719 23.0684 13.0069 23.0684 12.9636C23.0684 12.8986 23.0684 12.8336 23.0684 12.7686C23.0684 12.7036 23.0684 12.6386 23.0907 12.5952V12.5519C23.0907 12.5086 23.1131 12.4652 23.1131 12.4219C23.1131 12.4002 23.1131 12.3786 23.1131 12.3786C23.1131 12.3352 23.1355 12.2919 23.1355 12.2702C23.1355 12.2486 23.1579 12.2052 23.1579 12.1836C23.1579 12.1402 23.1803 12.0969 23.2026 12.0752C23.2026 12.0536 23.2026 12.0319 23.225 12.0319C23.2474 11.9886 23.2474 11.9452 23.2698 11.9236L23.2922 11.8802C23.3146 11.8369 23.3145 11.8152 23.3369 11.7719C23.3369 11.7719 23.3369 11.7719 23.3369 11.7502L23.3593 11.7069C23.3817 11.6636 23.4041 11.6202 23.4488 11.5552C23.4712 11.5119 23.516 11.4686 23.5384 11.4252L23.5607 11.4036C23.5831 11.3819 23.5831 11.3819 23.5831 11.3602C23.5831 11.3386 23.6055 11.3386 23.6055 11.3386C23.6279 11.3169 23.6503 11.2952 23.6726 11.2736C23.695 11.2519 23.7174 11.2302 23.7174 11.2302C23.7398 11.2086 23.7398 11.2086 23.7622 11.2086C23.7846 11.1869 23.8069 11.1652 23.8293 11.1652L23.8517 11.1436C23.8741 11.1219 23.9188 11.1002 23.9412 11.1002C23.9636 11.1002 23.9636 11.1002 23.9636 11.0786C23.986 11.0786 23.986 11.0569 24.0084 11.0569H24.0307H24.0531C24.0755 11.0569 24.1203 11.0352 24.1426 11.0352C24.1874 11.0352 24.2098 11.0352 24.2546 11.0352C24.635 10.9269 24.9484 11.1652 25.1722 11.5336Z" fill="white"/>
<path d="M23.1809 11.0569C23.1586 11.0786 23.1362 11.1002 23.1138 11.1436L23.0914 11.1652C23.0467 11.2086 23.0243 11.2519 23.0019 11.2952C22.7557 11.6852 22.599 12.1836 22.5767 12.7036C22.5767 12.7686 22.5767 12.8552 22.5767 12.9202C22.5767 12.9852 22.5767 13.0502 22.5767 13.1152V13.1369C22.5767 13.1586 22.5767 13.1802 22.5767 13.2019C22.5767 13.2452 22.5767 13.2669 22.5767 13.3102V13.3319C22.5767 13.3536 22.5767 13.3752 22.5767 13.3752C22.5767 13.4186 22.599 13.4619 22.599 13.5052V13.5486C22.599 13.5486 22.599 13.5486 22.599 13.5702C22.599 13.5919 22.599 13.6136 22.6214 13.6352C22.6214 13.6786 22.6438 13.7002 22.6438 13.7436L22.6662 13.7869V13.8086C22.6662 13.8519 22.6886 13.8736 22.6886 13.9169C22.6886 13.9386 22.7109 13.9602 22.7109 13.9819C22.7333 14.0252 22.7333 14.0469 22.7333 14.0686C22.7333 14.0902 22.7557 14.1119 22.7557 14.1336V14.1552C22.7557 14.1769 22.7781 14.1986 22.7781 14.2202C22.7781 14.2419 22.8005 14.2636 22.8005 14.2636C22.8228 14.3286 22.8676 14.3719 22.89 14.4369L22.9124 14.4586C22.9348 14.5019 22.9795 14.5669 23.0019 14.5886C23.0019 14.6102 23.0243 14.6102 23.0243 14.6319V14.6536C23.0467 14.6969 23.069 14.7186 23.0914 14.7402C23.1138 14.7619 23.1138 14.7619 23.1362 14.7836C23.1809 14.8269 23.2033 14.8486 23.2257 14.8702C23.2481 14.8919 23.2481 14.8919 23.2705 14.9136H21.189L19.9805 12.9636L21.189 10.8836H23.2705C23.2481 10.9052 23.2481 10.9052 23.2257 10.9269L23.2033 10.9486C23.2257 11.0136 23.2033 11.0352 23.1809 11.0569Z" fill="white"/>
<path d="M11.2308 22.1719C11.007 22.1719 10.7832 22.1286 10.537 22.0636C10.2684 21.9986 10.0222 21.8686 9.77601 21.7386C9.10458 21.3486 8.63458 20.7636 8.54506 20.2219C8.5003 19.9836 8.56744 19.7669 8.70173 19.5936C8.72411 19.5719 8.74649 19.5286 8.79125 19.5069C8.81363 19.4852 8.83601 19.4852 8.85839 19.4636C8.88077 19.4636 8.88077 19.4419 8.90316 19.4419C8.94792 19.4202 8.9703 19.3986 9.01506 19.3769C9.4403 19.1819 10.0893 19.2252 10.7384 19.5069H10.7608C10.8279 19.5286 10.8727 19.5719 10.9398 19.5936C10.9846 19.6152 11.0517 19.6586 11.0965 19.6802C11.1636 19.7236 11.2084 19.7452 11.2755 19.7886C11.3203 19.8319 11.3874 19.8536 11.4322 19.8969L11.477 19.9186C11.5217 19.9402 11.5441 19.9836 11.5889 20.0052C11.6113 20.0269 11.6113 20.0269 11.6336 20.0486C11.656 20.0702 11.7008 20.1136 11.7232 20.1352C11.7455 20.1569 11.7679 20.1786 11.7903 20.2002C11.8127 20.2219 11.8574 20.2652 11.8798 20.2869C11.9022 20.3086 11.9022 20.3086 11.9246 20.3302C11.947 20.3519 11.9693 20.3952 11.9917 20.4169L12.0141 20.4602C12.0365 20.4819 12.0589 20.5252 12.0813 20.5469L12.1036 20.5902C12.126 20.6336 12.1708 20.6769 12.1932 20.7419C12.2155 20.7852 12.2379 20.8286 12.2603 20.8719L12.2827 20.8936C12.2827 20.9152 12.3051 20.9369 12.3051 20.9369C12.3051 20.9586 12.3051 20.9586 12.3274 20.9802C12.3274 21.0019 12.3498 21.0452 12.3498 21.0669C12.3498 21.0886 12.3722 21.1102 12.3722 21.1319C12.3722 21.1536 12.3722 21.1536 12.3722 21.1752C12.3722 21.1969 12.3722 21.2402 12.3722 21.2619V21.3052C12.3722 21.3486 12.3722 21.3702 12.3722 21.4136C12.3722 21.4352 12.3722 21.4352 12.3722 21.4569C12.3722 21.4786 12.3722 21.4786 12.3722 21.5002V21.5219V21.5436C12.3722 21.5652 12.3498 21.6086 12.3498 21.6302C12.3274 21.6736 12.3274 21.6952 12.3051 21.7386C12.0365 22.0202 11.6784 22.1719 11.2308 22.1719Z" fill="white"/>
<path d="M12.6848 20.7419C12.6848 20.7202 12.6624 20.6769 12.6624 20.6552C12.6624 20.6336 12.6624 20.6336 12.64 20.6119C12.6176 20.5686 12.5953 20.5036 12.5729 20.4602C12.3715 20.0486 11.991 19.6802 11.5434 19.3769C11.4762 19.3336 11.4315 19.2902 11.3643 19.2686C11.2972 19.2252 11.2524 19.2036 11.1853 19.1602H11.1629C11.1405 19.1386 11.1181 19.1386 11.0957 19.1169C11.051 19.0952 11.0286 19.0736 10.9838 19.0736H10.9615C10.9391 19.0736 10.9167 19.0519 10.9167 19.0519C10.8719 19.0302 10.8272 19.0086 10.8048 19.0086L10.76 18.9869C10.76 18.9869 10.76 18.9869 10.7376 18.9869C10.7153 18.9869 10.6929 18.9652 10.6929 18.9652C10.6481 18.9436 10.6257 18.9436 10.581 18.9219L10.5362 18.9002H10.5138C10.4691 18.9002 10.4467 18.8786 10.4019 18.8786C10.3795 18.8786 10.3572 18.8569 10.3348 18.8569C10.29 18.8569 10.2676 18.8352 10.2453 18.8352C10.2229 18.8352 10.2005 18.8352 10.1781 18.8136H10.1557C10.1334 18.8136 10.111 18.8136 10.0886 18.8136C10.0662 18.8136 10.0438 18.8136 10.0438 18.8136C9.97669 18.8136 9.90955 18.7919 9.84241 18.7919H9.82003C9.75288 18.7919 9.70812 18.7919 9.64098 18.7919C9.6186 18.7919 9.6186 18.7919 9.59622 18.7919H9.57383C9.52907 18.7919 9.48431 18.7919 9.43955 18.8136C9.41717 18.8136 9.39479 18.8136 9.37241 18.8136C9.32764 18.8136 9.28288 18.8352 9.2605 18.8352C9.23812 18.8352 9.21574 18.8352 9.19336 18.8569L10.29 17.1236L12.64 17.1452L13.8486 19.2252L12.7519 20.9586C12.7519 20.9369 12.7519 20.9152 12.7296 20.8936C12.7296 20.8719 12.7296 20.8719 12.7296 20.8719C12.7072 20.8069 12.6848 20.7852 12.6848 20.7419C12.6848 20.7636 12.6848 20.7636 12.6848 20.7419Z" fill="white"/>
<path d="M16.8696 23.1902L11.1177 23.1686L10.2449 24.7719L9.6182 25.8769L11.1625 25.8552L19.9358 25.8769L20.8087 24.4036L14.4973 13.9169H1.94154L1.1582 15.2602L1.31487 15.4986H1.29249L6.28344 24.0136L7.93963 21.4136L5.03011 16.6036H12.8858L16.8696 23.1902Z" fill="white"/>
<path d="M37.5273 21.4569C37.0573 21.4569 36.632 21.2836 36.3187 20.9802C35.8711 20.5469 35.8711 20.0486 35.8711 19.2036C35.8711 18.3586 35.8711 17.8602 36.3187 17.4269C36.632 17.1236 37.0349 16.9502 37.5273 16.9502C38.3554 16.9502 39.0044 17.4269 39.1611 18.3152H38.4673C38.3554 17.8602 38.042 17.5569 37.5497 17.5569C37.2811 17.5569 37.0349 17.6652 36.8782 17.8169C36.6544 18.0552 36.6097 18.3152 36.6097 19.2036C36.6097 20.0919 36.6544 20.3519 36.8782 20.5902C37.0349 20.7636 37.2811 20.8502 37.5497 20.8502C38.0644 20.8502 38.3778 20.5469 38.4897 20.0919H39.1835C39.0044 20.9586 38.3554 21.4569 37.5273 21.4569Z" fill="white"/>
<path d="M42.8316 20.9802C42.5182 21.2836 42.1154 21.4569 41.623 21.4569C41.1306 21.4569 40.7277 21.2836 40.4144 20.9802C39.9668 20.5469 39.9668 20.0486 39.9668 19.2036C39.9668 18.3586 39.9668 17.8602 40.4144 17.4269C40.7277 17.1236 41.1306 16.9502 41.623 16.9502C42.1154 16.9502 42.5182 17.1236 42.8316 17.4269C43.2792 17.8602 43.2568 18.3586 43.2568 19.2036C43.2792 20.0486 43.2792 20.5469 42.8316 20.9802ZM42.3168 17.8169C42.1601 17.6436 41.9139 17.5352 41.6454 17.5352C41.3768 17.5352 41.1306 17.6436 40.9739 17.8169C40.7501 18.0552 40.7054 18.2936 40.7054 19.1819C40.7054 20.0702 40.7501 20.3086 40.9739 20.5469C41.1306 20.7202 41.3768 20.8286 41.6454 20.8286C41.9139 20.8286 42.1601 20.7202 42.3168 20.5469C42.5406 20.3086 42.5854 20.0702 42.5854 19.1819C42.5854 18.3152 42.5406 18.0552 42.3168 17.8169Z" fill="white"/>
<path d="M47.6874 21.4136V18.4669L46.6355 20.6119H46.1431L45.0688 18.4669V21.4136H44.375V16.9936H45.0688L46.4117 19.7452L47.7098 16.9936H48.4036V21.4136H47.6874Z" fill="white"/>
<path d="M52.993 21.4136V18.4669L51.9411 20.6119H51.4263L50.352 18.4669V21.4136H49.6582V16.9936H50.352L51.6949 19.7452L52.993 16.9936H53.6868V21.4136H52.993Z" fill="white"/>
<path d="M56.5069 21.4569C55.5669 21.4569 54.873 20.8502 54.873 19.9186V16.9936H55.5669V19.8969C55.5669 20.4819 55.9473 20.8502 56.5069 20.8502C57.0664 20.8502 57.4469 20.4819 57.4469 19.8969V16.9936H58.1407V19.9186C58.1407 20.8286 57.4245 21.4569 56.5069 21.4569Z" fill="white"/>
<path d="M62.1453 21.4136L60.0415 18.2936V21.4136H59.3477V16.9936H59.9743L62.0781 20.0919V16.9936H62.7719V21.4136H62.1453Z" fill="white"/>
<path d="M64.0488 21.4136V16.9936H64.7426V21.4136H64.0488Z" fill="white"/>
<path d="M67.5409 17.5786V21.3919H66.8471V17.5786H65.5938V16.9719H68.7942V17.5786H67.5409Z" fill="white"/>
<path d="M71.143 19.5936V21.4136H70.4492V19.5936L69.084 16.9936H69.8449L70.8073 18.9436L71.7697 16.9936H72.5306L71.143 19.5936Z" fill="white"/>
<path d="M76.3144 21.4569C75.8444 21.4569 75.4192 21.2836 75.1058 20.9802C74.6582 20.5469 74.6582 20.0486 74.6582 19.2036C74.6582 18.3586 74.6582 17.8602 75.1058 17.4269C75.4192 17.1236 75.822 16.9502 76.3144 16.9502C77.1425 16.9502 77.7915 17.4269 77.9482 18.3152H77.2544C77.1425 17.8602 76.8292 17.5569 76.3368 17.5569C76.0682 17.5569 75.822 17.6652 75.6653 17.8169C75.4415 18.0552 75.3968 18.3152 75.3968 19.2036C75.3968 20.0919 75.4415 20.3519 75.6653 20.5902C75.822 20.7636 76.0682 20.8502 76.3368 20.8502C76.8515 20.8502 77.1649 20.5469 77.2768 20.0919H77.9706C77.7915 20.9586 77.1425 21.4569 76.3144 21.4569Z" fill="white"/>
<path d="M81.4831 21.4136V19.4852H79.6255V21.4136H78.9316V16.9936H79.6255V18.8786H81.4831V16.9936H82.1769V21.4136H81.4831Z" fill="white"/>
<path d="M86.0717 21.4136L85.7584 20.5252H83.9679L83.6546 21.4136H82.916L84.5946 16.9936H85.1541L86.8327 21.4136H86.0717ZM84.8632 17.9902L84.147 19.9619H85.557L84.8632 17.9902Z" fill="white"/>
<path d="M87.5273 21.4136V16.9936H88.2212V21.4136H87.5273Z" fill="white"/>
<path d="M92.2937 21.4136L90.1899 18.2936V21.4136H89.4961V16.9936H90.1228L92.2266 20.0919V16.9936H92.9204V21.4136H92.2937Z" fill="white"/>
<path d="M75.8647 9.93023C75.8647 9.47523 75.8647 9.0419 75.8423 8.6519C75.8199 8.2619 75.7975 7.8719 75.7304 7.52523C75.6633 7.17857 75.5513 6.85357 75.4171 6.55023C75.2604 6.2469 75.059 5.96523 74.768 5.68357C74.3875 5.31523 73.9623 5.0119 73.4699 4.8169C72.9775 4.6219 72.4404 4.51357 71.8137 4.51357C71.1871 4.51357 70.6499 4.6219 70.1575 4.8169C69.6652 5.0119 69.2399 5.29357 68.8594 5.68357C68.5909 5.94357 68.3671 6.22523 68.2328 6.55023C68.0761 6.85357 67.9866 7.17857 67.9194 7.52523C67.8523 7.8719 67.8299 8.24023 67.8075 8.6519C67.8075 9.0419 67.7852 9.47523 67.7852 9.93023C67.7852 10.3852 67.7852 10.8186 67.8075 11.2086C67.8075 11.5986 67.8523 11.9886 67.9194 12.3352C67.9866 12.6819 68.0985 13.0069 68.2328 13.3102C68.3894 13.6136 68.5909 13.8952 68.8594 14.1769C69.2399 14.5452 69.6875 14.8486 70.1575 15.0436C70.6499 15.2386 71.2094 15.3469 71.8137 15.3469C72.4404 15.3469 72.9775 15.2386 73.4699 15.0436C73.9623 14.8486 74.3875 14.5669 74.768 14.1769C75.0366 13.9169 75.2604 13.6136 75.4171 13.3102C75.5737 13.0069 75.6856 12.6819 75.7304 12.3352C75.7975 11.9886 75.8423 11.6202 75.8423 11.2086C75.8647 10.7969 75.8647 10.3852 75.8647 9.93023ZM73.7161 9.93023C73.7161 10.4286 73.7161 10.8619 73.6937 11.1869C73.6713 11.5119 73.649 11.7936 73.6042 12.0102C73.5594 12.2269 73.5147 12.4002 73.4475 12.5302C73.3804 12.6602 73.2909 12.7902 73.179 12.8986C73.0223 13.0719 72.8209 13.2019 72.5971 13.3102C72.3733 13.4186 72.1047 13.4619 71.8137 13.4619C71.5228 13.4619 71.2542 13.3969 71.008 13.3102C70.7618 13.2019 70.5828 13.0719 70.4261 12.8986C70.3142 12.7902 70.2471 12.6602 70.1799 12.5302C70.1128 12.4002 70.0456 12.2269 70.0233 12.0102C69.9785 11.7936 69.9561 11.5119 69.9337 11.1869C69.9113 10.8402 69.9113 10.4286 69.9113 9.93023C69.9113 9.4319 69.9113 8.99857 69.9337 8.67357C69.9561 8.34857 69.9785 8.0669 70.0233 7.85023C70.068 7.63357 70.1128 7.46023 70.1799 7.33023C70.2471 7.20023 70.3366 7.07023 70.4261 6.9619C70.5828 6.78857 70.7842 6.65857 71.008 6.55023C71.2542 6.4419 71.5004 6.39857 71.8137 6.39857C72.1047 6.39857 72.3733 6.4419 72.5971 6.55023C72.8209 6.65857 73.0223 6.78857 73.179 6.9619C73.2909 7.07023 73.358 7.20023 73.4475 7.33023C73.5147 7.46023 73.5818 7.63357 73.6042 7.85023C73.649 8.0669 73.6713 8.34857 73.6937 8.67357C73.7161 8.99857 73.7161 9.41023 73.7161 9.93023Z" fill="white"/>
<path d="M92.9203 4.79523C92.9203 4.6869 92.8308 4.6219 92.7413 4.6219H90.9732C90.8613 4.6219 90.7942 4.70857 90.7942 4.79523V11.1219L86.497 4.66523C86.4746 4.6219 86.4523 4.6219 86.3851 4.6219H84.7513C84.6394 4.6219 84.5723 4.70857 84.5723 4.79523V15.0652C84.5723 15.1736 84.6618 15.2386 84.7513 15.2386H86.5194C86.6313 15.2386 86.6985 15.1519 86.6985 15.0652V8.7169L90.9956 15.1952C91.018 15.2386 91.0403 15.2386 91.1075 15.2386H92.7413C92.8532 15.2386 92.9203 15.1519 92.9203 15.0652V4.79523Z" fill="white"/>
<path d="M81.0813 4.79523C81.0813 4.6869 80.9917 4.6219 80.9022 4.6219H79.1341C79.0222 4.6219 78.9551 4.70857 78.9551 4.79523V15.0652C78.9551 15.1736 79.0446 15.2386 79.1341 15.2386H80.9022C81.0141 15.2386 81.0813 15.1519 81.0813 15.0652V4.79523Z" fill="white"/>
<path d="M59.9749 9.93024C59.9749 9.41024 59.9749 8.99857 59.9973 8.65191C60.0197 8.32691 60.042 8.04524 60.0868 7.82857C60.2435 6.91857 60.982 6.37691 61.8997 6.37691C62.504 6.37691 63.0411 6.59357 63.3992 7.09191C63.5559 7.30857 63.6678 7.54691 63.7349 7.85024C63.7349 7.87191 63.7573 7.89357 63.802 7.89357H65.8835C65.9059 7.89357 65.9282 7.87191 65.9282 7.85024C65.7044 6.59357 65.0106 5.48857 63.802 4.92524C63.2425 4.66524 62.6159 4.53524 61.8997 4.53524C60.7359 4.53524 59.7511 4.92524 58.9454 5.70524C58.4978 6.13857 58.1844 6.68024 58.0501 7.30857C57.9382 7.91524 57.8711 8.78191 57.8711 9.95191C57.8711 11.1219 57.9382 11.9886 58.0501 12.5952C58.1844 13.2019 58.4754 13.7436 58.9454 14.1986C59.7511 14.9786 60.7359 15.3686 61.8997 15.3686C62.6159 15.3686 63.2425 15.2386 63.802 14.9786C65.0106 14.4152 65.7044 13.3102 65.9282 12.0536C65.9282 12.0319 65.9282 12.0102 65.8835 12.0102H63.802C63.7573 12.0102 63.7573 12.0319 63.7349 12.0536C63.6678 12.3352 63.5335 12.5952 63.3992 12.8119C63.0411 13.3102 62.504 13.5269 61.8997 13.5269C60.982 13.5269 60.2659 12.9852 60.0868 12.0752C60.042 11.8586 60.0197 11.5769 59.9973 11.2519C59.9749 10.8619 59.9749 10.4286 59.9749 9.93024Z" fill="white"/>
<path d="M38.0422 4.79523C38.0422 4.6869 37.9527 4.6219 37.8632 4.6219H36.0951C35.9832 4.6219 35.916 4.70857 35.916 4.79523V15.0652C35.916 15.1736 36.0055 15.2386 36.0951 15.2386H37.8632C37.9751 15.2386 38.0422 15.1519 38.0422 15.0652V12.0536L39.4522 10.4069L42.3617 15.1952C42.3841 15.2386 42.4289 15.2602 42.4736 15.2602H44.6222C44.7117 15.2602 44.7341 15.1952 44.6893 15.1086L40.8846 8.8469L44.3536 4.77357C44.4208 4.6869 44.3984 4.6219 44.2865 4.6219H41.9365C41.8917 4.6219 41.8917 4.6219 41.8693 4.66523L38.0422 9.1069V4.79523Z" fill="white"/>
<path d="M50.8879 13.4836C49.9032 13.4836 48.9856 12.5952 48.9856 11.5336V4.79523C48.9856 4.6869 48.896 4.6219 48.8065 4.6219H47.0384C46.9265 4.6219 46.8594 4.70857 46.8594 4.79523V11.4902C46.8594 13.8302 48.6722 15.3252 50.8879 15.3252C53.1037 15.3252 54.9165 13.8302 54.9165 11.4902V4.79523C54.9165 4.6869 54.827 4.6219 54.7375 4.6219H52.9694C52.8575 4.6219 52.7903 4.70857 52.7903 4.79523V11.5336C52.7679 12.5736 51.8727 13.4836 50.8879 13.4836Z" fill="white"/>
</g>
<defs>
<clipPath id="clip0_345:6615">
<rect width="94" height="26" fill="white" transform="translate(0.261719 0.00691414)"/>
</clipPath>
</defs>
</svg>
