<svg width="151" height="32" viewBox="0 0 151 32" fill="none" xmlns="http://www.w3.org/2000/svg">
<g clip-path="url(#clip0_823_6922)">
<path d="M55.0784 13.5813C55.6532 13.5883 56.2258 13.6541 56.7872 13.7777C57.4286 13.9118 58.0482 14.1346 58.6285 14.4397C59.2405 14.7598 59.7963 15.1782 60.2738 15.6781C60.7869 16.2165 61.1682 16.8671 61.3876 17.5786C61.5239 18.013 61.6157 18.4603 61.6615 18.9134C61.7162 19.4348 61.7247 19.96 61.6869 20.4829C61.8533 20.6299 62.0468 20.7429 62.2565 20.8157C62.4497 20.8793 62.6517 20.9118 62.8551 20.912C63.1576 20.9065 63.4541 20.8266 63.7186 20.6793C64.0307 20.5082 64.3228 20.3027 64.5893 20.0664C64.8833 19.808 65.1574 19.5278 65.4092 19.228C65.6668 18.917 65.9135 18.6042 66.1348 18.2933C66.3561 17.9823 66.5539 17.684 66.7262 17.4058C66.8985 17.1275 67.0382 16.8857 67.1507 16.6929C67.1858 16.6479 67.2316 16.6125 67.2839 16.5899C67.3362 16.5674 67.3933 16.5584 67.45 16.5638C67.6766 16.5817 67.8888 16.6819 68.0468 16.8457C68.2735 17.0622 68.4388 17.3352 68.5257 17.6367C68.6382 18.0154 68.6617 18.415 68.5946 18.8043C68.4895 19.3229 68.2427 19.8021 67.8817 20.1882C67.6677 20.5241 67.4258 20.9126 67.1561 21.354C66.8824 21.7961 66.5717 22.214 66.2274 22.6033C65.8909 22.986 65.5032 23.3201 65.0755 23.5963C64.6571 23.8659 64.1687 24.0057 63.6714 23.9982C63.3093 23.9959 62.9492 23.9439 62.6011 23.8436C62.1948 23.7198 61.804 23.5496 61.4365 23.3362C61.1984 24.0447 60.858 24.7144 60.4261 25.324C59.9962 25.9254 59.4645 26.4467 58.8552 26.8643C58.1992 27.3092 57.4774 27.6479 56.7165 27.8682C55.8378 28.1198 54.9274 28.2423 54.0136 28.2319C53.5457 28.2173 53.0814 28.1446 52.6313 28.0155C52.0484 27.8568 51.4904 27.6174 50.9733 27.3044C50.3907 26.9533 49.8642 26.5161 49.4115 26.0077C48.9105 25.4453 48.5356 24.7818 48.3122 24.0618C48.1256 23.4533 48.0088 22.8255 47.9639 22.1905C47.9046 21.4398 47.9271 20.6849 48.031 19.9391C48.1408 19.1508 48.3442 18.3785 48.6369 17.6386C48.9331 16.8835 49.3689 16.1912 49.9212 15.5981C50.5152 14.9698 51.2347 14.474 52.0327 14.1432C52.9987 13.7481 54.0355 13.5569 55.0784 13.5813ZM55.1419 17.013C54.5493 17.0019 53.9658 17.1609 53.4603 17.4713C52.9784 17.7717 52.5783 18.1872 52.2957 18.6806C52 19.2015 51.8199 19.7803 51.7679 20.3774C51.7041 21.0341 51.7808 21.6968 51.9928 22.3214C52.0852 22.5973 52.1936 22.8676 52.3175 23.1307C52.4536 23.4255 52.6274 23.7012 52.8345 23.9509C53.0472 24.2073 53.3056 24.4219 53.5964 24.5838C53.9182 24.7617 54.2811 24.8514 54.6485 24.8438C55.2408 24.85 55.8211 24.677 56.3138 24.3474C56.7961 24.0312 57.1956 23.6033 57.4784 23.0998C57.7722 22.5644 57.9485 21.9723 57.9954 21.3631C58.0522 20.6977 57.9713 20.0278 57.7577 19.3953C57.6686 19.1201 57.5644 18.8499 57.4457 18.5861C57.3203 18.3055 57.1533 18.0455 56.9505 17.815C56.7418 17.578 56.49 17.3829 56.2086 17.2403C55.8785 17.0807 55.5155 17.0016 55.1492 17.0093L55.1419 17.013Z" fill="white"/>
<path d="M24.7976 26.3211C24.6972 25.2215 24.5902 23.9484 24.4765 22.5021C24.3628 21.0557 24.2486 19.5402 24.1337 17.9556C24.02 16.3794 23.9069 14.7906 23.7945 13.189C23.682 11.5875 23.5864 10.0914 23.5078 8.70074C23.0858 10.0065 22.6577 11.3171 22.2235 12.6325C21.7894 13.948 21.3794 15.1992 20.9936 16.3861C20.6054 17.5694 20.2456 18.6406 19.9143 19.5996C19.5829 20.5586 19.3151 21.3327 19.1107 21.9219C18.8948 22.3166 18.6753 22.6948 18.4504 23.0531C18.2455 23.3841 18.015 23.6985 17.7611 23.9933C17.5511 24.2426 17.3068 24.4606 17.0355 24.6407C16.8059 24.7957 16.5358 24.8792 16.2591 24.8808C15.9452 24.8922 15.6347 24.8127 15.3647 24.6516C15.2452 24.575 15.1433 24.4737 15.0657 24.3546C14.9881 24.2354 14.9367 24.1011 14.9149 23.9606C14.9022 23.8969 14.8931 23.8296 14.8877 23.7787C14.8845 23.7177 14.8893 23.6566 14.9022 23.5969C14.4704 21.7783 14.0581 19.9469 13.665 18.1029C13.272 16.2588 12.9001 14.4402 12.5494 12.6471L12.3045 11.3741C12.2223 10.9522 12.1479 10.5363 12.0814 10.1265C11.7948 11.2783 11.4719 12.4743 11.1127 13.7146C10.7535 14.9549 10.3653 16.1788 9.94812 17.3864C9.53089 18.5987 9.08646 19.7626 8.61482 20.878C8.1803 21.9217 7.68732 22.9399 7.13822 23.9278C6.68559 24.7545 6.15595 25.5363 5.5564 26.2629C5.10862 26.8306 4.5412 27.292 3.89476 27.6141C3.47284 27.8063 3.03604 27.9638 2.58868 28.0851C2.25416 28.1747 1.90997 28.223 1.56376 28.2288C1.18448 28.2505 0.807862 28.1533 0.486241 27.9506C0.247719 27.7946 0.0796973 27.551 0.0182263 27.2722C-0.0378445 26.9256 0.0364994 26.5704 0.226838 26.2756C0.454411 25.9078 0.795932 25.6248 1.19915 25.47C1.74214 25.2396 2.28634 24.731 2.83176 23.9442C3.44117 23.0387 3.97393 22.0836 4.42446 21.089C4.94205 19.9651 5.44514 18.7115 5.93371 17.3282C6.42229 15.9448 6.88123 14.5445 7.31055 13.1272C7.74228 11.7087 8.13955 10.3181 8.50235 8.95534C8.86515 7.59261 9.18139 6.36324 9.45108 5.26723C9.72076 4.16759 9.94147 3.2498 10.1132 2.51387C10.2819 1.77734 10.3889 1.32088 10.4306 1.14266C10.5033 0.789379 10.7118 0.47902 11.0111 0.278825C11.2871 0.10282 11.6074 0.00944221 11.9345 0.00967113C12.1235 -0.00258602 12.3131 0.0243562 12.4913 0.0888129C12.6695 0.15327 12.8325 0.253857 12.9703 0.384301C13.2043 0.629812 13.3712 1.079 13.4963 1.71915C13.7539 2.52539 13.9867 3.28254 14.1947 3.99058C14.4027 4.69862 14.6047 5.42606 14.8006 6.17289C14.9953 6.92094 15.1864 7.72657 15.3738 8.5898C15.5613 9.45303 15.7632 10.4472 15.9797 11.5723C16.1381 12.3798 16.2947 13.269 16.4495 14.2402C16.6043 15.2113 16.799 16.2982 17.0336 17.5009C18.0241 14.7124 18.9027 12.2537 19.6694 10.1247C20.4361 7.99573 21.1176 6.2123 21.7138 4.77439C22.1537 3.64739 22.6808 2.55655 23.2902 1.51183C23.7497 0.77712 24.1573 0.409764 24.5128 0.409764H24.6416C24.679 0.412536 24.7166 0.412536 24.7541 0.409764C24.7917 0.402531 24.83 0.398878 24.8683 0.398853C25.1731 0.398853 25.4525 0.591015 25.7064 0.975345C25.9873 1.43255 26.1765 1.94034 26.2633 2.47023C26.3335 3.09825 26.4084 3.87661 26.4883 4.80531C26.5681 5.734 26.6485 6.75969 26.7295 7.88237C26.8166 9.00263 26.9031 10.1829 26.9889 11.4232C27.0748 12.6635 27.1607 13.894 27.2465 15.1149C27.3336 16.337 27.4201 17.5233 27.5059 18.6739C27.5918 19.8245 27.6819 20.8665 27.7762 21.8001C27.7832 21.9712 27.8038 22.1415 27.8379 22.3093L27.9395 22.8367C28.0048 23.1677 28.0755 23.5041 28.1535 23.8424C28.2315 24.1806 28.3023 24.5171 28.3676 24.8499C28.4426 25.2342 28.4988 25.6234 28.5363 26.0174C28.5764 26.373 28.538 26.7331 28.4238 27.0722C28.3017 27.3997 28.066 27.6721 27.7599 27.8396C27.4273 28.036 26.9357 28.1355 26.2851 28.1379C26.1168 28.1385 25.9501 28.1042 25.7956 28.0372C25.6411 27.9703 25.502 27.872 25.3872 27.7487C25.1259 27.4705 24.9282 26.9994 24.7976 26.3211Z" fill="white"/>
<path d="M66.0669 15.9818C66.1485 15.4362 66.3335 15.0198 66.6256 14.7506C66.886 14.4925 67.2371 14.3469 67.6033 14.3451C67.9341 14.3572 68.2521 14.4758 68.5103 14.6833C68.8323 14.9321 69.0631 15.2805 69.167 15.6745C69.2202 15.8525 69.2567 16.0352 69.2759 16.2201C69.2961 16.4249 69.29 16.6315 69.2577 16.8347C69.4666 16.4175 69.7508 16.0426 70.0958 15.729C70.5131 15.3343 70.9767 14.9917 71.4763 14.7088C72.0096 14.4037 72.5732 14.155 73.1578 13.9668C73.729 13.7798 74.3257 13.6829 74.9265 13.6795C75.5613 13.6726 76.1855 13.8426 76.7296 14.1705C77.2738 14.496 77.6584 15.0525 77.8942 15.8345C78.0353 16.3034 78.114 16.7889 78.1282 17.2785C78.1425 17.7798 78.1177 18.2814 78.0539 18.7788C77.9883 19.2748 77.8945 19.7667 77.7727 20.2519C77.653 20.7338 77.526 21.1848 77.3917 21.6085C77.2575 22.0323 77.1378 22.4196 77.0289 22.7761C76.9201 23.1325 76.8348 23.4235 76.7804 23.6508C76.6806 23.8763 76.6715 24.1317 76.755 24.3637C76.7895 24.4685 76.8523 24.5617 76.9364 24.6329C77.0293 24.7121 77.1484 24.7536 77.2702 24.7493C77.3677 24.7472 77.4647 24.7368 77.5604 24.7183C77.6934 24.6855 77.8146 24.6162 77.9105 24.5183C78.5262 24.2476 79.1179 23.9252 79.6792 23.5544C80.2529 23.1789 80.8052 22.7715 81.3336 22.3342C81.8217 21.929 82.2857 21.4954 82.7231 21.0357C83.0804 20.6685 83.4142 20.2792 83.7227 19.87C83.7808 19.7923 83.8561 19.7292 83.9426 19.6857C84.0292 19.6421 84.1247 19.6193 84.2215 19.619C84.3287 19.6201 84.4346 19.6429 84.5327 19.6861C84.6309 19.7292 84.7194 19.7917 84.7929 19.87C84.965 20.047 85.0897 20.2647 85.1557 20.5028C85.2783 20.9358 85.2926 21.3924 85.1974 21.8322C85.0888 22.3469 84.8373 22.8204 84.4718 23.198L82.959 24.6401C82.5036 25.0758 82.0233 25.4845 81.5204 25.8641C80.9919 26.2539 80.4346 26.6028 79.8534 26.9079C79.1485 27.2751 78.4128 27.5794 77.6548 27.8172C77.3879 27.9116 77.1152 27.9887 76.8385 28.0482C76.6033 28.0973 76.3639 28.1229 76.1238 28.1246C75.5312 28.1485 74.9518 27.9449 74.5038 27.5554C74.0514 27.1225 73.7263 26.5733 73.5642 25.9677C73.537 25.8786 73.5134 25.7859 73.4934 25.7095C73.4735 25.6331 73.4553 25.5276 73.4372 25.4294C73.3391 25.001 73.3085 24.5598 73.3465 24.1218C73.3842 23.6298 73.4539 23.1408 73.5551 22.6579C73.6567 22.1584 73.7776 21.6613 73.9179 21.1666C74.0558 20.6738 74.1773 20.2046 74.2807 19.7627C74.3841 19.3208 74.4621 18.9243 74.5274 18.5788C74.5855 18.2993 74.58 18.0102 74.5111 17.7331C74.4552 17.5441 74.3492 17.3738 74.2045 17.2403C74.0564 17.1043 73.8611 17.0319 73.6603 17.0384C72.9123 17.0209 72.184 17.2798 71.6141 17.7659C71.0306 18.2778 70.5397 18.8869 70.1629 19.5663C69.7531 20.2873 69.4089 21.0439 69.1344 21.8268C68.8538 22.6233 68.6119 23.3356 68.4088 23.9636C68.2857 24.4085 68.196 24.862 68.1403 25.3203C68.0876 25.7735 68.0095 26.2235 67.9063 26.6679C67.8294 27.039 67.6803 27.3913 67.4673 27.7045C67.3595 27.846 67.2179 27.9581 67.0556 28.0306C66.8934 28.103 66.7156 28.1335 66.5385 28.1191C66.1149 28.1227 65.7043 27.9722 65.383 27.6954C65.0549 27.4261 64.8148 27.0644 64.6937 26.657C64.6174 26.3097 64.5966 25.9524 64.632 25.5985C64.6592 25.1112 64.71 24.5474 64.788 23.9054C64.866 23.2635 64.9694 22.5742 65.0819 21.8304C65.1943 21.0866 65.3195 20.361 65.4447 19.6372C65.5698 18.9134 65.6859 18.2278 65.8075 17.5876C65.929 16.9475 66.0052 16.4347 66.0669 15.9818Z" fill="white"/>
<path d="M98.8294 15.3471C98.8974 15.0396 99.0723 14.7662 99.3228 14.5761C99.5521 14.4217 99.823 14.3412 100.099 14.3451C100.593 14.3524 101.072 14.5181 101.465 14.8179C101.886 15.1069 102.196 15.5308 102.345 16.02C102.369 16.1364 102.388 16.251 102.405 16.3655C102.421 16.4813 102.416 16.5992 102.388 16.7129C102.316 17.0475 102.258 17.3294 102.218 17.5604C102.178 17.7913 102.138 18.0059 102.105 18.2078C102.073 18.4096 102.042 18.597 102.013 18.7952C101.984 18.9934 101.949 19.2189 101.906 19.4881C101.855 19.8106 101.795 20.1603 101.725 20.5374C101.654 20.9145 101.594 21.3036 101.543 21.7049C101.496 22.0924 101.472 22.4822 101.471 22.8725C101.465 23.2306 101.514 23.5875 101.616 23.9309C101.673 24.211 101.839 24.4569 102.076 24.6147C102.315 24.731 102.579 24.7871 102.844 24.7784C103.197 24.7768 103.547 24.6979 103.867 24.5474C104.21 24.3857 104.534 24.1856 104.832 23.9509C105.152 23.7003 105.449 23.4202 105.717 23.1144C105.994 22.8003 106.249 22.4821 106.483 22.1596C106.716 21.8371 106.927 21.5298 107.114 21.2376C107.282 20.9831 107.436 20.7196 107.575 20.4483C107.642 20.3391 107.736 20.2486 107.847 20.1851C107.958 20.1215 108.083 20.087 108.211 20.0846C108.334 20.0893 108.455 20.1189 108.566 20.1718C108.677 20.2246 108.776 20.2995 108.857 20.3919C109.073 20.6125 109.229 20.8839 109.313 21.1812C109.404 21.487 109.428 21.8088 109.385 22.125C109.338 22.4712 109.195 22.7974 108.973 23.0671C108.542 23.7339 108.089 24.3722 107.615 24.982C107.159 25.5715 106.645 26.1131 106.08 26.5988C105.554 27.0516 104.969 27.4304 104.34 27.7245C103.719 28.0086 103.044 28.1533 102.361 28.1482C101.423 28.1703 100.503 27.8898 99.7364 27.348C98.9938 26.817 98.4496 25.9865 98.1038 24.8566C97.9294 24.2955 97.8335 23.7128 97.819 23.1253C97.8077 22.5755 97.8338 22.0256 97.897 21.4794C97.9586 20.9472 98.0391 20.4344 98.1382 19.9409C98.2371 19.4731 98.3098 19.0002 98.3559 18.5242C98.3686 18.3569 98.3976 18.1005 98.4484 17.755C98.4992 17.4094 98.5555 17.053 98.6208 16.6947C98.6788 16.271 98.7495 15.8145 98.8294 15.3471ZM99.5658 11.0171C99.4758 10.7227 99.4347 10.4155 99.4443 10.1078C99.4509 9.81016 99.5247 9.51792 99.6602 9.25303C99.7984 8.99017 100.006 8.77056 100.261 8.61833C100.581 8.43722 100.947 8.35025 101.315 8.36737C102.04 8.36737 102.588 8.51164 102.958 8.80019C103.322 9.07262 103.588 9.45522 103.718 9.89135C103.796 10.1532 103.831 10.4258 103.823 10.6988C103.825 10.9807 103.767 11.2597 103.653 11.5172C103.536 11.7743 103.347 11.9916 103.109 12.1428C102.811 12.3229 102.467 12.4103 102.12 12.3937C101.344 12.3937 100.764 12.2683 100.382 12.0173C100.007 11.7833 99.7182 11.4336 99.5586 11.0207L99.5658 11.0171Z" fill="white"/>
<path d="M123.934 23.3526C123.273 24.0456 122.505 24.6272 121.66 25.0748C120.756 25.5124 119.761 25.7269 118.757 25.7004C118.365 25.6972 117.976 25.6252 117.609 25.4876C117.062 25.275 116.53 25.0247 116.018 24.7384C115.534 25.8526 114.968 26.7012 114.318 27.2844C113.679 27.8572 112.847 28.1664 111.989 28.15C111.537 28.1463 111.089 28.0645 110.665 27.9082C110.203 27.7406 109.774 27.4946 109.395 27.1807C108.977 26.8376 108.61 26.4358 108.307 25.9877C107.965 25.4794 107.703 24.9212 107.53 24.3328C107.287 23.5194 107.117 22.6855 107.024 21.8413C106.921 20.949 106.861 20.0791 106.843 19.2317C106.825 18.3842 106.82 17.6016 106.828 16.8838C106.839 16.1655 106.85 15.5945 106.857 15.1707C106.944 14.6324 107.141 14.2432 107.447 14.0032C107.73 13.7714 108.083 13.6431 108.448 13.6395C108.624 13.6431 108.799 13.6725 108.967 13.7268C109.153 13.785 109.33 13.8656 109.497 13.9668C109.662 14.0669 109.813 14.1893 109.945 14.3305C110.068 14.4624 110.16 14.6202 110.215 14.7925C110.257 14.9089 110.269 15.0338 110.251 15.1562C110.251 15.7721 110.235 16.4425 110.202 17.1675C110.17 17.8926 110.152 18.62 110.148 19.3499C110.148 20.0773 110.176 20.7926 110.231 21.4958C110.281 22.1447 110.398 22.7866 110.581 23.4108C110.621 23.5353 110.67 23.6569 110.727 23.7745C110.797 23.9218 110.872 24.0637 110.95 24.1982C111.022 24.323 111.108 24.439 111.207 24.5438C111.268 24.6234 111.358 24.6757 111.458 24.6893C111.781 24.6893 112.085 24.5074 112.365 24.131C112.706 23.6543 112.987 23.1369 113.201 22.5906C113.497 22.0935 113.727 21.5598 113.885 21.003C114.066 20.3968 114.224 19.7712 114.358 19.1262C114.492 18.4812 114.618 17.8495 114.734 17.2312C114.848 16.6092 114.979 16.0509 115.122 15.5563C115.233 15.1366 115.403 14.7349 115.626 14.3633C115.699 14.229 115.805 14.1165 115.935 14.0373C116.065 13.958 116.214 13.9149 116.366 13.9123C116.597 13.9031 116.827 13.9438 117.041 14.0317C117.255 14.1195 117.447 14.2525 117.605 14.4215C117.925 14.771 118.16 15.189 118.295 15.6436C118.45 16.1214 118.518 16.6236 118.494 17.1257C118.458 17.5986 118.371 18.0663 118.235 18.5206C118.093 19.0007 117.917 19.5335 117.703 20.1173C117.489 20.7011 117.273 21.3903 117.056 22.2069C117.197 22.341 117.363 22.4457 117.544 22.515C117.726 22.5843 117.919 22.6168 118.113 22.6106C118.565 22.6076 119.015 22.5464 119.452 22.4287C119.895 22.3129 120.324 22.1482 120.731 21.9377C121.146 21.7197 121.539 21.4614 121.905 21.1666C122.281 20.8654 122.633 20.5339 122.957 20.1755C123.09 20.0676 123.255 20.0069 123.426 20.0027C123.55 20.008 123.67 20.0382 123.782 20.0913C123.893 20.1444 123.992 20.2194 124.074 20.3119C124.288 20.5324 124.444 20.8031 124.528 21.0994C124.634 21.4653 124.649 21.852 124.571 22.2251C124.488 22.6609 124.265 23.0572 123.934 23.3526Z" fill="white"/>
<path d="M128.15 13.6522C129.184 13.6522 130.031 13.9092 130.69 14.4233C131.377 14.966 131.874 15.7147 132.107 16.5601C132.27 17.1066 132.306 17.6836 132.21 18.246C132.081 18.9117 131.78 19.5322 131.339 20.0464C130.725 20.7704 130.008 21.3992 129.21 21.9123C128.058 22.6643 126.838 23.3054 125.565 23.8272C125.743 24.2035 126.04 24.5107 126.409 24.702C126.837 24.9235 127.313 25.033 127.795 25.0202C128.391 25.0168 128.983 24.9292 129.554 24.7602C130.152 24.5886 130.734 24.3665 131.294 24.0964C131.853 23.8272 132.39 23.5357 132.905 23.2217C133.42 22.9076 133.88 22.6094 134.285 22.3269C134.69 22.0432 135.027 21.8007 135.294 21.5995C135.467 21.4588 135.649 21.3288 135.838 21.2103C135.913 21.1425 136.005 21.0977 136.105 21.0812C136.187 21.0705 136.269 21.0644 136.351 21.063C136.493 21.0612 136.633 21.0977 136.756 21.1685C136.876 21.2373 136.986 21.3217 137.084 21.4194C137.178 21.509 137.257 21.6127 137.318 21.7268C137.368 21.8163 137.409 21.91 137.442 22.0068C137.48 22.1423 137.51 22.2802 137.531 22.4197C137.547 22.6088 137.507 22.7987 137.416 22.9652C137.269 23.1461 137.113 23.3191 136.948 23.4835C136.68 23.7672 136.324 24.1 135.882 24.4856C135.376 24.9187 134.848 25.326 134.302 25.7059C133.667 26.1508 133 26.5472 132.306 26.8916C131.564 27.2595 130.79 27.5584 129.993 27.7845C129.168 28.0248 128.313 28.1473 127.454 28.1482C126.723 28.1517 126 28.0011 125.331 27.7063C124.66 27.4083 124.04 27.0057 123.494 26.5133C122.931 26.0069 122.443 25.4234 122.042 24.7802C121.638 24.1393 121.32 23.447 121.099 22.7215C120.925 22.1317 120.845 21.5179 120.862 20.9029C120.873 20.2252 120.977 19.5522 121.17 18.9025C121.374 18.2162 121.667 17.5595 122.041 16.9493C122.837 15.6312 124.058 14.6247 125.502 14.0959C126.35 13.7882 127.248 13.6378 128.15 13.6522ZM128.279 16.3092C128.219 16.2964 128.159 16.2897 128.098 16.2892H127.931C127.5 16.2794 127.074 16.3789 126.692 16.5783C126.34 16.7664 126.032 17.0252 125.785 17.3385C125.534 17.6617 125.336 18.0218 125.195 18.406C125.051 18.7931 124.93 19.1884 124.832 19.5899C124.747 19.9614 124.687 20.338 124.651 20.7174C124.618 21.0812 124.6 21.3776 124.6 21.6267C124.985 21.383 125.357 21.1196 125.714 20.8375C126.091 20.5429 126.44 20.2592 126.772 19.99C127.104 19.7209 127.385 19.4772 127.622 19.2626C127.86 19.048 128.031 18.8988 128.132 18.8206C128.584 18.4569 128.858 18.1241 128.981 17.8095C129.094 17.5518 129.118 17.2641 129.05 16.9911C128.997 16.8066 128.886 16.6445 128.733 16.5292C128.6 16.4201 128.442 16.3452 128.274 16.311L128.279 16.3092Z" fill="white"/>
<path d="M97.7415 18.8206C97.9064 18.9581 98.0386 19.1309 98.128 19.3264C98.2175 19.5219 98.2621 19.735 98.2585 19.95C98.2519 20.2346 98.1838 20.5145 98.0589 20.7702C97.6961 21.4976 96.9252 22.0996 96.283 22.5888C95.6408 23.078 94.6504 23.3162 93.874 23.3162C93.2923 23.3305 92.7273 23.1202 92.2958 22.7288C92.0794 22.528 91.9095 22.2822 91.7979 22.0085C91.6864 21.7349 91.6359 21.4401 91.65 21.1448C91.6509 20.7433 91.6727 20.342 91.7153 19.9427C91.7503 19.7278 91.7728 19.511 91.7824 19.2935C91.7915 19.1652 91.7498 19.0384 91.6663 18.9407C91.6296 18.9029 91.5856 18.8731 91.5369 18.8531C91.4882 18.833 91.436 18.8232 91.3834 18.8243C91.0738 18.8243 90.6505 19.1516 90.1136 19.8063C89.4897 20.6108 88.9551 21.481 88.5191 22.4015C87.9836 23.4966 87.5529 24.6401 87.2329 25.8168C86.991 26.7576 86.7141 27.3832 86.4021 27.6936C86.0901 28.004 85.5804 28.1604 84.8729 28.1628C84.492 28.1805 84.1152 28.0773 83.796 27.8681C83.4769 27.6588 83.2317 27.354 83.0952 26.9971C82.7481 26.2102 82.5745 24.9536 82.5745 23.2271C82.5608 20.7588 82.9764 18.307 83.8026 15.9818C83.9666 15.4597 84.3157 15.0158 84.784 14.7343C85.2375 14.47 85.8742 14.3378 86.6942 14.3378C87.0115 14.3152 87.3298 14.3656 87.6247 14.4851C87.7169 14.5433 87.7909 14.6264 87.838 14.7248C87.8852 14.8233 87.9037 14.9331 87.8914 15.0416C87.8914 15.3568 87.7251 16.0612 87.3925 17.1548C87.1694 17.9332 86.9935 18.6097 86.8592 19.208C86.707 19.9248 86.5961 20.6498 86.5273 21.3794C87.2529 19.6978 88.0722 18.3284 88.9853 17.2712C89.8983 16.214 90.7847 15.4617 91.6446 15.0143C92.5068 14.5633 93.2929 14.3378 94.0028 14.3378C94.6425 14.3378 95.1353 14.4997 95.4812 14.8234C95.8271 15.1471 95.9994 15.6223 95.9982 16.2492C95.9982 16.6202 95.8773 17.3239 95.6354 18.3605H95.9365C96.4209 18.3605 97.3968 18.5169 97.7415 18.8206Z" fill="white"/>
<path d="M150.482 18.8006C150.646 18.9384 150.778 19.1112 150.868 19.3066C150.957 19.502 151.002 19.715 150.999 19.93C150.992 20.215 150.924 20.4952 150.801 20.752C150.438 21.4794 149.665 22.0832 149.023 22.5706C148.381 23.058 147.39 23.3126 146.618 23.3126C146.036 23.3269 145.471 23.1166 145.04 22.7252C144.823 22.5245 144.653 22.2787 144.541 22.005C144.429 21.7314 144.378 21.4366 144.392 21.1412C144.393 20.7396 144.416 20.3383 144.459 19.9391C144.493 19.7247 144.516 19.5085 144.526 19.2917C144.531 19.228 144.523 19.164 144.503 19.1034C144.482 19.0428 144.45 18.9869 144.408 18.9389C144.372 18.9012 144.328 18.8714 144.28 18.8511C144.231 18.8308 144.179 18.8204 144.127 18.8206C143.816 18.8206 143.393 19.1486 142.857 19.8045C142.233 20.6085 141.698 21.478 141.261 22.3978C140.726 23.4894 140.293 24.6285 139.968 25.8004C139.726 26.7388 139.449 27.365 139.137 27.679C138.825 27.993 138.315 28.1494 137.607 28.1482C137.226 28.1658 136.849 28.0624 136.53 27.8528C136.211 27.6432 135.966 27.338 135.83 26.9807C135.488 26.2023 135.315 24.9487 135.313 23.2198C135.301 20.7509 135.717 18.2987 136.543 15.9727C136.71 15.4475 137.064 15.0027 137.539 14.7234C137.993 14.4578 138.631 14.3281 139.451 14.3342C139.767 14.3119 140.085 14.3616 140.379 14.4797C140.472 14.538 140.546 14.6214 140.593 14.7202C140.64 14.819 140.659 14.9292 140.646 15.038C140.646 15.3508 140.48 16.0546 140.149 17.1494C139.925 17.9277 139.748 18.6121 139.617 19.2026C139.464 19.9191 139.352 20.6442 139.284 21.374C140.009 19.6924 140.829 18.323 141.742 17.2658C142.655 16.2085 143.541 15.4562 144.399 15.0089C145.263 14.5579 146.049 14.333 146.757 14.3342C147.405 14.3342 147.893 14.4942 148.236 14.8179C148.579 15.1416 148.755 15.6145 148.755 16.2437C148.755 16.6147 148.634 17.3185 148.392 18.3551H148.689C149.159 18.346 150.137 18.4969 150.482 18.8006Z" fill="white"/>
<path d="M38.2212 13.5813C36.3994 13.5818 34.6524 14.3075 33.3642 15.599C32.076 16.8904 31.352 18.6419 31.3516 20.4683C31.352 20.9034 31.3927 21.3374 31.4731 21.765L32.362 21.1557C33.922 20.0828 36.4526 20.0828 38.0126 21.1557L38.9432 21.7959L39.4493 22.1432C40.8552 23.1089 43.1336 23.1089 44.5376 22.1432L44.9512 21.8595C45.1559 20.8586 45.136 19.8246 44.893 18.8324C44.6499 17.8402 44.1898 16.9145 43.546 16.1225C42.9022 15.3305 42.0908 14.6919 41.1704 14.253C40.2501 13.8142 39.244 13.5859 38.2248 13.5849L38.2212 13.5813Z" fill="white"/>
<path d="M42.0834 24.6056C41.1023 24.6244 40.1379 24.3496 39.3134 23.8163L37.8785 22.8306C37.0975 22.3502 36.199 22.0958 35.2826 22.0958C34.3663 22.0958 33.4678 22.3502 32.6868 22.8306L31.7598 23.4672C31.7161 23.4971 31.667 23.5182 31.6151 23.5291C31.5633 23.54 31.5098 23.5406 31.4578 23.5308C31.4057 23.521 31.3561 23.501 31.3118 23.472C31.2674 23.443 31.2292 23.4055 31.1993 23.3617C31.1694 23.3179 31.1484 23.2686 31.1375 23.2166C31.1266 23.1646 31.1261 23.111 31.1358 23.0589C31.1456 23.0067 31.1655 22.9569 31.1945 22.9125C31.2234 22.868 31.2608 22.8297 31.3045 22.7997L32.2315 22.1632C33.1474 21.5927 34.2043 21.2903 35.2826 21.2903C36.361 21.2903 37.4179 21.5927 38.3338 22.1632L39.7687 23.1489C40.4649 23.5769 41.2657 23.8035 42.0825 23.8035C42.8992 23.8035 43.7 23.5769 44.3962 23.1489L44.9404 22.7761C44.9842 22.7461 45.0333 22.7251 45.0852 22.7142C45.137 22.7032 45.1904 22.7027 45.2425 22.7124C45.2945 22.7222 45.3442 22.7422 45.3885 22.7712C45.4329 22.8003 45.4711 22.8377 45.501 22.8816C45.5309 22.9254 45.5519 22.9747 45.5628 23.0266C45.5736 23.0786 45.5742 23.1322 45.5645 23.1844C45.5547 23.2366 45.5348 23.2863 45.5058 23.3308C45.4769 23.3752 45.4395 23.4135 45.3958 23.4435L44.8516 23.8163C44.0271 24.3482 43.0637 24.6229 42.0834 24.6056Z" fill="white"/>
<path d="M35.2533 27.499V23.6072C35.2499 23.5252 35.253 23.4432 35.2623 23.3617C35.2748 23.2546 35.326 23.1559 35.4062 23.0841C35.4865 23.0124 35.5902 22.9727 35.6977 22.9725C35.8017 22.9757 35.901 23.0171 35.9766 23.0888C36.0522 23.1606 36.0988 23.2577 36.1077 23.3617C36.1242 23.4968 36.129 23.6331 36.1222 23.769V31.529C36.1243 31.5893 36.1145 31.6494 36.0933 31.7059C36.072 31.7624 36.0398 31.814 35.9984 31.8579C35.957 31.9017 35.9074 31.9369 35.8523 31.9613C35.7973 31.9857 35.7379 31.9988 35.6777 32C35.6174 31.9966 35.5584 31.981 35.5043 31.9541C35.4502 31.9272 35.4021 31.8896 35.363 31.8435C35.3238 31.7975 35.2943 31.7439 35.2764 31.6861C35.2585 31.6283 35.2525 31.5674 35.2587 31.5072V28.9193L35.2533 27.499Z" fill="white"/>
<path d="M34.4374 25.5404V27.4735C34.4374 27.8045 34.256 28.0191 34.0111 28.0191C33.7662 28.0191 33.5721 27.7881 33.5703 27.4735V23.6035C33.5703 23.2653 33.768 23.0361 34.0238 23.058C34.2796 23.0798 34.432 23.2744 34.4338 23.6145C34.4374 24.251 34.4374 24.8947 34.4374 25.5404Z" fill="white"/>
<path d="M36.9413 25.5367V24.1801C36.9413 23.8654 37.1082 23.6618 37.3567 23.6618C37.4194 23.6647 37.4809 23.6803 37.5374 23.7077C37.594 23.735 37.6444 23.7736 37.6858 23.8209C37.7271 23.8683 37.7585 23.9236 37.778 23.9834C37.7975 24.0433 37.8047 24.1064 37.7993 24.1691C37.8078 25.093 37.8078 26.0174 37.7993 26.9425C37.7993 27.2571 37.6179 27.4481 37.3585 27.4444C37.0991 27.4408 36.9413 27.248 36.9395 26.9261V25.5385L36.9413 25.5367Z" fill="white"/>
<path d="M31.8885 25.8168V24.4583C31.8885 24.1419 32.0554 23.9382 32.3039 23.9382C32.3667 23.9411 32.4281 23.9568 32.4847 23.9841C32.5412 24.0115 32.5917 24.05 32.633 24.0974C32.6744 24.1448 32.7057 24.2 32.7252 24.2599C32.7448 24.3197 32.752 24.3829 32.7466 24.4456C32.755 25.3706 32.755 26.2957 32.7466 27.2207C32.7466 27.5354 32.5652 27.7245 32.3076 27.7227C32.05 27.7209 31.8885 27.5263 31.8867 27.2026V25.8168H31.8885Z" fill="white"/>
<path d="M39.4756 25.0894C39.4756 24.8533 39.2848 24.662 39.0493 24.662C38.8139 24.662 38.623 24.8533 38.623 25.0894V25.8277C38.623 26.0637 38.8139 26.2551 39.0493 26.2551C39.2848 26.2551 39.4756 26.0637 39.4756 25.8277V25.0894Z" fill="white"/>
<path d="M41.1631 25.7368C41.1631 25.5007 40.9723 25.3094 40.7368 25.3094C40.5014 25.3094 40.3105 25.5007 40.3105 25.7368V29.8813C40.3105 30.1174 40.5014 30.3087 40.7368 30.3087C40.9723 30.3087 41.1631 30.1174 41.1631 29.8813V25.7368Z" fill="white"/>
<path d="M42.8389 25.8986C42.8389 25.6626 42.648 25.4712 42.4126 25.4712C42.1772 25.4712 41.9863 25.6626 41.9863 25.8986V29.4212C41.9863 29.6573 42.1772 29.8486 42.4126 29.8486C42.648 29.8486 42.8389 29.6573 42.8389 29.4212V25.8986Z" fill="white"/>
<path d="M44.5381 25.4967C44.5381 25.2607 44.3473 25.0693 44.1118 25.0693C43.8764 25.0693 43.6855 25.2607 43.6855 25.4967V27.0152C43.6855 27.2513 43.8764 27.4426 44.1118 27.4426C44.3473 27.4426 44.5381 27.2513 44.5381 27.0152V25.4967Z" fill="white"/>
</g>
<defs>
<clipPath id="clip0_823_6922">
<rect width="151" height="32" fill="white"/>
</clipPath>
</defs>
</svg>
