<svg width="84" height="26" viewBox="0 0 84 26" fill="none" xmlns="http://www.w3.org/2000/svg">
<g clip-path="url(#clip0_344:7595)">
<path d="M12.3887 14.1053C13.2183 13.9086 14.0848 13.9086 14.9144 14.1053C15.1459 15.0174 15.6314 15.8507 16.318 16.5147C17.0046 17.1788 17.8661 17.6482 18.809 17.8721C19.0007 18.6282 19.0121 19.4166 18.8424 20.1776C18.6727 20.9387 18.3264 21.6524 17.8296 22.265C17.3328 22.8775 16.6985 23.3728 15.9748 23.7134C15.251 24.054 14.4566 24.231 13.6518 24.231C12.8469 24.231 12.0525 24.054 11.3288 23.7134C10.605 23.3728 9.97073 22.8775 9.47394 22.265C8.97715 21.6524 8.63082 20.9387 8.46114 20.1776C8.29145 19.4166 8.30285 18.6282 8.49447 17.8721C9.43737 17.6482 10.2988 17.1787 10.9854 16.5147C11.6719 15.8506 12.1572 15.0174 12.3887 14.1053Z" fill="white"/>
<path d="M14.9159 11.6623C14.0863 11.859 13.2198 11.859 12.3902 11.6623C12.1587 10.7503 11.6734 9.91705 10.9869 9.253C10.3003 8.58896 9.43887 8.11951 8.49598 7.89562C8.30468 7.13962 8.29353 6.35145 8.46337 5.59066C8.63321 4.82988 8.9796 4.11638 9.47636 3.5041C9.97312 2.89181 10.6073 2.39674 11.3309 2.0563C12.0545 1.71586 12.8486 1.53896 13.6533 1.53896C14.4579 1.53896 15.2521 1.71586 15.9757 2.0563C16.6993 2.39674 17.3334 2.89181 17.8302 3.5041C18.3269 4.11638 18.6733 4.82988 18.8432 5.59066C19.013 6.35145 19.0018 7.13962 18.8105 7.89562C17.8676 8.11948 17.0061 8.58891 16.3195 9.25296C15.6329 9.91701 15.1474 10.7503 14.9159 11.6623Z" fill="white"/>
<path d="M20.0732 18.0195C19.6479 18.0195 19.224 17.97 18.8108 17.8721C18.5792 16.9601 18.0937 16.1269 17.4071 15.4628C16.7205 14.7988 15.8591 14.3293 14.9162 14.1053C14.7128 13.3029 14.7128 12.4648 14.9162 11.6623C15.8591 11.4384 16.7206 10.9689 17.4072 10.3049C18.0938 9.64086 18.5792 8.80763 18.8108 7.89561C19.5403 7.7228 20.2993 7.70162 21.0378 7.83347C21.7763 7.96533 22.4775 8.24722 23.0951 8.66053C23.7126 9.07384 24.2325 9.60917 24.6204 10.2312C25.0083 10.8532 25.2554 11.5477 25.3453 12.2689C25.4353 12.99 25.366 13.7215 25.1421 14.4148C24.9182 15.1082 24.5448 15.7478 24.0466 16.2912C23.5483 16.8347 22.9365 17.2698 22.2516 17.5677C21.5667 17.8656 20.8242 18.0196 20.0732 18.0195Z" fill="white"/>
<path d="M12.3907 11.6623C12.5941 12.4648 12.5941 13.3029 12.3907 14.1054C11.4479 14.3294 10.5865 14.7989 9.90001 15.4629C9.21351 16.1269 8.72813 16.9601 8.49653 17.8721C7.7149 18.0573 6.89997 18.0682 6.11334 17.904C5.32671 17.7398 4.58896 17.4048 3.95584 16.9243C3.32272 16.4438 2.81081 15.8304 2.45878 15.1304C2.10675 14.4305 1.92383 13.6622 1.92383 12.8838C1.92383 12.1055 2.10675 11.3372 2.45878 10.6373C2.81081 9.93731 3.32272 9.3239 3.95584 8.84341C4.58896 8.36291 5.32671 8.02791 6.11334 7.86371C6.89997 7.69952 7.7149 7.71043 8.49653 7.89561C8.72808 8.8076 9.21345 9.64082 9.89996 10.3049C10.5865 10.9689 11.4479 11.4384 12.3907 11.6623Z" fill="white"/>
<path opacity="0.5" d="M14.916 14.1054C15.8589 14.3294 16.7204 14.7988 17.4069 15.4629C18.0935 16.1269 18.579 16.9601 18.8107 17.8721C17.8677 17.6482 17.0062 17.1788 16.3196 16.5148C15.633 15.8507 15.1476 15.0174 14.916 14.1054Z" fill="white"/>
<path opacity="0.5" d="M14.916 11.6623C15.1476 10.7503 15.633 9.91701 16.3196 9.25296C17.0062 8.58892 17.8677 8.11948 18.8107 7.89562C18.579 8.80764 18.0936 9.64088 17.407 10.3049C16.7204 10.9689 15.8589 11.4384 14.916 11.6623Z" fill="white"/>
<path opacity="0.5" d="M12.3903 14.1054C12.1588 15.0174 11.6735 15.8507 10.987 16.5147C10.3005 17.1788 9.43899 17.6482 8.49609 17.8721C8.72769 16.9601 9.21307 16.1269 9.89957 15.4629C10.5861 14.7989 11.4475 14.3294 12.3903 14.1054Z" fill="white"/>
<path opacity="0.5" d="M12.3903 11.6623C11.4474 11.4384 10.586 10.9689 9.89952 10.3049C9.21302 9.64083 8.72765 8.80761 8.49609 7.89562C9.43899 8.11951 10.3005 8.58896 10.987 9.25301C11.6735 9.91706 12.1588 10.7503 12.3903 11.6623Z" fill="white"/>
<path d="M29.373 12.8839C29.373 18.0312 33.3315 21.954 38.6762 21.954C44.0209 21.954 47.9798 17.9825 47.9798 12.8839C47.9798 7.73655 43.996 3.81374 38.6512 3.81374C33.3065 3.81374 29.373 7.68653 29.373 12.8839ZM44.4752 12.8839C44.4752 16.2319 42.0547 18.7806 38.6762 18.7806C35.2728 18.7806 32.8523 16.2319 32.8523 12.8839C32.8523 9.48582 35.2728 6.98717 38.6762 6.98717C42.0547 6.9876 44.4752 9.48582 44.4752 12.8839Z" fill="white"/>
<path d="M50.873 21.6288H62.2134V18.7555H54.3086V14.408H61.8247V11.5579H54.3086V7.01209H62.2134V4.13875H50.873V21.6288Z" fill="white"/>
<path d="M65.1758 12.8839C65.1758 18.0312 69.0093 21.954 74.4031 21.954C78.9409 21.954 82.1179 19.1803 83.0254 15.4326H79.3947C78.7394 17.4565 76.8231 18.7806 74.4022 18.7806C71.0741 18.7806 68.6518 16.257 68.6518 12.8839C68.6518 9.46081 71.0723 6.98717 74.4022 6.98717C76.7972 6.98717 78.7385 8.28629 79.4446 10.2852H83.1253C82.2681 6.51245 78.9151 3.81374 74.3768 3.81374C68.983 3.81374 65.1758 7.68653 65.1758 12.8839Z" fill="white"/>
</g>
<defs>
<clipPath id="clip0_344:7595">
<rect width="83" height="25" fill="white" transform="matrix(1 0 0 -1 0.998047 25.5069)"/>
</clipPath>
</defs>
</svg>
