<svg width="185" height="30" viewBox="0 0 185 30" fill="none" xmlns="http://www.w3.org/2000/svg">
<g clip-path="url(#clip0_1342_12663)">
<path d="M43.5236 25.1593C41.313 25.1593 39.5017 24.6108 38.0899 23.5136C36.6966 22.3968 36 20.8099 36 18.7528C36 18.3217 36.0464 17.7927 36.1393 17.1658C36.3808 15.7552 36.7245 14.0605 37.1703 12.0817C38.4336 6.6939 41.6938 4 46.951 4C48.3814 4 49.6632 4.2547 50.7964 4.76409C51.9296 5.25388 52.8212 5.99839 53.4714 6.99757C54.1216 7.97717 54.4467 9.15269 54.4467 10.5241C54.4467 10.9356 54.4003 11.4547 54.3074 12.0817C54.0287 13.8254 53.6943 15.52 53.3043 17.1658C52.654 19.85 51.5302 21.8581 49.9326 23.1903C48.3349 24.503 46.1987 25.1593 43.5236 25.1593ZM43.9137 20.9274C44.954 20.9274 45.8364 20.6042 46.5609 19.9576C47.3039 19.3112 47.8334 18.3217 48.1492 16.9894C48.5765 15.1478 48.9015 13.5413 49.1245 12.1698C49.1988 11.7584 49.236 11.3372 49.236 10.9062C49.236 9.1233 48.3535 8.23187 46.5887 8.23187C45.5484 8.23187 44.6568 8.55513 43.9137 9.20167C43.1892 9.84821 42.6691 10.8376 42.3533 12.1698C42.0189 13.4825 41.6845 15.089 41.3501 16.9894C41.2758 17.3813 41.2386 17.7927 41.2386 18.2237C41.2386 20.0263 42.1303 20.9274 43.9137 20.9274Z" fill="white"/>
<path d="M57.2744 24.8654C57.07 24.8654 56.9122 24.7969 56.8007 24.6598C56.7078 24.503 56.6799 24.3266 56.7171 24.1307L60.5625 5.02858C60.5996 4.81307 60.7018 4.63674 60.869 4.4996C61.0362 4.36245 61.2127 4.29388 61.3985 4.29388H68.8105C70.8726 4.29388 72.5259 4.7445 73.7705 5.64573C75.0338 6.54696 75.6654 7.84982 75.6654 9.55432C75.6654 10.0441 75.6097 10.5535 75.4982 11.0825C75.0338 13.3356 74.0956 15.0008 72.6838 16.0784C71.2906 17.156 69.3771 17.6948 66.9436 17.6948H63.1818L61.9 24.1307C61.8628 24.3462 61.7606 24.5225 61.5935 24.6598C61.4263 24.7969 61.2499 24.8654 61.064 24.8654H57.2744ZM67.1386 13.6392C67.9189 13.6392 68.597 13.4139 69.1728 12.9633C69.7673 12.5127 70.1574 11.8662 70.3431 11.0237C70.3989 10.6907 70.4268 10.3968 70.4268 10.1421C70.4268 9.57392 70.2688 9.14289 69.9531 8.84901C69.6373 8.53554 69.0985 8.37881 68.3369 8.37881H64.993L63.9341 13.6392H67.1386Z" fill="white"/>
<path d="M81.9433 24.8654C81.739 24.8654 81.581 24.7969 81.4696 24.6598C81.3581 24.503 81.321 24.3266 81.3581 24.1307L84.4512 8.90779H79.4912C79.2868 8.90779 79.1289 8.83922 79.0174 8.70207C78.9246 8.54534 78.8967 8.36901 78.9339 8.17309L79.5748 5.02858C79.6119 4.81307 79.7141 4.63674 79.8812 4.4996C80.0484 4.36245 80.2249 4.29388 80.4107 4.29388H95.4022C95.6065 4.29388 95.7643 4.36245 95.8759 4.4996C95.9502 4.61715 95.9874 4.7347 95.9874 4.85225C95.9874 4.91103 95.978 4.9698 95.9594 5.02858L95.3185 8.17309C95.2814 8.3886 95.1793 8.56493 95.012 8.70207C94.8634 8.83922 94.687 8.90779 94.4826 8.90779H89.5504L86.4574 24.1307C86.4203 24.3462 86.3181 24.5225 86.151 24.6598C85.9837 24.7969 85.8073 24.8654 85.6215 24.8654H81.9433Z" fill="white"/>
<path d="M96.6987 24.8654C96.4944 24.8654 96.3365 24.7969 96.2251 24.6598C96.1135 24.503 96.0764 24.3266 96.1135 24.1307L99.9868 5.02858C100.024 4.81307 100.126 4.63674 100.293 4.4996C100.461 4.36245 100.637 4.29388 100.823 4.29388H104.585C104.789 4.29388 104.947 4.36245 105.058 4.4996C105.133 4.61715 105.17 4.7347 105.17 4.85225C105.17 4.91103 105.16 4.9698 105.142 5.02858L101.296 24.1307C101.259 24.3462 101.157 24.5225 100.99 24.6598C100.823 24.7969 100.646 24.8654 100.461 24.8654H96.6987Z" fill="white"/>
<path d="M107.308 24.8654C107.104 24.8654 106.946 24.7969 106.834 24.6598C106.723 24.5225 106.686 24.3462 106.723 24.1307L110.568 5.02858C110.605 4.81307 110.708 4.63674 110.875 4.4996C111.042 4.36245 111.228 4.29388 111.432 4.29388H114.442C114.887 4.29388 115.175 4.50939 115.305 4.94042L118.343 14.1976L125.114 4.94042C125.207 4.78368 125.337 4.63674 125.504 4.4996C125.69 4.36245 125.913 4.29388 126.173 4.29388H129.21C129.414 4.29388 129.572 4.36245 129.684 4.4996C129.758 4.61715 129.795 4.7347 129.795 4.85225C129.795 4.91103 129.786 4.9698 129.767 5.02858L125.922 24.1307C125.885 24.3462 125.783 24.5225 125.615 24.6598C125.448 24.7969 125.272 24.8654 125.086 24.8654H121.714C121.51 24.8654 121.352 24.7969 121.241 24.6598C121.148 24.503 121.12 24.3266 121.157 24.1307L123.331 13.2866L119.067 19.2524C118.881 19.4679 118.705 19.6344 118.538 19.7519C118.371 19.8695 118.175 19.9283 117.953 19.9283H116.504C116.113 19.9283 115.844 19.703 115.696 19.2524L113.717 13.0221L111.488 24.1307C111.451 24.3462 111.348 24.5225 111.181 24.6598C111.014 24.7969 110.838 24.8654 110.652 24.8654H107.308Z" fill="white"/>
<path d="M131.904 24.8654C131.699 24.8654 131.542 24.7969 131.43 24.6598C131.319 24.503 131.281 24.3266 131.319 24.1307L135.192 5.02858C135.229 4.81307 135.331 4.63674 135.498 4.4996C135.665 4.36245 135.842 4.29388 136.028 4.29388H139.789C139.994 4.29388 140.152 4.36245 140.263 4.4996C140.338 4.61715 140.375 4.7347 140.375 4.85225C140.375 4.91103 140.366 4.9698 140.347 5.02858L136.502 24.1307C136.465 24.3462 136.362 24.5225 136.195 24.6598C136.028 24.7969 135.851 24.8654 135.665 24.8654H131.904Z" fill="white"/>
<path d="M149.398 25.1593C147.763 25.1593 146.361 24.9242 145.191 24.454C144.038 23.9839 143.165 23.3569 142.571 22.5732C141.995 21.7895 141.707 20.9177 141.707 19.9576C141.707 19.8009 141.726 19.5658 141.763 19.2524C141.8 19.076 141.875 18.9291 141.986 18.8116C142.116 18.694 142.264 18.6352 142.432 18.6352H145.998C146.222 18.6352 146.389 18.6744 146.5 18.7528C146.63 18.8311 146.76 18.9683 146.89 19.1642C147.02 19.6735 147.317 20.0948 147.782 20.4278C148.265 20.761 148.925 20.9274 149.76 20.9274C150.819 20.9274 151.674 20.7511 152.324 20.3985C152.974 20.0459 153.365 19.5658 153.494 18.9584C153.513 18.8801 153.522 18.7625 153.522 18.6058C153.522 18.116 153.235 17.734 152.659 17.4597C152.082 17.1658 151.023 16.823 149.482 16.4312C147.68 16.0196 146.314 15.4025 145.385 14.5797C144.457 13.7372 143.993 12.6401 143.993 11.2882C143.993 10.818 144.048 10.338 144.16 9.84821C144.531 8.02615 145.451 6.59594 146.918 5.55756C148.404 4.51919 150.317 4 152.659 4C154.07 4 155.325 4.26449 156.42 4.79348C157.516 5.32246 158.361 5.99839 158.956 6.82125C159.569 7.62451 159.875 8.42778 159.875 9.23106C159.875 9.46616 159.866 9.63269 159.847 9.73065C159.811 9.90698 159.727 10.0539 159.597 10.1715C159.486 10.289 159.346 10.3478 159.179 10.3478H155.445C155.037 10.3478 154.757 10.1813 154.609 9.84821C154.591 9.39758 154.367 9.01555 153.94 8.70207C153.513 8.3886 152.956 8.23187 152.268 8.23187C151.451 8.23187 150.773 8.3886 150.234 8.70207C149.714 9.01555 149.388 9.47596 149.259 10.0833C149.24 10.1813 149.231 10.3086 149.231 10.4654C149.231 10.9356 149.491 11.3274 150.011 11.6409C150.55 11.9348 151.488 12.2384 152.825 12.5519C154.906 12.9829 156.42 13.6001 157.368 14.4033C158.333 15.2066 158.816 16.2743 158.816 17.6066C158.816 18.0573 158.761 18.547 158.649 19.076C158.241 21.0744 157.247 22.5928 155.667 23.6311C154.108 24.6499 152.018 25.1593 149.398 25.1593Z" fill="white"/>
<path d="M162.513 24.8654C162.309 24.8654 162.151 24.7969 162.04 24.6598C161.928 24.5225 161.891 24.3462 161.928 24.1307L165.773 5.02858C165.81 4.81307 165.913 4.63674 166.08 4.4996C166.247 4.36245 166.433 4.29388 166.638 4.29388H169.646C170.092 4.29388 170.381 4.50939 170.511 4.94042L173.548 14.1976L180.319 4.94042C180.412 4.78368 180.542 4.63674 180.709 4.4996C180.895 4.36245 181.117 4.29388 181.378 4.29388H184.415C184.62 4.29388 184.778 4.36245 184.889 4.4996C184.964 4.61715 185 4.7347 185 4.85225C185 4.91103 184.991 4.9698 184.973 5.02858L181.127 24.1307C181.09 24.3462 180.987 24.5225 180.82 24.6598C180.654 24.7969 180.477 24.8654 180.291 24.8654H176.92C176.715 24.8654 176.557 24.7969 176.446 24.6598C176.352 24.503 176.325 24.3266 176.362 24.1307L178.536 13.2866L174.272 19.2524C174.087 19.4679 173.91 19.6344 173.743 19.7519C173.576 19.8695 173.38 19.9283 173.158 19.9283H171.709C171.318 19.9283 171.049 19.703 170.901 19.2524L168.922 13.0221L166.693 24.1307C166.656 24.3462 166.553 24.5225 166.386 24.6598C166.219 24.7969 166.043 24.8654 165.857 24.8654H162.513Z" fill="white"/>
<g clip-path="url(#clip1_1342_12663)">
<path fill-rule="evenodd" clip-rule="evenodd" d="M15 29C22.732 29 29 22.732 29 15C29 7.26801 22.732 1 15 1C7.26801 1 1 7.26801 1 15C1 22.732 7.26801 29 15 29ZM10.9191 18.721C10.0855 18.721 9.40251 18.5248 8.87012 18.1325C8.34473 17.7332 8.08203 17.1659 8.08203 16.4303C8.08203 16.2762 8.09956 16.087 8.13456 15.8628C8.22567 15.3585 8.35526 14.7525 8.52337 14.045C8.9997 12.1186 10.2291 11.1554 12.2116 11.1554C12.751 11.1554 13.2343 11.2465 13.6616 11.4286C14.089 11.6037 14.4252 11.8699 14.6704 12.2272C14.9155 12.5774 15.0382 12.9978 15.0382 13.4881C15.0382 13.6352 15.0206 13.8209 14.9856 14.045C14.8805 14.6685 14.7544 15.2745 14.6073 15.8628C14.3621 16.8226 13.9383 17.5406 13.3359 18.0169C12.7334 18.4863 11.9279 18.721 10.9191 18.721ZM11.0662 17.2079C11.4585 17.2079 11.7912 17.0923 12.0645 16.8611C12.3447 16.6299 12.5443 16.2762 12.6634 15.7998C12.8245 15.1413 12.9471 14.5669 13.0312 14.0766C13.0592 13.9294 13.0732 13.7789 13.0732 13.6247C13.0732 12.9872 12.7404 12.6685 12.075 12.6685C11.6827 12.6685 11.3464 12.7841 11.0662 13.0152C10.793 13.2465 10.5969 13.6002 10.4778 14.0766C10.3517 14.5459 10.2256 15.1203 10.0995 15.7998C10.0715 15.9399 10.0575 16.087 10.0575 16.2411C10.0575 16.8856 10.3938 17.2079 11.0662 17.2079ZM15.3442 18.5423C15.3862 18.5914 15.4458 18.6159 15.5228 18.6159H16.9519C17.0219 18.6159 17.0885 18.5914 17.1515 18.5423C17.2145 18.4933 17.253 18.4303 17.2671 18.3532L17.7504 16.052H19.169C20.0866 16.052 20.8082 15.8594 21.3336 15.4741C21.866 15.0888 22.2197 14.4934 22.3949 13.6878C22.4369 13.4986 22.4579 13.3165 22.4579 13.1414C22.4579 12.5319 22.2197 12.0661 21.7434 11.7438C21.274 11.4216 20.6506 11.2605 19.873 11.2605H17.0779C17.0079 11.2605 16.9413 11.285 16.8783 11.334C16.8152 11.3831 16.7767 11.4461 16.7627 11.5232L15.3126 18.3532C15.2986 18.4233 15.3091 18.4863 15.3442 18.5423ZM20.0096 14.3603C19.7924 14.5214 19.5367 14.602 19.2426 14.602H18.0341L18.4334 12.7211H19.6944C19.9816 12.7211 20.1847 12.7771 20.3038 12.8892C20.4229 12.9943 20.4825 13.1484 20.4825 13.3515C20.4825 13.4426 20.4719 13.5476 20.4509 13.6668C20.3809 13.968 20.2338 14.1991 20.0096 14.3603Z" fill="white"/>
</g>
</g>
<defs>
<clipPath id="clip0_1342_12663">
<rect width="185" height="30" fill="white"/>
</clipPath>
<clipPath id="clip1_1342_12663">
<rect width="28" height="28" fill="white" transform="translate(1 1)"/>
</clipPath>
</defs>
</svg>
