<svg width="80" height="33" viewBox="0 0 80 33" fill="none" xmlns="http://www.w3.org/2000/svg">
<path d="M14.352 3.60156H4.42773V8.5637H14.352V3.60156Z" fill="#DDDDDD"/>
<path d="M29.2387 3.60156H19.3145V8.5637H29.2387V3.60156Z" fill="#DDDDDD"/>
<path d="M29.2387 23.4386V18.488H24.2766V23.4386H19.3145V28.4123H29.2387V23.4386Z" fill="#DDDDDD"/>
<path d="M4.42773 23.4386V18.488H9.38988V23.4386H14.352V28.4123H4.42773V23.4386Z" fill="#DDDDDD"/>
<path d="M44.2541 14.5086L46.2667 11.0306H48.9046L45.6707 16.2379L49.012 21.6016H46.3937L44.2834 17.9867L42.1829 21.6016H39.5451L42.8863 16.2379L39.6623 11.0306H42.2806L44.2541 14.5086ZM50.9512 21.6016V7.37666H55.1522C56.4092 7.37666 57.523 7.65673 58.4935 8.21687C59.4705 8.77701 60.226 9.57162 60.7601 10.6007C61.2942 11.6298 61.5612 12.8087 61.5612 14.1374V14.8506C61.5612 16.1988 61.2909 17.3842 60.7503 18.4068C60.2162 19.4294 59.4509 20.2175 58.4544 20.7711C57.4644 21.3247 56.3278 21.6016 55.0447 21.6016H50.9512ZM53.4229 9.36971V19.628H55.0349C56.3311 19.628 57.3243 19.2242 58.0147 18.4166C58.7117 17.6024 59.0666 16.4366 59.0797 14.919V14.1276C59.0797 12.584 58.7442 11.4051 58.0734 10.5909C57.4025 9.77679 56.4288 9.36971 55.1522 9.36971H53.4229ZM70.3099 21.6016C70.2057 21.3996 70.1145 21.0707 70.0363 20.6148C69.2808 21.4029 68.3559 21.797 67.2617 21.797C66.2001 21.797 65.3338 21.4941 64.6629 20.8884C63.9921 20.2826 63.6566 19.5336 63.6566 18.6413C63.6566 17.5145 64.0735 16.6515 64.9072 16.0523C65.7474 15.4466 66.9458 15.1437 68.5025 15.1437H69.9582V14.45C69.9582 13.9029 69.8051 13.4665 69.499 13.1409C69.1929 12.8087 68.7272 12.6426 68.1019 12.6426C67.5613 12.6426 67.1184 12.7794 66.7732 13.0529C66.428 13.32 66.2554 13.6619 66.2554 14.0788H63.8813C63.8813 13.4991 64.0735 12.9585 64.4578 12.457C64.842 11.9489 65.3631 11.5516 66.0209 11.2651C66.6853 10.9785 67.4245 10.8352 68.2387 10.8352C69.4762 10.8352 70.463 11.1478 71.199 11.7731C71.935 12.3918 72.3127 13.2646 72.3323 14.3914V19.1591C72.3323 20.11 72.4658 20.8688 72.7328 21.4355V21.6016H70.3099ZM67.7014 19.8918C68.1703 19.8918 68.61 19.7779 69.0203 19.5499C69.4371 19.3219 69.7498 19.0158 69.9582 18.6315V16.6385H68.6783C67.7991 16.6385 67.138 16.7915 66.6951 17.0977C66.2522 17.4038 66.0307 17.8369 66.0307 18.397C66.0307 18.853 66.1805 19.2177 66.4801 19.4913C66.7862 19.7583 67.1933 19.8918 67.7014 19.8918ZM77.5443 21.6016H75.1702V11.0306H77.5443V21.6016ZM75.0237 8.28526C75.0237 7.92052 75.1376 7.61765 75.3656 7.37666C75.6001 7.13567 75.9323 7.01518 76.3621 7.01518C76.792 7.01518 77.1242 7.13567 77.3587 7.37666C77.5931 7.61765 77.7104 7.92052 77.7104 8.28526C77.7104 8.64348 77.5931 8.94309 77.3587 9.18408C77.1242 9.41856 76.792 9.5358 76.3621 9.5358C75.9323 9.5358 75.6001 9.41856 75.3656 9.18408C75.1376 8.94309 75.0237 8.64348 75.0237 8.28526Z" fill="white"/>
</svg>
