<?xml version="1.0" encoding="UTF-8" standalone="no"?>
<svg
   width="35.21431"
   height="20"
   viewBox="0 0 35.21431 20"
   fill="none"
   version="1.1"
   id="svg1126"
   xmlns="http://www.w3.org/2000/svg"
   xmlns:svg="http://www.w3.org/2000/svg">
  <g
     clip-path="url(#clip0_167:8173)"
     id="g1119"
     transform="matrix(0.84000119,0,0,0.84000119,-6.75282,-6.799986)">
    <path
       d="m 31.6863,20.0002 c 0,6.5747 -5.2937,11.9045 -11.8234,11.9045 -6.5297,0 -11.82384,-5.3298 -11.82384,-11.9045 0,-6.5748 5.29374,-11.90499 11.82384,-11.90499 6.5301,0 11.8234,5.33019 11.8234,11.90499 z"
       fill="#ffffff"
       id="path1113" />
    <path
       d="m 44.6539,20.0001 c 0,6.1886 -2.6468,11.2075 -5.9119,11.2075 -3.2651,0 -5.9119,-5.0189 -5.9119,-11.2075 0,-6.1887 2.6464,-11.20762 5.9115,-11.20762 3.2651,0 5.9119,5.01732 5.9119,11.20762"
       fill="#ffffff"
       id="path1115" />
    <path
       d="m 49.9608,20.0002 c 0,5.5435 -0.9308,10.0402 -2.0792,10.0402 -1.1485,0 -2.0789,-4.4955 -2.0789,-10.0402 0,-5.5448 0.9308,-10.04024 2.0789,-10.04024 1.148,0 2.0792,4.49504 2.0792,10.04024 z"
       fill="#ffffff"
       id="path1117" />
  </g>
  <defs
     id="defs1124">
    <clipPath
       id="clip0_167:8173">
      <rect
         width="56.801601"
         height="40"
         fill="#ffffff"
         transform="translate(0.599609)"
         id="rect1121"
         x="0"
         y="0" />
    </clipPath>
  </defs>
</svg>
