<svg id="e645b652-2609-4840-bedd-5284be981288" data-name="Layer 1" xmlns="http://www.w3.org/2000/svg" viewBox="0 0 945.63 543.28"><defs><style>.b9b5541f-0d1d-4d63-9b15-b11f4a701a78{fill:#21409a;}.a4813a29-0618-409a-8005-23eb4d4ef444,.a598e721-2919-4f55-b220-ad2c0244608a,.a802e615-3a8a-4dc2-937c-5fb3a570e806,.b346f975-d4a9-44a0-9583-2fe0f2dac2ba,.b9b5541f-0d1d-4d63-9b15-b11f4a701a78,.bd884316-9c7c-4e02-89e1-89bb0919acda{stroke:#231f20;stroke-miterlimit:10;stroke-width:2px;}.a802e615-3a8a-4dc2-937c-5fb3a570e806{fill:#f26522;}.a598e721-2919-4f55-b220-ad2c0244608a{fill:#00a651;}.b346f975-d4a9-44a0-9583-2fe0f2dac2ba{fill:#7f3f98;}.a4813a29-0618-409a-8005-23eb4d4ef444{fill:#ed1c24;}.bd884316-9c7c-4e02-89e1-89bb0919acda{fill:none;}.ebc88e71-94e1-4238-8985-17986b40a853,.fb620273-aaaa-4968-8695-3144b7f540cc{font-size:24px;}.a9b9ff05-aee0-4cbb-8e2e-6052356b5a82,.ebc88e71-94e1-4238-8985-17986b40a853,.fb620273-aaaa-4968-8695-3144b7f540cc{font-family:MicrosoftSansSerif, Microsoft Sans Serif;}.e6fa44fc-8b6e-4c8f-8c80-1c735b992b5b{letter-spacing:-0.04em;}.a9b9ff05-aee0-4cbb-8e2e-6052356b5a82{font-size:36px;}.a9b9ff05-aee0-4cbb-8e2e-6052356b5a82,.af4ced65-eff0-48a8-8348-e88f8e9fd3e6{fill:#378376;}.ebc88e71-94e1-4238-8985-17986b40a853{fill:#231f20;}.a64259ef-6e54-4a65-a3c7-36089ec5f32a{letter-spacing:-0.02em;}</style></defs><title>breakdown</title><path class="b9b5541f-0d1d-4d63-9b15-b11f4a701a78" d="M613.7,310.17a160.31,160.31,0,0,1-308.4-82.91L463.2,255Z" transform="translate(-23.25 -12)"/><path class="b9b5541f-0d1d-4d63-9b15-b11f4a701a78" d="M613.7,310.17a160.31,160.31,0,0,1-308.4-82.91L463.2,255Z" transform="translate(-23.25 -12)"/><path class="a802e615-3a8a-4dc2-937c-5fb3a570e806" d="M305.3,227.26a160.31,160.31,0,0,1,171.47-132L463.2,255Z" transform="translate(-23.25 -12)"/><path class="a802e615-3a8a-4dc2-937c-5fb3a570e806" d="M305.3,227.26a160.31,160.31,0,0,1,171.47-132L463.2,255Z" transform="translate(-23.25 -12)"/><path class="a598e721-2919-4f55-b220-ad2c0244608a" d="M476.77,95.23A160.31,160.31,0,0,1,623.51,254.31L463.2,255Z" transform="translate(-23.25 -12)"/><path class="a598e721-2919-4f55-b220-ad2c0244608a" d="M476.77,95.23A160.31,160.31,0,0,1,623.51,254.31L463.2,255Z" transform="translate(-23.25 -12)"/><path class="b346f975-d4a9-44a0-9583-2fe0f2dac2ba" d="M623.51,254.31a160.61,160.61,0,0,1-6.8,46.85L463.2,255Z" transform="translate(-23.25 -12)"/><path class="b346f975-d4a9-44a0-9583-2fe0f2dac2ba" d="M623.51,254.31a160.61,160.61,0,0,1-6.8,46.85L463.2,255Z" transform="translate(-23.25 -12)"/><path class="a4813a29-0618-409a-8005-23eb4d4ef444" d="M616.71,301.16q-1.37,4.54-3,9L463.2,255Z" transform="translate(-23.25 -12)"/><path class="a4813a29-0618-409a-8005-23eb4d4ef444" d="M616.71,301.16q-1.37,4.54-3,9L463.2,255Z" transform="translate(-23.25 -12)"/><path class="bd884316-9c7c-4e02-89e1-89bb0919acda" d="M613.7,310.17" transform="translate(-23.25 -12)"/><line class="bd884316-9c7c-4e02-89e1-89bb0919acda" x1="331.96" y1="110.14" x2="139.96" y2="39.14"/><line class="bd884316-9c7c-4e02-89e1-89bb0919acda" x1="600.26" y1="298.16" x2="768.96" y2="379.14"/><line class="bd884316-9c7c-4e02-89e1-89bb0919acda" x1="609.96" y1="265.73" x2="778.96" y2="245.73"/><line class="bd884316-9c7c-4e02-89e1-89bb0919acda" x1="567.96" y1="131.14" x2="778.96" y2="29.14"/><line class="bd884316-9c7c-4e02-89e1-89bb0919acda" x1="331.96" y1="372.82" x2="139.96" y2="433.82"/><text class="fb620273-aaaa-4968-8695-3144b7f540cc" transform="translate(0 79.64)">Yield Farming <tspan x="30.41" y="28.8">Reward</tspan><tspan class="e6fa44fc-8b6e-4c8f-8c80-1c735b992b5b" x="113.11" y="28.8">s</tspan><tspan x="30.08" y="57.6">(4 years)</tspan></text><text class="a9b9ff05-aee0-4cbb-8e2e-6052356b5a82" transform="translate(42.26 46.13)">10M</text><text class="a9b9ff05-aee0-4cbb-8e2e-6052356b5a82" transform="translate(798.38 30.88)">10M</text><text class="a9b9ff05-aee0-4cbb-8e2e-6052356b5a82" transform="translate(807.42 258.14)">2M</text><text class="a9b9ff05-aee0-4cbb-8e2e-6052356b5a82" transform="translate(42.26 446.84)">20M</text><text class="a9b9ff05-aee0-4cbb-8e2e-6052356b5a82" transform="translate(793.4 403.32)">424k</text><text class="fb620273-aaaa-4968-8695-3144b7f540cc" transform="translate(21.1 479.44)">Community<tspan x="33.4" y="28.8">Fund</tspan></text><text class="fb620273-aaaa-4968-8695-3144b7f540cc" transform="translate(789.11 61.38)">Insurance<tspan x="-51.12" y="28.8">(e.g., impermanent </tspan><tspan x="-28.66" y="57.6">loss protection)</tspan></text><text class="fb620273-aaaa-4968-8695-3144b7f540cc" transform="translate(749.71 289.15)">Team &amp; Advisors</text><text class="fb620273-aaaa-4968-8695-3144b7f540cc" transform="translate(787.67 438.79)">Airdrops</text><text class="ebc88e71-94e1-4238-8985-17986b40a853" transform="translate(267.99 538.1)">Initial Supply per Supported Chain:<tspan class="a64259ef-6e54-4a65-a3c7-36089ec5f32a" x="370.43" y="0"> </tspan><tspan class="af4ced65-eff0-48a8-8348-e88f8e9fd3e6" x="376.32" y="0">4M</tspan></text><text class="ebc88e71-94e1-4238-8985-17986b40a853" transform="translate(315.64 501.64)">Total ELK Supply: <tspan class="af4ced65-eff0-48a8-8348-e88f8e9fd3e6" x="198.18" y="0">42,424,242</tspan></text></svg>