<svg width="99" height="32" viewBox="0 0 99 32" fill="none" xmlns="http://www.w3.org/2000/svg">
<g clip-path="url(#clip0_809_6948)">
<path d="M10.6644 31.4222H13.9101V28.5313H10.8751C8.34602 28.5313 7.46086 27.1488 7.46086 24.8026V12.4432H14.2051V9.63612H7.46086V3.3098H4.34163V8.54684C4.34163 9.25908 3.87795 9.63612 3.28783 9.63612H0V12.4432H4.13088V24.8445C4.13088 29.2436 6.61783 31.4222 10.6644 31.4222Z" fill="white"/>
<path d="M29.3696 31.9668C34.5121 31.9668 38.3479 29.076 39.5703 25.012H36.1139C35.1022 27.5677 32.3202 28.9503 29.4117 28.9503C24.9015 28.9503 22.0773 26.0594 21.9087 21.7022H39.781V20.2359C39.781 13.9514 35.8188 9.09148 29.1588 9.09148C23.1733 9.09148 18.4102 13.5744 18.4102 20.5292C18.4102 27.065 22.6675 31.9668 29.3696 31.9668ZM21.993 18.7695C22.3302 14.7475 25.4916 12.108 29.1588 12.108C32.8682 12.108 35.9452 14.4123 36.2403 18.7695H21.993Z" fill="white"/>
<path d="M48.7653 31.4222H50.367V28.4894H49.3553C48.3017 28.4894 47.7536 27.861 47.7536 26.7717V0H44.4238V26.7717C44.4238 29.7463 46.0255 31.4222 48.7653 31.4222Z" fill="white"/>
<path d="M90.2023 31.9668C95.3024 31.9668 98.7167 29.2017 98.7167 25.0958C98.7167 16.0882 85.5654 20.6967 85.5654 15.1664C85.5654 13.2811 87.3357 11.9404 90.0755 11.9404C92.984 11.9404 94.5438 13.323 94.8388 15.3759H98.0422C97.705 11.4377 94.3329 9.09148 90.2864 9.09148C85.6918 9.09148 82.362 11.4796 82.362 15.1664C82.362 23.797 95.471 19.1466 95.471 25.2634C95.471 27.4839 93.6585 29.076 90.3705 29.076C87.1671 29.076 85.3127 27.6934 84.9332 25.0958H81.6875C82.067 29.1598 85.0173 31.9668 90.2023 31.9668Z" fill="white"/>
<g filter="url(#filter0_i_809_6948)">
<path d="M65.7501 32C72.1715 32 77.3771 26.826 77.3771 20.4434C77.3771 14.0609 72.1715 8.88688 65.7501 8.88688C59.3286 8.88688 54.123 14.0609 54.123 20.4434C54.123 26.826 59.3286 32 65.7501 32Z" fill="url(#paint0_linear_809_6948)"/>
</g>
<path d="M65.7514 31.7625C72.0408 31.7625 77.1395 26.6948 77.1395 20.4434C77.1395 14.1921 72.0408 9.12436 65.7514 9.12436C59.4619 9.12436 54.3633 14.1921 54.3633 20.4434C54.3633 26.6948 59.4619 31.7625 65.7514 31.7625Z" stroke="url(#paint1_linear_809_6948)" stroke-opacity="0.12" stroke-width="1.1875"/>
</g>
<defs>
<filter id="filter0_i_809_6948" x="44.623" y="8.88688" width="32.7539" height="23.1131" filterUnits="userSpaceOnUse" color-interpolation-filters="sRGB">
<feFlood flood-opacity="0" result="BackgroundImageFix"/>
<feBlend mode="normal" in="SourceGraphic" in2="BackgroundImageFix" result="shape"/>
<feColorMatrix in="SourceAlpha" type="matrix" values="0 0 0 0 0 0 0 0 0 0 0 0 0 0 0 0 0 0 127 0" result="hardAlpha"/>
<feOffset dx="-14.25"/>
<feGaussianBlur stdDeviation="4.75"/>
<feComposite in2="hardAlpha" operator="arithmetic" k2="-1" k3="1"/>
<feColorMatrix type="matrix" values="0 0 0 0 1 0 0 0 0 1 0 0 0 0 1 0 0 0 0.56 0"/>
<feBlend mode="normal" in2="shape" result="effect1_innerShadow_809_6948"/>
</filter>
<linearGradient id="paint0_linear_809_6948" x1="54.1228" y1="20.4434" x2="77.3769" y2="20.4434" gradientUnits="userSpaceOnUse">
<stop stop-color="white"/>
<stop offset="1" stop-color="white" stop-opacity="0"/>
</linearGradient>
<linearGradient id="paint1_linear_809_6948" x1="77.3782" y1="20.4434" x2="54.1241" y2="20.4434" gradientUnits="userSpaceOnUse">
<stop stop-color="white"/>
<stop offset="1" stop-color="white" stop-opacity="0"/>
</linearGradient>
<clipPath id="clip0_809_6948">
<rect width="99" height="32" fill="white"/>
</clipPath>
</defs>
</svg>
