<svg width="325" height="58" viewBox="0 0 325 58" fill="none" xmlns="http://www.w3.org/2000/svg">
<path d="M48.1314 34.4913C47.1596 35.0894 46.0259 35.1981 45.1621 34.7088C44.0823 34.0564 43.4345 32.5884 43.4345 30.5767V24.4331C43.4345 21.4971 42.3007 19.3767 40.3572 18.8331C37.0639 17.8544 34.5805 21.9321 33.6627 23.4544L27.832 32.8602V21.2797C27.778 18.6156 26.9142 17.0389 25.2946 16.5496C24.2148 16.2234 22.5952 16.3865 21.0296 18.7787L8.01852 39.7651C6.29091 36.4486 5.37312 32.7515 5.37312 29C5.37312 16.3321 15.4688 6.05635 27.832 6.05635C40.1952 6.05635 50.2909 16.3321 50.2909 29V29.0544V29.1088C50.3989 31.5554 49.6431 33.5127 48.1314 34.4913ZM55.2578 29V28.9457V28.8913C55.2038 13.5049 42.8946 0.945679 27.832 0.945679C12.7155 0.945679 0.40625 13.5049 0.40625 29C0.40625 44.4408 12.7155 57.0544 27.832 57.0544C34.7964 57.0544 41.3829 54.3903 46.4578 49.5515C47.4836 48.5729 47.5375 46.9962 46.5658 45.9632C45.648 44.9302 44.0823 44.8758 43.0566 45.8C43.0566 45.8 43.0566 45.8 43.0026 45.8544C38.8995 49.769 33.3928 51.9981 27.724 51.9981C21.0836 51.9981 15.1449 49.0622 11.0418 44.3865L22.7572 25.4661V34.2195C22.7572 38.4059 24.3768 39.7651 25.7265 40.1457C27.0762 40.5263 29.1277 40.2544 31.3412 36.7204L37.7658 26.2272C37.9817 25.901 38.1437 25.5748 38.3596 25.3573V30.6855C38.3596 34.6001 39.9253 37.7534 42.6247 39.2758C45.0541 40.6894 48.1314 40.5263 50.6688 38.9496C53.8001 36.8835 55.4737 33.2952 55.2578 29ZM93.4811 19.4311C94.129 19.8117 94.7228 20.736 94.7228 21.5515C94.7228 22.8564 93.6431 23.9437 92.4013 23.9437C92.0774 23.9437 91.8075 23.835 91.5375 23.7806C90.0799 22.6933 88.2443 21.9865 86.3007 21.9865C81.7118 21.9865 78.5805 25.7379 78.5805 30.4136C78.5805 35.0894 81.7658 38.7865 86.3007 38.7865C88.5682 38.7865 90.6198 37.8622 92.1314 36.3942C92.5093 36.1224 92.9952 35.9593 93.4811 35.9593C94.7228 35.9593 95.6946 36.9379 95.6946 38.1884C95.6946 39.0039 95.2087 39.7107 94.6148 40.0913C92.4013 41.9942 89.432 43.2447 86.3547 43.2447C79.3363 43.2447 73.6136 37.4272 73.6136 30.2505C73.6136 23.0738 79.3363 17.2564 86.3547 17.2564C88.9461 17.202 91.4296 18.0175 93.4811 19.4311ZM106.33 24.868C111.135 24.868 115.13 28.9457 115.13 34.002C115.13 39.0039 111.081 43.2991 106.33 43.2991C101.309 43.2991 97.1523 39.0583 97.1523 34.002C97.1523 28.9457 101.309 24.868 106.33 24.868ZM106.276 38.7865C108.382 38.7865 110.163 36.7748 110.163 34.0564C110.163 31.3379 108.382 29.5981 106.276 29.5981C104.009 29.5981 102.119 31.2835 102.119 34.0564C102.119 36.7204 104.009 38.7865 106.276 38.7865ZM118.153 40.4719V27.6408C118.153 26.2272 119.233 25.0855 120.637 25.0855C121.987 25.0855 123.12 26.2272 123.12 27.6408V40.4719C123.12 41.8855 121.987 43.0272 120.637 43.0272C119.287 43.0272 118.153 41.8311 118.153 40.4719ZM117.776 20.2466C117.776 18.5612 119.071 17.2564 120.637 17.2564C122.257 17.2564 123.552 18.6156 123.552 20.2466C123.552 21.8777 122.257 23.1826 120.637 23.1826C119.017 23.1282 117.776 21.8233 117.776 20.2466ZM132.622 33.5127V40.4719C132.622 41.8855 131.488 43.0272 130.139 43.0272C128.789 43.0272 127.655 41.8855 127.655 40.4719V27.0428C127.655 25.9554 128.519 25.0855 129.599 25.0855C130.679 25.0855 131.488 26.0098 131.488 27.0428C133.486 25.1399 135.268 24.868 136.941 24.868C141.908 24.868 144.122 28.6195 144.122 32.9146V40.4719C144.122 41.8855 142.988 43.0272 141.638 43.0272C140.288 43.0272 139.155 41.8855 139.155 40.4719V33.5127C139.155 31.3379 138.885 29.4894 135.753 29.4894C133.54 29.4894 132.622 31.3379 132.622 33.5127ZM160.21 36.1768C159.616 36.1768 159.238 35.9049 158.914 35.5243L153.138 29.2175V40.4719C153.138 41.8855 152.004 43.0272 150.654 43.0272C149.304 43.0272 148.171 41.8855 148.171 40.4719V18.1806C148.333 17.8001 148.711 17.5282 149.088 17.5282C149.52 17.5282 149.898 17.9088 150.168 18.1806L159.4 28.6195C159.67 28.9457 159.994 29.1088 160.21 29.1088C160.372 29.1088 160.75 28.9457 161.02 28.6195L170.252 18.1806C170.522 17.9088 170.846 17.5282 171.331 17.5282C171.763 17.5282 172.141 17.8001 172.249 18.1806V40.4719C172.249 41.8855 171.169 43.0272 169.766 43.0272C168.416 43.0272 167.282 41.8855 167.282 40.4719V29.2175L161.506 35.5243C161.074 35.9049 160.696 36.1768 160.21 36.1768ZM184.072 38.7865C186.286 38.7865 188.176 36.7748 188.176 34.0564C188.176 31.3379 186.232 29.5437 184.072 29.5437C181.913 29.5437 180.131 31.3923 180.131 34.0564C180.131 36.6661 181.859 38.7865 184.072 38.7865ZM189.363 41.07L189.255 40.4719C188.284 42.3748 185.206 43.2447 183.263 43.2447C178.62 43.2447 175.165 39.0039 175.165 33.9476C175.165 28.9457 178.674 24.8136 183.533 24.8136C184.342 24.8136 187.15 25.0311 189.309 27.5865L189.417 26.9884C189.417 25.901 190.227 25.0311 191.307 25.0311C192.387 25.0311 193.25 25.9554 193.25 26.9884V41.0156C193.25 42.103 192.387 42.9729 191.307 42.9729C190.173 43.0272 189.363 42.103 189.363 41.07ZM206.909 29.4894H206.369C203.238 29.6525 202.644 31.4466 202.644 33.5127V40.4719C202.644 41.8855 201.511 43.0272 200.161 43.0272C198.811 43.0272 197.677 41.8855 197.677 40.4719V27.0428C197.677 25.9554 198.541 25.0855 199.621 25.0855C200.701 25.0855 201.511 26.0098 201.511 27.0428C203.346 25.303 204.858 24.9224 206.369 24.868H206.855C208.043 24.868 209.123 25.901 209.123 27.2059C209.177 28.402 208.097 29.4894 206.909 29.4894ZM226.075 39.2758C226.291 39.6564 226.453 40.0369 226.453 40.4719C226.453 41.7768 225.265 42.9729 223.969 42.9729C223.106 42.9729 222.35 42.3204 221.756 41.5593L216.033 34.8719V40.4175C216.033 41.8311 214.899 42.9729 213.55 42.9729C212.2 42.9729 211.066 41.8311 211.066 40.4175V20.0292C211.066 18.6156 212.146 17.4738 213.55 17.4738C214.953 17.4738 216.033 18.6156 216.033 20.0292V32.7515L221.756 26.3903C222.35 25.7379 223.052 25.0311 223.915 25.0311C225.157 25.0311 226.291 26.1729 226.291 27.4777C226.291 27.8583 226.183 28.2932 225.967 28.6195L221.432 33.6214L226.075 39.2758ZM235.793 29.5437C234.443 29.5437 232.23 30.2505 232.23 32.3709H239.41C239.356 30.2505 237.088 29.5437 235.793 29.5437ZM242.271 35.5787H232.23C232.23 38.569 235.091 39.0583 236.333 39.0583C237.25 39.0583 238.546 38.8952 239.572 38.4059C239.896 38.1884 240.382 38.0253 240.868 38.0253C241.947 38.0253 242.865 38.9496 242.865 40.0913C242.865 40.8525 242.379 41.5049 241.785 41.8855C240.274 43.0272 238.276 43.2991 236.387 43.2991C231.366 43.2991 227.209 40.5806 227.209 34.2195C227.209 29.2175 229.746 24.868 235.685 24.868C240.49 24.868 244.107 28.0214 244.215 33.6214C244.215 34.6544 243.351 35.5787 242.271 35.5787ZM256.092 43.2447H254.742C250.963 43.2447 248.75 41.5593 248.75 35.6331V29.4894H247.454C246.266 29.4894 245.241 28.402 245.241 27.2059C245.241 25.901 246.32 24.868 247.454 24.868H248.75V20.1379C248.75 18.7243 249.83 17.5826 251.233 17.5826C252.583 17.5826 253.717 18.7243 253.717 20.1379V24.868H255.768C256.956 24.868 257.982 25.901 257.982 27.2059C257.982 28.402 256.902 29.4894 255.768 29.4894H253.717V34.6544C253.717 38.0797 253.879 38.7865 255.39 38.7865H256.092C257.28 38.7865 258.306 39.7651 258.306 41.0156C258.306 42.2117 257.28 43.2447 256.092 43.2447ZM280.117 19.4311C280.765 19.8117 281.358 20.736 281.358 21.5515C281.358 22.8564 280.279 23.9437 279.037 23.9437C278.713 23.9437 278.443 23.835 278.173 23.7806C276.715 22.6933 274.88 21.9865 272.936 21.9865C268.347 21.9865 265.216 25.7379 265.216 30.4136C265.216 35.0894 268.401 38.7865 272.936 38.7865C275.204 38.7865 277.255 37.8622 278.767 36.3942C279.145 36.1224 279.631 35.9593 280.117 35.9593C281.358 35.9593 282.33 36.9379 282.33 38.1884C282.33 39.0039 281.844 39.7107 281.25 40.0913C279.037 41.9942 276.068 43.2447 272.99 43.2447C265.972 43.2447 260.249 37.4272 260.249 30.2505C260.249 23.0738 265.972 17.2564 272.99 17.2564C275.582 17.202 278.119 18.0175 280.117 19.4311ZM292.696 38.7865C294.909 38.7865 296.799 36.7748 296.799 34.0564C296.799 31.3379 294.855 29.5437 292.696 29.5437C290.482 29.5437 288.755 31.3923 288.755 34.0564C288.755 36.6661 290.536 38.7865 292.696 38.7865ZM297.987 41.07L297.879 40.4719C296.907 42.3748 293.83 43.2447 291.886 43.2447C287.243 43.2447 283.788 39.0039 283.788 33.9476C283.788 28.9457 287.297 24.8136 292.156 24.8136C292.966 24.8136 295.773 25.0311 297.933 27.5865L298.041 26.9884C298.041 25.901 298.85 25.0311 299.93 25.0311C301.01 25.0311 301.874 25.9554 301.874 26.9884V41.0156C301.874 42.103 301.01 42.9729 299.93 42.9729C298.796 43.0272 297.987 42.103 297.987 41.07ZM315.425 38.7865C317.638 38.7865 319.366 36.6661 319.366 34.0564C319.366 31.3379 317.584 29.5437 315.425 29.5437C313.211 29.5437 311.322 31.3379 311.322 34.0564C311.322 36.7748 313.211 38.7865 315.425 38.7865ZM311.322 41.7767V48.1379C311.322 49.5515 310.188 50.6932 308.838 50.6932C307.488 50.6932 306.355 49.5515 306.355 48.1379V27.0428C306.355 25.9554 307.219 25.0855 308.298 25.0855C309.378 25.0855 310.188 26.0098 310.188 27.2602C312.023 25.3573 314.291 24.868 316.018 24.868C320.823 24.868 324.387 28.9457 324.387 34.002C324.387 39.0039 320.985 43.2991 316.288 43.2991C314.831 43.2447 312.671 42.8098 311.322 41.7767Z" fill="white"/>
</svg>
