<svg width="113" height="32" viewBox="0 0 113 32" fill="none" xmlns="http://www.w3.org/2000/svg">
<g clip-path="url(#clip0_809_6930)">
<path d="M13.581 3.8147e-06L0 7.95734V23.8667L13.581 31.8187L27.1515 23.8667V7.95734L13.581 3.8147e-06ZM23.1308 21.5093L13.581 27.104L4.02596 21.5093V10.3093L13.581 4.71467L23.1308 10.3093V21.5093Z" fill="white"/>
<path style="mix-blend-mode:multiply" d="M13.582 31.8187L27.1525 23.8667V7.95733L13.582 0V4.71999L23.1318 10.3147V21.5147L13.582 27.104V31.8187Z" fill="white"/>
<path style="mix-blend-mode:multiply" d="M13.5705 0L0 7.952V23.8613L13.5705 31.8187V27.0987L4.02069 21.504V10.304L13.5705 4.71467V0Z" fill="white"/>
<path d="M19.9147 19.6267L13.5762 23.3387L7.23242 19.6267V12.1973L13.5762 8.48L19.9147 12.1973L17.2763 13.744L13.5762 11.5733L9.8761 13.744V18.0747L13.5762 20.2453L17.2763 18.0747L19.9147 19.6267Z" fill="white"/>
<path d="M37.2015 17.1148V17.0722C37.1924 16.2291 37.3493 15.3927 37.663 14.6121C37.9767 13.8314 38.4409 13.1221 39.0284 12.526C39.6159 11.9298 40.3148 11.4588 41.0842 11.1404C41.8535 10.8221 42.6777 10.6629 43.5085 10.6722C44.4194 10.6398 45.3259 10.8146 46.1617 11.1837C46.9974 11.5529 47.7412 12.107 48.3386 12.8055L46.5989 14.6882C45.7528 13.8028 44.8593 13.1522 43.4875 13.1522C41.4745 13.1522 39.9871 14.9175 39.9871 17.0562V17.1042C39.9871 19.2855 41.4745 21.0242 43.5979 21.0242C44.1987 21.0124 44.7902 20.8718 45.3337 20.6117C45.8771 20.3515 46.3603 19.9778 46.7514 19.5148L48.4227 21.1895C47.5926 22.1961 46.4785 22.9206 45.2304 23.2657C43.9824 23.6107 42.6602 23.5596 41.4416 23.1194C40.223 22.6791 39.1664 21.8707 38.4141 20.803C37.6617 19.7353 37.2495 18.4594 37.2331 17.1468L37.2015 17.1148Z" fill="white"/>
<path d="M50.9082 10.9175H53.699V13.6802C54.4559 11.8455 55.8487 10.5922 57.9773 10.6828V13.6588H57.8196C55.3914 13.6588 53.699 15.2588 53.699 18.5068V23.1735H50.9082V10.9175Z" fill="white"/>
<path d="M59.3067 17.1148V17.0722C59.3482 15.3706 60.0414 13.7524 61.2403 12.5615C62.4386 11.3707 64.0474 10.701 65.7245 10.6947C67.4022 10.6885 69.0157 11.3462 70.2225 12.5281C71.4297 13.71 72.1351 15.3229 72.1887 17.0242V17.0722C72.1892 17.9272 72.0205 18.7736 71.693 19.5614C71.3656 20.3492 70.8858 21.0625 70.2824 21.6591C69.6785 22.2557 68.9637 22.7235 68.179 23.0349C67.3938 23.3463 66.556 23.495 65.7135 23.4722C64.8784 23.4935 64.0474 23.3448 63.2701 23.0347C62.4922 22.7246 61.7843 22.2595 61.1867 21.6668C60.5896 21.0741 60.1155 20.3659 59.7923 19.5841C59.4696 18.8022 59.304 17.9626 59.3067 17.1148ZM69.4189 17.1148V17.0722C69.4399 16.5636 69.36 16.0559 69.1839 15.5793C69.0073 15.1027 68.7382 14.6671 68.3924 14.2983C68.0471 13.9295 67.6314 13.6351 67.1709 13.4327C66.7111 13.2303 66.2149 13.124 65.7135 13.1202C63.4903 13.1202 62.0712 14.8855 62.0712 17.0242V17.0722C62.0523 17.5765 62.1333 18.0795 62.3088 18.5515C62.4849 19.0236 62.7519 19.4551 63.0951 19.8205C63.4377 20.186 63.8498 20.4779 64.306 20.6791C64.7617 20.8804 65.2531 20.9868 65.7503 20.9922C67.9998 20.9922 69.4189 19.2268 69.4189 17.1148Z" fill="white"/>
<path d="M74.9793 10.9175H77.7596V12.8002C78.1538 12.143 78.7088 11.601 79.3715 11.227C80.0338 10.8531 80.7806 10.6601 81.5385 10.6668C84.261 10.6668 85.8378 12.5228 85.8378 15.3548V23.1788H83.068V16.2082C83.068 14.3042 82.1324 13.2162 80.4821 13.2162C78.8318 13.2162 77.7596 14.3575 77.7596 16.2562V23.1895H74.9688L74.9793 10.9175Z" fill="white"/>
<path d="M88.5293 17.1148V17.0722C88.5708 15.3706 89.2641 13.7524 90.4629 12.5615C91.6613 11.3707 93.2701 10.701 94.9472 10.6947C96.6249 10.6885 98.2384 11.3462 99.4451 12.5281C100.652 13.71 101.358 15.3229 101.411 17.0242V17.0722C101.412 17.9272 101.243 18.7736 100.916 19.5614C100.588 20.3492 100.108 21.0625 99.505 21.6591C98.9011 22.2557 98.1864 22.7235 97.4017 23.0349C96.6164 23.3463 95.7787 23.495 94.9362 23.4722C94.101 23.4935 93.2701 23.3448 92.4927 23.0347C91.7149 22.7246 91.0069 22.2595 90.4093 21.6668C89.8123 21.0741 89.3382 20.3659 89.015 19.5841C88.6923 18.8022 88.5267 17.9626 88.5293 17.1148ZM98.6415 17.1148V17.0722C98.6625 16.5636 98.5826 16.0559 98.4066 15.5793C98.23 15.1027 97.9609 14.6671 97.6151 14.2983C97.2697 13.9295 96.854 13.6351 96.3936 13.4327C95.9337 13.2303 95.4376 13.124 94.9362 13.1202C92.713 13.1202 91.2939 14.8855 91.2939 17.0242V17.0722C91.275 17.5765 91.3559 18.0795 91.5314 18.5515C91.7075 19.0236 91.9745 19.4551 92.3177 19.8205C92.6604 20.186 93.0724 20.4779 93.5287 20.6791C93.9843 20.8804 94.4758 20.9868 94.973 20.9922C97.2067 20.9922 98.6415 19.2268 98.6415 17.1148Z" fill="white"/>
<path d="M103.24 21.5735L104.475 19.6695C105.604 20.5845 106.99 21.113 108.433 21.1788C109.626 21.1788 110.309 20.6455 110.309 19.8562V19.8082C110.309 18.8588 109.032 18.5335 107.613 18.0908C105.826 17.5575 103.834 16.8375 103.834 14.5175V14.4695C103.834 12.1228 105.737 10.7095 108.139 10.7095C109.717 10.7393 111.255 11.2219 112.575 12.1015L111.476 14.0962C110.46 13.4162 109.285 13.0173 108.07 12.9388C107.019 12.9388 106.378 13.4722 106.378 14.1442V14.1922C106.378 15.0988 107.681 15.4668 109.1 15.9308C110.861 16.4908 112.853 17.3015 112.853 19.5095V19.5522C112.853 22.1335 110.882 23.4082 108.365 23.4082C106.503 23.3946 104.698 22.7487 103.24 21.5735Z" fill="white"/>
</g>
<defs>
<clipPath id="clip0_809_6930">
<rect width="113" height="32" fill="white"/>
</clipPath>
</defs>
</svg>
