<svg width="108" height="56" viewBox="0 0 108 56" fill="none" xmlns="http://www.w3.org/2000/svg">
<path d="M27.996 55.5186C43.1967 55.5186 55.5193 43.196 55.5193 27.9953C55.5193 12.7946 43.1967 0.471954 27.996 0.471954C12.7953 0.471954 0.472656 12.7946 0.472656 27.9953C0.472656 43.196 12.7953 55.5186 27.996 55.5186Z" fill="white"/>
<path fill-rule="evenodd" clip-rule="evenodd" d="M27.9953 0.943965C13.0552 0.943965 0.943873 13.0553 0.943873 27.9954C0.943873 42.9355 13.0552 55.0468 27.9953 55.0468C42.9354 55.0468 55.0467 42.9355 55.0467 27.9954C55.0467 13.0553 42.9354 0.943965 27.9953 0.943965ZM0 27.9954C0 12.534 12.5339 9.15527e-05 27.9953 9.15527e-05C43.4566 9.15527e-05 55.9906 12.534 55.9906 27.9954C55.9906 43.4567 43.4566 55.9907 27.9953 55.9907C12.5339 55.9907 0 43.4567 0 27.9954Z" fill="#231F20"/>
<path d="M27.9956 51.8092C41.1476 51.8092 51.8095 41.1473 51.8095 27.9953C51.8095 14.8432 41.1476 4.18134 27.9956 4.18134C14.8435 4.18134 4.18164 14.8432 4.18164 27.9953C4.18164 41.1473 14.8435 51.8092 27.9956 51.8092Z" fill="#009F55"/>
<path fill-rule="evenodd" clip-rule="evenodd" d="M27.9961 5.12523C15.3653 5.12523 5.12603 15.3645 5.12603 27.9953C5.12603 40.6261 15.3653 50.8653 27.9961 50.8653C40.6269 50.8653 50.8661 40.6261 50.8661 27.9953C50.8661 15.3645 40.6269 5.12523 27.9961 5.12523ZM3.23828 27.9953C3.23828 14.3219 14.3227 3.23749 27.9961 3.23749C41.6694 3.23749 52.7539 14.3219 52.7539 27.9953C52.7539 41.6686 41.6694 52.7531 27.9961 52.7531C14.3227 52.7531 3.23828 41.6686 3.23828 27.9953Z" fill="#231F20"/>
<path d="M38.3036 38.714C38.0478 38.8931 37.696 39.0147 37.2483 39.0786C36.8261 39.1426 36.5191 39.1298 36.3272 39.0402C36.2761 39.0147 36.2249 38.9251 36.1737 38.7716C36.1354 38.6053 36.0842 38.4902 36.0202 38.4262C35.9946 38.4006 35.9627 38.3814 35.9243 38.3687C35.4126 38.0872 34.8625 37.8442 34.2741 37.6395C32.8925 37.1278 31.4662 36.8144 29.9951 36.6993C29.2404 34.8956 28.831 33.9106 28.767 33.7443C28.3193 32.6058 28.1786 31.9534 28.3449 31.7871L42.7745 17.3575C42.864 17.2679 43.1391 17.2871 43.5996 17.415C44.0729 17.5557 44.3735 17.7029 44.5015 17.8564C44.6422 18.0227 44.8468 18.432 45.1155 19.0844C45.3969 19.724 45.6847 20.1909 45.9789 20.4852C46.3627 20.8689 47.0343 21.1951 47.9937 21.4638C48.8892 21.694 49.3817 21.9051 49.4712 22.097C49.6759 22.5063 49.791 23.2994 49.8166 24.4763C49.8678 25.6532 49.7974 26.3888 49.6055 26.683C49.516 26.8237 49.1962 26.9004 48.6461 26.9132C48.1089 26.9388 47.7571 26.8685 47.5908 26.7022C47.4501 26.5615 47.3669 26.4399 47.3413 26.3376C47.3157 26.2352 47.2838 26.1777 47.2454 26.1649C46.6825 25.8067 46.1325 25.4997 45.5952 25.2439C44.3288 24.617 43.2606 24.2908 42.3907 24.2652L39.263 27.3929C39.941 27.6104 40.7597 27.9558 41.7191 28.4291C41.9494 28.6082 42.0901 29.3246 42.1413 30.5782C42.218 31.8318 42.1413 32.5738 41.911 32.804C41.7703 32.9448 41.5145 33.0215 41.1435 33.0343C40.7725 33.0471 40.4783 32.9959 40.2608 32.8808C40.1329 32.7529 39.8963 32.5418 39.5509 32.2476C38.9752 31.851 37.7088 31.4033 35.7516 30.9044L33.7368 32.9192C34.3508 33.0727 35.1376 33.3221 36.097 33.6675C37.082 34.0129 37.6512 34.2624 37.8047 34.4159C37.9838 34.595 38.1501 35.3241 38.3036 36.6033C38.4827 37.8825 38.4827 38.5861 38.3036 38.714Z" fill="white"/>
<path fill-rule="evenodd" clip-rule="evenodd" d="M43.0226 17.7761L28.749 32.0497C28.751 32.1018 28.7609 32.1835 28.7863 32.3016C28.8486 32.5902 28.9847 33.0099 29.2055 33.5715L29.2062 33.5732L29.2068 33.5748C29.2645 33.7249 29.6332 34.6129 30.3196 36.2538C31.7308 36.389 33.1022 36.7029 34.4329 37.1953C35.032 37.4039 35.5952 37.6517 36.1219 37.9392C36.2042 37.9731 36.2837 38.023 36.3532 38.0925C36.5062 38.2455 36.5819 38.4557 36.6262 38.6375C36.7281 38.6515 36.9022 38.6536 37.1769 38.612L37.1788 38.6117L37.1808 38.6114C37.5255 38.5622 37.7742 38.4793 37.9479 38.3805C37.9577 38.3202 37.9653 38.2263 37.9653 38.0904C37.9653 37.7716 37.9241 37.3014 37.8355 36.6687L37.8349 36.6642L37.8343 36.6595C37.7584 36.0264 37.6807 35.5431 37.6029 35.202C37.5639 35.031 37.5272 34.9063 37.4948 34.8211C37.4792 34.78 37.4674 34.7558 37.4611 34.7437C37.4482 34.7348 37.4232 34.7184 37.3811 34.6949C37.3087 34.6545 37.2072 34.6049 37.0725 34.5459C36.8037 34.4281 36.4278 34.2839 35.9401 34.1129L35.9382 34.1122L35.9364 34.1115C34.9841 33.7687 34.2139 33.5251 33.6216 33.377L32.813 33.1748L35.6071 30.3807L35.8674 30.4471C36.8537 30.6985 37.6744 30.9391 38.3259 31.1694C38.9693 31.3969 39.4775 31.6244 39.8179 31.8589L39.8378 31.8726L39.8562 31.8883C40.1568 32.1444 40.3852 32.346 40.5335 32.4881C40.6549 32.5375 40.8439 32.5724 41.1265 32.5626C41.286 32.5571 41.3999 32.5383 41.4773 32.5151C41.5342 32.498 41.5614 32.4816 41.5716 32.4743C41.5764 32.4658 41.5889 32.4418 41.6042 32.3933C41.6296 32.3127 41.6539 32.1932 41.6711 32.0263C41.7057 31.6925 41.7072 31.2229 41.6695 30.607L41.6692 30.6022L41.669 30.5974C41.6438 29.9802 41.5971 29.5153 41.5336 29.1917C41.5017 29.0295 41.4683 28.9172 41.4383 28.8448C41.4323 28.8302 41.4269 28.8186 41.4224 28.8095C40.5129 28.3642 39.746 28.0437 39.1182 27.8423L38.3817 27.6061L42.2003 23.7875L42.4039 23.7935C43.3703 23.8219 44.5081 24.1799 45.8006 24.8193C46.3479 25.0801 46.9052 25.3908 47.4725 25.7505C47.6048 25.8197 47.6767 25.9285 47.71 25.9884C47.7523 26.0647 47.7785 26.1453 47.796 26.2136C47.7981 26.2175 47.8027 26.2259 47.8116 26.239C47.832 26.2687 47.8667 26.3113 47.9222 26.3669C47.9224 26.3667 47.9567 26.394 48.0712 26.4169C48.1955 26.4417 48.3757 26.4536 48.623 26.4418L48.6287 26.4415L48.6344 26.4414C48.8951 26.4354 49.0747 26.4143 49.1877 26.3872C49.2065 26.3826 49.2218 26.3783 49.234 26.3745C49.2646 26.2965 49.3055 26.1401 49.3317 25.8657C49.364 25.5285 49.3695 25.0746 49.3444 24.4968L49.3442 24.4917L49.3441 24.4866C49.3315 23.9094 49.2972 23.4375 49.2433 23.0666C49.1925 22.7168 49.1279 22.4831 49.0639 22.3408C49.0624 22.3398 49.0609 22.3386 49.0592 22.3375C49.022 22.3117 48.9553 22.2745 48.8481 22.2285C48.6342 22.1369 48.314 22.0336 47.8755 21.9208L47.8706 21.9196L47.8657 21.9182C46.8836 21.6432 46.1158 21.2901 45.6445 20.8189C45.2901 20.4645 44.974 19.9363 44.6828 19.2745L44.6805 19.2693L44.6784 19.2641C44.5464 18.9435 44.4329 18.6896 44.3377 18.4991C44.2379 18.2997 44.1722 18.1987 44.1405 18.1612L44.1393 18.1598L44.1383 18.1587C44.1383 18.1587 44.1287 18.148 44.1014 18.1288C44.0727 18.1086 44.0307 18.0836 43.9719 18.0548C43.854 17.9971 43.6886 17.9342 43.4685 17.8686C43.2587 17.8105 43.1137 17.7834 43.0226 17.7761ZM49.0815 22.3548C49.0814 22.3548 49.0806 22.3541 49.0792 22.3526C49.0809 22.3541 49.0816 22.3548 49.0815 22.3548ZM49.2731 26.3597C49.273 26.3597 49.273 26.3598 49.273 26.3598C49.2739 26.3593 49.2739 26.3593 49.2731 26.3597ZM37.9328 38.4442C37.9327 38.4439 37.9337 38.4405 37.9363 38.4348C37.9343 38.4416 37.933 38.4444 37.9328 38.4442ZM28.7508 31.9944C28.751 31.9946 28.7507 31.9972 28.7497 32.0019C28.7502 31.9966 28.7507 31.9943 28.7508 31.9944ZM43.0801 16.8339C43.264 16.8467 43.4831 16.8931 43.7252 16.9603L43.7293 16.9614L43.7334 16.9626C43.9845 17.0373 44.2048 17.1179 44.3868 17.207C44.5612 17.2923 44.7362 17.4024 44.862 17.5527C44.9706 17.6815 45.0773 17.8678 45.1819 18.077C45.2907 18.2947 45.4132 18.5699 45.549 18.8994C45.8198 19.514 46.0785 19.918 46.3119 20.1514C46.6077 20.4472 47.1816 20.746 48.1155 21.008C48.5702 21.125 48.9422 21.242 49.2199 21.361C49.3589 21.4205 49.4881 21.4864 49.5964 21.5614C49.6955 21.63 49.8203 21.7354 49.8948 21.8904C50.0293 22.1612 50.1175 22.5184 50.1774 22.931C50.2385 23.352 50.2745 23.8635 50.2876 24.4609C50.3134 25.0578 50.3093 25.5583 50.2713 25.9556C50.2353 26.3321 50.1635 26.6891 50.0013 26.9389C49.8506 27.1735 49.5856 27.2623 49.4079 27.305C49.2025 27.3543 48.9491 27.378 48.6621 27.3849C48.3743 27.3983 48.112 27.3876 47.8861 27.3424C47.6635 27.2979 47.4316 27.2111 47.2563 27.0359C47.1121 26.8916 46.9646 26.7124 46.8975 26.5038C46.382 26.1802 45.88 25.9025 45.3916 25.6699L45.3883 25.6684L45.3851 25.6668C44.2495 25.1047 43.3169 24.811 42.5743 24.7484L40.1232 27.1995C40.6635 27.4099 41.2653 27.6793 41.9272 28.0059L41.9703 28.0271L42.0082 28.0566C42.1598 28.1745 42.251 28.3404 42.3103 28.4835C42.3731 28.635 42.4212 28.8137 42.4597 29.0097C42.5367 29.4015 42.5859 29.9199 42.6119 30.5542C42.6507 31.1898 42.6521 31.7163 42.61 32.1234C42.5889 32.3275 42.5555 32.5151 42.5042 32.6775C42.4547 32.8344 42.3771 33.0046 42.244 33.1377C41.9708 33.411 41.5576 33.4922 41.159 33.5059C40.7443 33.5202 40.3576 33.4664 40.0393 33.2979L39.9766 33.2647L39.9264 33.2145C39.8155 33.1036 39.5983 32.9089 39.2636 32.6234C39.0254 32.4639 38.618 32.2738 38.0113 32.0593C37.4521 31.8616 36.7473 31.6513 35.894 31.4287L34.6407 32.6819C35.1147 32.8257 35.6529 33.0063 36.2543 33.2228C36.7507 33.3969 37.1514 33.5499 37.4514 33.6814C37.6014 33.7471 37.7325 33.8102 37.8407 33.8705C37.9414 33.9266 38.0521 33.9965 38.1377 34.0821C38.2554 34.1998 38.328 34.3565 38.377 34.4856C38.431 34.6274 38.479 34.7985 38.5232 34.9921C38.6115 35.3792 38.6936 35.8985 38.7709 36.5424C38.861 37.1869 38.9092 37.7066 38.9092 38.0904C38.9092 38.2811 38.8975 38.4587 38.865 38.6095C38.838 38.735 38.774 38.9575 38.5772 39.0981L38.5754 39.0994L38.5735 39.1007C38.2364 39.3366 37.806 39.4753 37.3163 39.5455C36.8798 39.6115 36.4528 39.62 36.1269 39.4679L36.1212 39.4652L36.1155 39.4623C35.963 39.3861 35.8796 39.2573 35.84 39.188C35.7929 39.1056 35.7558 39.0125 35.7253 38.9208L35.7182 38.8996L35.7132 38.8777C35.7027 38.8323 35.6925 38.7989 35.6839 38.7754C35.2003 38.5104 34.6787 38.2801 34.1183 38.0852L34.1139 38.0837L34.1095 38.082C32.7688 37.5855 31.3853 37.2815 29.9576 37.1698L29.6703 37.1473L29.559 36.8814C28.8092 35.0896 28.3958 34.0951 28.3265 33.9155C28.1 33.3392 27.942 32.864 27.8637 32.5006C27.8248 32.3203 27.8004 32.1452 27.8053 31.9882C27.8097 31.8476 27.8399 31.6239 28.0105 31.4533L42.4401 17.0237C42.5535 16.9103 42.6891 16.8661 42.7863 16.8473C42.8865 16.828 42.9881 16.8275 43.0801 16.8339Z" fill="#231F20"/>
<path d="M18.0958 38.7412C18.3527 38.921 18.706 39.0431 19.1555 39.1073C19.5794 39.1715 19.8877 39.1587 20.0803 39.0688C20.1317 39.0431 20.1831 38.9532 20.2345 38.799C20.273 38.632 20.3244 38.5164 20.3886 38.4522C20.4143 38.4265 20.4464 38.4073 20.4849 38.3944C20.9987 38.1118 21.551 37.8678 22.1419 37.6623C23.5291 37.1485 24.9613 36.8338 26.4384 36.7182C27.1962 34.9071 27.6072 33.9181 27.6714 33.7511C28.121 32.608 28.2623 31.9529 28.0953 31.7859L13.6067 17.2973C13.5168 17.2074 13.2406 17.2266 12.7782 17.3551C12.303 17.4964 12.0011 17.6441 11.8727 17.7982C11.7314 17.9652 11.5259 18.3762 11.2561 19.0313C10.9735 19.6735 10.6845 20.1423 10.3891 20.4378C10.0038 20.8231 9.32944 21.1506 8.3661 21.4204C7.46699 21.6516 6.97247 21.8635 6.88256 22.0562C6.67705 22.4672 6.56145 23.2636 6.53576 24.4453C6.48438 25.6269 6.55502 26.3655 6.74769 26.6609C6.8376 26.8022 7.15872 26.8793 7.71103 26.8921C8.2505 26.9178 8.60373 26.8472 8.77071 26.6802C8.912 26.5389 8.99549 26.4169 9.02118 26.3141C9.04686 26.2114 9.07898 26.1536 9.11751 26.1407C9.68267 25.7811 10.235 25.4728 10.7745 25.2159C12.0461 24.5865 13.1186 24.259 13.992 24.2333L17.1325 27.3738C16.4517 27.5922 15.6297 27.939 14.6664 28.4142C14.4352 28.594 14.2939 29.3133 14.2425 30.5721C14.1654 31.8309 14.2425 32.5758 14.4737 32.807C14.615 32.9483 14.8719 33.0254 15.2444 33.0382C15.6168 33.0511 15.9123 32.9997 16.1306 32.8841C16.2591 32.7557 16.4967 32.5437 16.8435 32.2483C17.4215 31.8501 18.6931 31.4006 20.6583 30.8996L22.6813 32.9226C22.0648 33.0768 21.2749 33.3273 20.3115 33.6741C19.3225 34.0209 18.7509 34.2713 18.5968 34.4255C18.417 34.6053 18.25 35.3374 18.0958 36.6219C17.916 37.9063 17.916 38.6128 18.0958 38.7412Z" fill="white"/>
<path fill-rule="evenodd" clip-rule="evenodd" d="M13.5953 16.785C13.693 16.8039 13.8291 16.8483 13.943 16.9622L28.4316 31.4508C28.6029 31.6221 28.6332 31.8467 28.6376 31.9879C28.6425 32.1455 28.6181 32.3213 28.579 32.5024C28.5003 32.8673 28.3417 33.3445 28.1142 33.9231C28.0446 34.1036 27.6295 35.1021 26.8767 36.9011L26.765 37.1681L26.4766 37.1906C25.043 37.3028 23.6538 37.6081 22.3077 38.1067L22.3032 38.1083L22.2988 38.1098C21.7361 38.3056 21.2123 38.5368 20.7268 38.8029C20.7182 38.8264 20.7079 38.8599 20.6974 38.9056L20.6923 38.9275L20.6852 38.9489C20.6546 39.0409 20.6174 39.1344 20.57 39.2172C20.5303 39.2867 20.4465 39.4161 20.2935 39.4926L20.2877 39.4955L20.2819 39.4982C19.9547 39.6509 19.526 39.6423 19.0876 39.5761C18.596 39.5056 18.1638 39.3664 17.8253 39.1294L17.8235 39.1281L17.8216 39.1268C17.624 38.9857 17.5598 38.7623 17.5327 38.6363C17.5 38.4848 17.4883 38.3065 17.4883 38.1151C17.4883 37.7297 17.5366 37.2079 17.6271 36.5608C17.7048 35.9142 17.7872 35.3928 17.8759 35.0041C17.9202 34.8097 17.9685 34.6378 18.0226 34.4954C18.0719 34.3659 18.1448 34.2085 18.2629 34.0904C18.3489 34.0044 18.4601 33.9342 18.5611 33.8779C18.6698 33.8173 18.8015 33.754 18.9521 33.688C19.2533 33.556 19.6556 33.4024 20.154 33.2276C20.7579 33.0102 21.2983 32.8288 21.7742 32.6844L20.5158 31.4261C19.6591 31.6496 18.9514 31.8608 18.3899 32.0593C17.7807 32.2746 17.3716 32.4656 17.1325 32.6257C16.7963 32.9124 16.5783 33.1078 16.4669 33.2192L16.4165 33.2696L16.3536 33.3029C16.034 33.4721 15.6456 33.5262 15.2292 33.5118C14.8291 33.498 14.4142 33.4165 14.1398 33.1421C14.0062 33.0085 13.9283 32.8376 13.8785 32.68C13.827 32.5169 13.7935 32.3286 13.7723 32.1237C13.7301 31.7149 13.7315 31.1861 13.7704 30.548C13.7966 29.9111 13.8459 29.3906 13.9232 28.9972C13.9619 28.8004 14.0102 28.6209 14.0732 28.4689C14.1328 28.3251 14.2244 28.1586 14.3766 28.0402L14.4147 28.0106L14.4579 27.9892C15.1225 27.6614 15.7268 27.3908 16.2693 27.1796L13.8082 24.7184C13.0626 24.7813 12.1261 25.0762 10.9859 25.6406L10.9826 25.6422L10.9794 25.6438C10.489 25.8773 9.98495 26.1561 9.46726 26.481C9.39994 26.6905 9.25185 26.8704 9.107 27.0153C8.93106 27.1912 8.69812 27.2784 8.4747 27.3231C8.24779 27.3685 7.98446 27.3792 7.69548 27.3657C7.40731 27.3588 7.15289 27.335 6.94658 27.2855C6.76819 27.2427 6.50217 27.1534 6.35078 26.9179C6.18797 26.6671 6.11587 26.3087 6.0797 25.9306C6.04155 25.5317 6.03742 25.0291 6.06333 24.4298C6.07651 23.8299 6.11262 23.3163 6.17398 22.8936C6.23413 22.4793 6.32273 22.1206 6.45773 21.8487C6.53259 21.6931 6.65785 21.5873 6.75734 21.5184C6.86612 21.4431 6.99587 21.377 7.13543 21.3172C7.41424 21.1977 7.78778 21.0803 8.24431 20.9627C9.18201 20.6997 9.75829 20.3996 10.0553 20.1027C10.2896 19.8683 10.5494 19.4626 10.8214 18.8455C10.9577 18.5147 11.0806 18.2384 11.1899 18.0198C11.295 17.8097 11.4021 17.6226 11.5111 17.4933C11.6374 17.3424 11.8132 17.2319 11.9883 17.1462C12.171 17.0568 12.3922 16.9758 12.6444 16.9008L12.6485 16.8996L12.6526 16.8985C12.8957 16.831 13.1157 16.7844 13.3004 16.7716C13.3927 16.7651 13.4947 16.7656 13.5953 16.785ZM12.9104 17.8105C12.6893 17.8764 12.5233 17.9395 12.4049 17.9974C12.3459 18.0263 12.3037 18.0515 12.2749 18.0717C12.2474 18.091 12.2378 18.1018 12.2378 18.1017L12.2368 18.1029L12.2356 18.1043C12.2037 18.142 12.1377 18.2434 12.0376 18.4436C11.942 18.6349 11.8281 18.8898 11.6955 19.2117L11.6934 19.2169L11.6911 19.2221C11.3987 19.8866 11.0812 20.417 10.7254 20.7728C10.2522 21.246 9.48126 21.6005 8.49509 21.8767L8.49022 21.878L8.48533 21.8793C8.04501 21.9925 7.72345 22.0963 7.50876 22.1883C7.40105 22.2344 7.33413 22.2718 7.2968 22.2977C7.29509 22.2988 7.29349 22.3 7.292 22.301C7.22773 22.4439 7.16288 22.6785 7.11189 23.0298C7.05783 23.4022 7.02332 23.876 7.01072 24.4555L7.01061 24.4607L7.01039 24.4658C6.98517 25.046 6.99075 25.5018 7.02313 25.8403C7.04949 26.1159 7.09047 26.2729 7.12124 26.3512C7.13347 26.3551 7.14884 26.3594 7.16776 26.3639C7.2812 26.3911 7.46148 26.4123 7.72326 26.4184L7.72903 26.4185L7.73478 26.4188C7.98301 26.4306 8.16403 26.4187 8.28883 26.3938C8.40311 26.3709 8.43784 26.3436 8.4384 26.3436C8.49412 26.2877 8.52901 26.245 8.54942 26.2151C8.55837 26.202 8.56304 26.1936 8.56509 26.1897C8.58273 26.121 8.60896 26.0402 8.6515 25.9636C8.68494 25.9034 8.75709 25.7941 8.88995 25.7247C9.45953 25.3635 10.0191 25.0515 10.5687 24.7896C11.8665 24.1476 13.0089 23.7882 13.9793 23.7596L14.1837 23.7536L18.0179 27.5878L17.2784 27.825C16.6481 28.0272 15.878 28.3491 14.9648 28.7962C14.9602 28.8053 14.9549 28.817 14.9488 28.8316C14.9187 28.9043 14.8852 29.0171 14.8532 29.1799C14.7893 29.5048 14.7425 29.9717 14.7172 30.5914L14.717 30.5962L14.7167 30.6011C14.6788 31.2195 14.6804 31.691 14.715 32.0261C14.7324 32.1937 14.7567 32.3137 14.7823 32.3946C14.7976 32.4433 14.8102 32.4674 14.815 32.476C14.8253 32.4833 14.8525 32.4998 14.9097 32.5169C14.9874 32.5402 15.1018 32.5591 15.2619 32.5647C15.5457 32.5744 15.7355 32.5395 15.8574 32.4898C16.0062 32.3471 16.2356 32.1447 16.5374 31.8876L16.5559 31.8718L16.5759 31.8581C16.9177 31.6226 17.4279 31.3941 18.074 31.1657C18.7281 30.9345 19.5522 30.6929 20.5425 30.4404L20.8039 30.3738L23.6094 33.1794L22.7975 33.3824C22.2027 33.531 21.4295 33.7757 20.4732 34.1199L20.4714 34.1206L20.4695 34.1212C19.9799 34.2929 19.6024 34.4377 19.3325 34.556C19.1973 34.6153 19.0954 34.6651 19.0226 34.7057C18.9803 34.7293 18.9553 34.7457 18.9423 34.7547C18.936 34.7668 18.9241 34.7911 18.9085 34.8323C18.8759 34.9179 18.8391 35.0431 18.7999 35.2148C18.7218 35.5573 18.6438 36.0426 18.5675 36.6783L18.567 36.683L18.5663 36.6876C18.4774 37.3228 18.4361 37.7949 18.4361 38.1151C18.4361 38.2515 18.4437 38.3458 18.4535 38.4064C18.628 38.5055 18.8777 38.5887 19.2237 38.6382L19.2257 38.6385L19.2277 38.6388C19.5035 38.6805 19.6783 38.6785 19.7806 38.6644C19.8251 38.4818 19.9011 38.2708 20.0547 38.1171C20.1245 38.0474 20.2043 37.9973 20.287 37.9632C20.8158 37.6745 21.3814 37.4258 21.9829 37.2163C23.319 36.7219 24.6961 36.4067 26.113 36.271C26.8022 34.6233 27.1724 33.7317 27.2304 33.581L27.231 33.5794L27.2317 33.5777C27.4534 33.0138 27.5901 32.5924 27.6526 32.3025C27.6782 32.184 27.688 32.1019 27.6901 32.0496L13.3581 17.7176C13.2666 17.725 13.121 17.7522 12.9104 17.8105ZM27.6882 31.9941C27.6884 31.994 27.6889 31.9964 27.6894 32.0016C27.6883 31.9969 27.6881 31.9943 27.6882 31.9941ZM18.4686 38.4703C18.4685 38.4706 18.4672 38.4677 18.4652 38.4608C18.4677 38.4666 18.4688 38.47 18.4686 38.4703ZM7.27435 22.315C7.2743 22.315 7.27501 22.3143 7.27665 22.3129C7.27522 22.3143 7.27441 22.3151 7.27435 22.315Z" fill="#231F20"/>
<path d="M63 34.6828H80.6767V29.9421H68.5125V23.9886H78.0675V19.4683H68.5125V13.6986H80.2725V8.95782H63V34.6828Z" fill="white"/>
<path d="M81.7531 34.6828H86.9349V8.95782H81.7531V34.6828Z" fill="white"/>
<path d="M88.7083 34.6828H93.8901V30.0891L96.7198 27.0388L101.497 34.6828H107.488L100.321 23.2168L107.12 15.7933H101.277L93.8901 23.8048V8.95782H88.7083V34.6828Z" fill="white"/>
<path d="M63 46.9644H64.9372V43.2826H68.2434V41.688H64.9372V39.5619H68.9666V37.8895H63V46.9644Z" fill="white"/>
<path d="M70.5415 39.5878C71.1356 39.5878 71.6005 39.1471 71.6005 38.5637C71.6005 37.9673 71.1356 37.5266 70.5415 37.5266C69.9474 37.5266 69.4825 37.9673 69.4825 38.5637C69.4825 39.1471 69.9474 39.5878 70.5415 39.5878ZM69.6246 46.9644H71.4585V40.3009H69.6246V46.9644Z" fill="white"/>
<path d="M76.2661 40.2231C75.2458 40.2231 74.6388 40.612 74.2126 41.1306L74.0447 40.3009H72.4562V46.9644H74.2772V43.5548C74.2772 42.401 74.8196 41.7269 75.7624 41.7269C76.6793 41.7269 77.1055 42.3233 77.1055 43.4511V46.9644H78.9265V43.2696C78.9265 40.988 77.6996 40.2231 76.2661 40.2231Z" fill="white"/>
<path d="M86.1438 45.4217C85.8597 45.4217 85.7176 45.3568 85.7176 45.0068V42.6474C85.7176 41.0528 84.6457 40.2231 82.786 40.2231C81.0296 40.2231 79.8414 41.0787 79.7123 42.3751H81.4687C81.5462 41.8825 82.024 41.5584 82.7343 41.5584C83.4963 41.5584 83.9225 41.9473 83.9225 42.5436V42.8677H82.6052C80.6163 42.8677 79.5573 43.6715 79.5573 45.0846C79.5573 46.3551 80.5905 47.0422 82.024 47.0422C83.0572 47.0422 83.7288 46.6144 84.1937 45.8754C84.1808 46.5106 84.4778 46.9644 85.4206 46.9644H86.3505V45.4217H86.1438ZM83.9225 44.216C83.9096 45.1235 83.3284 45.7198 82.3727 45.7198C81.7657 45.7198 81.3912 45.4217 81.3912 44.955C81.3912 44.3975 81.8303 44.0864 82.5923 44.0864H83.9225V44.216Z" fill="white"/>
<path d="M90.6065 40.2231C89.5862 40.2231 88.9792 40.612 88.553 41.1306L88.3852 40.3009H86.7966V46.9644H88.6176V43.5548C88.6176 42.401 89.16 41.7269 90.1028 41.7269C91.0198 41.7269 91.4459 42.3233 91.4459 43.4511V46.9644H93.2669V43.2696C93.2669 40.988 92.04 40.2231 90.6065 40.2231Z" fill="white"/>
<path d="M97.2562 47.0422C99.0642 47.0422 100.265 46.0439 100.524 44.4494H98.6122C98.4831 45.1235 98.0052 45.5513 97.2949 45.5513C96.3392 45.5513 95.7322 44.7735 95.7322 43.6326C95.7322 42.5048 96.3392 41.7139 97.2949 41.7139C98.0052 41.7139 98.4572 42.1288 98.6122 42.79H100.511C100.252 41.2083 99.1288 40.2231 97.3207 40.2231C95.2156 40.2231 93.8725 41.5713 93.8725 43.6326C93.8725 45.7328 95.1511 47.0422 97.2562 47.0422Z" fill="white"/>
<path d="M104.506 47.0422C106.275 47.0422 107.424 46.005 107.631 44.7086H105.836C105.681 45.3309 105.164 45.655 104.428 45.655C103.511 45.655 102.904 45.0846 102.866 44.1382V44.0475H107.683C107.721 43.8401 107.734 43.6197 107.734 43.4252C107.709 41.4676 106.365 40.2231 104.377 40.2231C102.323 40.2231 100.967 41.5713 100.967 43.6456C100.967 45.7069 102.297 47.0422 104.506 47.0422ZM102.904 42.8548C103.008 42.064 103.602 41.5843 104.389 41.5843C105.216 41.5843 105.771 42.038 105.9 42.8548H102.904Z" fill="white"/>
</svg>
