<svg width="172" height="46" viewBox="0 0 172 46" fill="none" xmlns="http://www.w3.org/2000/svg">
<g clip-path="url(#clip0_167:8060)">
<path d="M5.69735 21.4287H23.9606V9.79883H29.1579V38.2678H23.9606V26.6295H5.69735V38.2678H0.5V9.79883H5.69735V21.4287Z" fill="white"/>
<path d="M56.8861 31.1611C56.8741 31.9465 56.7446 32.7258 56.502 33.4735C56.238 34.3454 55.7996 35.1556 55.2131 35.8556C54.6266 36.5556 53.9039 37.1311 53.0884 37.5478C52.0542 38.0523 50.9119 38.2994 49.76 38.2678H40.3724C39.5809 38.2572 38.7955 38.1287 38.0425 37.8866C37.1981 37.6291 36.4105 37.2152 35.7212 36.6669C34.9743 36.0662 34.3636 35.3157 33.929 34.4646C33.4237 33.4374 33.1777 32.3037 33.2122 31.1611C33.2209 30.3705 33.3474 29.5856 33.5877 28.8318C34.0179 27.3955 34.9191 26.1429 36.1482 25.2729C37.3774 24.4028 38.864 23.965 40.3724 24.0291H49.76V28.9504H40.3724C40.0665 28.9332 39.7606 28.9827 39.476 29.0954C39.1915 29.2081 38.9353 29.3812 38.7253 29.6026C38.3344 30.0406 38.1268 30.6102 38.1449 31.195C38.1303 31.4923 38.1833 31.7891 38.3 32.0633C38.4167 32.3375 38.5942 32.5821 38.8192 32.779C39.262 33.151 39.8264 33.3498 40.4065 33.338H49.7515C50.0547 33.3566 50.3584 33.3094 50.6414 33.1997C50.9243 33.09 51.1798 32.9204 51.39 32.7027C51.7804 32.2678 51.988 31.701 51.9704 31.1188V23.9105C51.9844 23.6133 51.9355 23.3165 51.8267 23.0393C51.7179 22.7621 51.5517 22.5106 51.3388 22.3011C51.1272 22.1026 50.8778 21.948 50.6052 21.8462C50.3327 21.7444 50.0425 21.6975 49.7515 21.7082H38.2815V16.8462H49.7003C50.4916 16.8581 51.2768 16.9866 52.0301 17.2274C52.8766 17.4798 53.6652 17.8941 54.3514 18.4471C55.0953 19.0508 55.7055 19.8006 56.1436 20.6494C56.6489 21.6765 56.895 22.8103 56.8605 23.9528L56.8861 31.1611Z" fill="white"/>
<path d="M82.2236 31.0172C82.2345 31.8283 82.1223 32.6364 81.8908 33.4144C81.6832 34.0763 81.3784 34.7042 80.9862 35.2779C80.6264 35.7979 80.189 36.2606 79.689 36.6501C78.7499 37.3675 77.6582 37.8629 76.4972 38.0985C75.9806 38.2061 75.4546 38.2628 74.9269 38.2679H60.8454V33.101H74.8842C75.174 33.1224 75.4651 33.0862 75.7406 32.9946C76.0161 32.9029 76.2704 32.7577 76.4886 32.5673C76.6784 32.3579 76.8237 32.1128 76.9161 31.8465C77.0085 31.5802 77.0459 31.2982 77.0263 31.0172C77.053 30.7378 77.017 30.4559 76.9207 30.1919C76.8244 29.9279 76.6702 29.6884 76.4694 29.4907C76.2686 29.293 76.0261 29.142 75.7593 29.0486C75.4926 28.9552 75.2082 28.9216 74.9269 28.9505H66.862C65.8559 28.9809 64.8565 28.7779 63.9433 28.3576C63.1966 28.0016 62.5336 27.4937 61.9975 26.8668C61.5124 26.3028 61.1441 25.6494 60.9137 24.944C60.395 23.3528 60.4985 21.6262 61.2039 20.1074C61.5677 19.394 62.075 18.762 62.6944 18.2507C63.3138 17.7394 64.0322 17.3594 64.8053 17.1343C65.4708 16.9246 66.1639 16.8133 66.862 16.804H79.6634V21.9285H66.9047C66.6903 21.9218 66.4764 21.9534 66.2732 22.0217C66.1389 22.0668 66.0205 22.1491 65.9318 22.2589C65.8646 22.3549 65.8207 22.4651 65.8038 22.5808C65.8038 22.6909 65.8038 22.801 65.8038 22.9026C65.8037 23.0762 65.8446 23.2474 65.9233 23.4024C65.9803 23.5083 66.066 23.5964 66.1708 23.6565C66.2754 23.7141 66.3925 23.746 66.5121 23.7497H74.9439C76.1228 23.7124 77.2935 23.9564 78.3576 24.4612C79.2322 24.8923 80.0034 25.5047 80.6192 26.2569C81.1787 26.9593 81.6038 27.7573 81.8737 28.6117C82.1093 29.392 82.2272 30.2026 82.2236 31.0172Z" fill="white"/>
<path d="M91.1942 38.2679H85.9883V7.73218H91.1942V38.2679ZM109.969 38.2679H104.772V24.0292C104.818 23.7406 104.795 23.4453 104.703 23.1676C104.611 22.8899 104.454 22.638 104.245 22.4326C104.035 22.2273 103.78 22.0744 103.499 21.9867C103.218 21.8991 102.92 21.8791 102.63 21.9285H93.2424V16.8463H102.63C103.731 16.858 104.817 17.0945 105.822 17.5409C106.375 17.7852 106.897 18.0952 107.375 18.4641C107.875 18.8538 108.312 19.3164 108.672 19.8363C109.05 20.408 109.338 21.0336 109.526 21.6914C109.766 22.4618 109.881 23.2652 109.867 24.0715L109.969 38.2679Z" fill="white"/>
<path d="M141.169 38.2678H122.393C121.591 38.2548 120.795 38.1264 120.029 37.8867C119.168 37.6306 118.365 37.2105 117.665 36.65C116.822 35.9775 116.15 35.1168 115.705 34.138C115.261 33.1591 115.055 32.0898 115.105 31.0172V12.3824C115.104 12.0342 115.171 11.6891 115.301 11.3659C115.429 11.0507 115.618 10.7631 115.856 10.5189C116.1 10.2775 116.39 10.0873 116.71 9.95982C117.04 9.82541 117.394 9.75913 117.751 9.76501H141.169V14.9235H120.328V31.0172C120.308 31.2989 120.345 31.5818 120.439 31.8484C120.533 32.115 120.681 32.3596 120.874 32.5673C121.088 32.7569 121.338 32.9019 121.609 32.9935C121.88 33.0852 122.167 33.1217 122.453 33.1009H141.169V38.2678ZM138.83 26.6295H122.41V21.4287H138.83V26.6295Z" fill="white"/>
<path d="M170.315 16.8462L160.978 27.0106L171.501 38.3525H164.341L157.42 30.8647L150.498 38.3525H143.312L153.818 26.9768L144.516 16.8462H151.633L157.377 23.0634L163.155 16.8462H170.315Z" fill="white"/>
</g>
<defs>
<clipPath id="clip0_167:8060">
<rect width="171" height="45" fill="white" transform="translate(0.5 0.5)"/>
</clipPath>
</defs>
</svg>
