<?xml version="1.0" encoding="UTF-8" standalone="no"?>
<svg
   width="21.333364"
   height="16"
   viewBox="0 0 21.333364 16"
   fill="none"
   version="1.1"
   id="svg826"
   xmlns="http://www.w3.org/2000/svg"
   xmlns:svg="http://www.w3.org/2000/svg">
  <defs
     id="defs830" />
  <path
     d="M 0,0.5 C 0,0.223858 0.223858,0 0.5,0 h 20.333364 c 0.2761,0 0.5,0.223858 0.5,0.5 v 1.66667 c 0,0.27614 -0.2239,0.5 -0.5,0.5 H 0.5 c -0.276143,0 -0.5,-0.22386 -0.5,-0.5 z m 0,6.66667 c 0,-0.27615 0.223858,-0.5 0.5,-0.5 h 20.333364 c 0.2761,0 0.5,0.22385 0.5,0.5 v 1.66666 c 0,0.27615 -0.2239,0.5 -0.5,0.5 H 0.5 c -0.276143,0 -0.5,-0.22385 -0.5,-0.5 z m 0,6.66663 c 0,-0.2761 0.223858,-0.5 0.5,-0.5 h 20.333364 c 0.2761,0 0.5,0.2239 0.5,0.5 V 15.5 c 0,0.2761 -0.2239,0.5 -0.5,0.5 H 0.5 C 0.223857,16 0,15.7761 0,15.5 Z"
     fill="#ffffff"
     id="path824" />
</svg>
