<svg width="146" height="33" viewBox="0 0 146 33" fill="none" xmlns="http://www.w3.org/2000/svg">
<g clip-path="url(#clip0_167:8119)">
<path d="M57.3407 10.1976C58.2294 10.7379 58.9814 11.4808 59.4598 12.4939C60.0068 13.507 60.2802 14.7228 60.2802 16.0735C60.2802 17.4243 60.0068 18.5725 59.3915 19.5856C58.8446 20.5987 58.0242 21.3417 56.9987 21.8143C55.9734 22.3547 54.7428 22.6249 53.4439 22.6249C52.6919 22.6249 52.0082 22.4897 51.3246 22.2197C50.6409 22.0171 50.0257 21.6117 49.5471 21.1391V28.1632H45.582V9.65724H49.0002L49.3421 11.1431C50.846 9.92741 52.4868 9.31954 54.1958 9.31954C55.358 9.31954 56.4518 9.5897 57.3407 10.1976ZM55.153 18.5725C55.8366 17.9647 56.1784 17.1541 56.1784 16.1411C56.1784 15.128 55.8366 14.3175 55.2213 13.6421C54.6061 12.9667 53.7857 12.6965 52.897 12.6965C52.145 12.6965 51.4613 12.8316 50.9144 13.1693C50.3675 13.4395 49.9573 13.9122 49.6156 14.5202V17.5593C49.8205 18.1673 50.2308 18.64 50.7094 18.9778C51.2563 19.3154 51.8715 19.518 52.6236 19.518C53.6489 19.518 54.4693 19.1804 55.153 18.5725Z" fill="white"/>
<path d="M62.6035 12.5601C63.2189 11.6145 64.0392 10.804 65.133 10.2637C66.2268 9.7234 67.4574 9.38569 68.8247 9.38569C70.192 9.38569 71.4225 9.65585 72.5163 10.2637C73.5418 10.804 74.3622 11.6145 74.9774 12.6276C75.5927 13.6407 75.8661 14.7214 75.8661 16.0046C75.8661 17.2879 75.5927 18.3685 74.9774 19.3816C74.3622 20.3946 73.6101 21.2051 72.5163 21.7455C71.4908 22.2857 70.192 22.6235 68.8247 22.6235C67.4574 22.6235 66.2268 22.3533 65.133 21.8131C64.0392 21.2727 63.2189 20.5298 62.6035 19.5166C62.0566 18.5035 61.7148 17.3553 61.7148 16.0046C61.7148 14.7214 62.0566 13.5732 62.6035 12.5601ZM66.6371 18.436C67.184 19.1114 67.936 19.3816 68.8247 19.3816C69.7134 19.3816 70.4655 19.0439 71.0124 18.436C71.5593 17.8281 71.8327 16.9501 71.8327 16.0046C71.8327 14.9915 71.5593 14.181 71.0124 13.5732C70.397 12.8978 69.7134 12.5601 68.7564 12.5601C67.8675 12.5601 67.184 12.8978 66.5687 13.5056C66.0218 14.181 65.7484 14.9915 65.7484 16.0046C65.7484 16.9501 66.0218 17.7607 66.6371 18.436Z" fill="white"/>
<path d="M82.2932 0.0659676V22.2866H78.3281V0.0659676H82.2932Z" fill="white"/>
<path d="M98.5633 9.99405L90.4964 28.2298H86.6682L89.676 21.6784L83.9336 9.99405H88.4455L91.727 17.2883L95.0085 9.99405H98.5633Z" fill="white"/>
<path d="M113.739 9.99355V22.2857C113.739 23.434 113.397 24.5146 112.714 25.4602C112.03 26.4057 111.141 27.1487 109.979 27.6889C108.817 28.2293 107.586 28.4994 106.219 28.4994C105.194 28.4994 104.305 28.3644 103.553 28.1618C102.801 27.8916 102.186 27.6214 101.707 27.3513C101.16 27.0135 100.613 26.6083 99.998 26.0681L102.322 23.3664C102.869 23.9068 103.485 24.312 104.032 24.5822C104.578 24.8522 105.33 25.0549 106.151 25.0549C107.176 25.0549 107.997 24.7848 108.68 24.312C109.364 23.8392 109.706 23.0963 109.706 22.2183V20.4622C109.296 21.0701 108.749 21.6104 107.928 22.0157C107.108 22.4209 106.151 22.6235 105.057 22.6235C103.963 22.6235 102.869 22.3533 101.912 21.7455C100.955 21.2051 100.203 20.3946 99.5879 19.3816C99.041 18.3685 98.6992 17.2879 98.6992 16.0722C98.6992 14.8564 98.9727 13.7082 99.5879 12.6951C100.203 11.682 100.955 10.8716 101.981 10.2637C102.938 9.65585 103.963 9.38569 105.057 9.38569C106.082 9.38569 106.971 9.52077 107.791 9.79092C108.612 10.0611 109.227 10.4663 109.637 10.9391L110.048 9.99355H113.739ZM109.706 17.5581V14.5187C109.432 13.9109 109.022 13.4381 108.407 13.1004C107.791 12.7627 107.108 12.5601 106.288 12.5601C105.33 12.5601 104.51 12.8978 103.826 13.5056C103.143 14.1135 102.801 14.924 102.801 15.937C102.801 16.8826 103.143 17.7607 103.826 18.436C104.51 19.1114 105.33 19.4492 106.288 19.4492C107.86 19.3816 109.022 18.7737 109.706 17.5581Z" fill="white"/>
<path d="M117.023 12.5614C117.639 11.5484 118.459 10.8054 119.553 10.1976C120.647 9.65724 121.877 9.31954 123.245 9.31954C124.612 9.31954 125.842 9.5897 126.936 10.1976C127.962 10.7379 128.782 11.5484 129.397 12.5614C129.944 13.5746 130.286 14.6552 130.286 15.9384C130.286 17.2217 130.013 18.3023 129.397 19.3154C128.85 20.3285 128.03 21.1391 126.936 21.6793C125.911 22.2197 124.612 22.5573 123.245 22.5573C121.877 22.5573 120.647 22.2871 119.553 21.7469C118.459 21.2065 117.639 20.4636 117.023 19.4506C116.408 18.4374 116.135 17.2893 116.135 15.8709C116.135 14.7228 116.408 13.5746 117.023 12.5614ZM120.989 18.4374C121.536 19.1128 122.287 19.383 123.176 19.383C124.065 19.383 124.817 19.0452 125.364 18.4374C125.911 17.8295 126.184 16.9515 126.184 16.006C126.184 14.9928 125.911 14.1824 125.364 13.5746C124.817 12.9667 124.065 12.629 123.176 12.629C122.287 12.629 121.604 12.9667 120.989 13.5746C120.373 14.1824 120.1 15.0604 120.1 16.006C120.168 16.9515 120.442 17.7619 120.989 18.4374Z" fill="white"/>
<path d="M144.3 10.3988C145.121 11.0742 145.462 11.9522 145.529 13.0328V22.2857H141.497V14.5187C141.428 13.303 140.813 12.6951 139.651 12.6951C138.762 12.6951 138.01 13.1004 137.463 13.9784C136.916 14.8564 136.643 15.937 136.643 17.2203V22.2857H132.678V9.99355H136.301L136.574 11.9522C137.053 11.1417 137.668 10.5339 138.489 10.0611C139.309 9.58831 140.266 9.38569 141.36 9.38569C142.522 9.38569 143.548 9.7234 144.3 10.3988Z" fill="white"/>
<path d="M28.6268 9.79249C27.943 9.38725 27.0543 9.38725 26.3024 9.79249L20.97 12.8993L17.3467 14.9256L12.0144 18.0323C11.3307 18.4375 10.442 18.4375 9.69002 18.0323L5.45147 15.6008C4.76783 15.1956 4.28929 14.4527 4.28929 13.6423V8.84693C4.28929 8.03645 4.69948 7.29352 5.45147 6.88828L9.62165 4.52439C10.3053 4.11915 11.194 4.11915 11.946 4.52439L16.1162 6.88828C16.7998 7.29352 17.2784 8.03645 17.2784 8.84693V11.9538L20.9016 9.86003V6.75321C20.9016 5.94272 20.4915 5.19978 19.7395 4.79455L12.0144 0.336928C11.3307 -0.0683106 10.442 -0.0683106 9.69002 0.336928L1.8282 4.79455C1.0762 5.19978 0.666016 5.94272 0.666016 6.75321V15.736C0.666016 16.5465 1.0762 17.2895 1.8282 17.6947L9.69002 22.1523C10.3736 22.5575 11.2624 22.5575 12.0144 22.1523L17.3467 19.113L20.97 17.0193L26.3024 13.98C26.986 13.5747 27.8747 13.5747 28.6268 13.98L32.7969 16.3438C33.4805 16.7491 33.9591 17.4921 33.9591 18.3025V23.0978C33.9591 23.9084 33.549 24.6512 32.7969 25.0564L28.6268 27.4879C27.943 27.8932 27.0543 27.8932 26.3024 27.4879L22.1323 25.124C21.4486 24.7188 20.97 23.9758 20.97 23.1653V20.0586L17.3467 22.1523V25.2591C17.3467 26.0695 17.757 26.8125 18.5089 27.2177L26.3708 31.6753C27.0543 32.0806 27.943 32.0806 28.6951 31.6753L36.557 27.2177C37.2406 26.8125 37.7192 26.0695 37.7192 25.2591V16.2763C37.7192 15.4658 37.3089 14.7229 36.557 14.3177L28.6268 9.79249Z" fill="white"/>
</g>
<defs>
<clipPath id="clip0_167:8119">
<rect width="144.863" height="32.0138" fill="white" transform="translate(0.666016)"/>
</clipPath>
</defs>
</svg>
