<svg width="58" height="40" viewBox="0 0 58 40" fill="none" xmlns="http://www.w3.org/2000/svg">
<path d="M56.4602 6.36369C56.1349 5.16178 55.5005 4.06605 54.6201 3.18561C53.7396 2.30517 52.6439 1.67074 51.442 1.34551C47.042 0.145508 29.3329 0.145508 29.3329 0.145508C29.3329 0.145508 11.6238 0.181871 7.22381 1.38187C6.02191 1.7071 4.92617 2.34153 4.04573 3.22197C3.16529 4.10241 2.53086 5.19815 2.20563 6.40005C0.874722 14.2182 0.358358 26.131 2.24199 33.6364C2.56723 34.8383 3.20165 35.9341 4.08209 36.8145C4.96254 37.6949 6.05827 38.3294 7.26018 38.6546C11.6602 39.8546 29.3693 39.8546 29.3693 39.8546C29.3693 39.8546 47.0784 39.8546 51.4784 38.6546C52.6803 38.3294 53.776 37.6949 54.6564 36.8145C55.5369 35.9341 56.1713 34.8383 56.4965 33.6364C57.9002 25.8073 58.3329 13.9019 56.4602 6.36369Z" fill="white"/>
<path d="M23.6953 28.5089L38.3862 19.9998L23.6953 11.4907V28.5089Z" fill="#192225"/>
</svg>
