<?xml version="1.0" encoding="UTF-8" standalone="no"?>
<svg
   width="24.623438"
   height="20"
   viewBox="0 0 24.623438 20"
   fill="none"
   version="1.1"
   id="svg826"
   xmlns="http://www.w3.org/2000/svg"
   xmlns:svg="http://www.w3.org/2000/svg">
  <defs
     id="defs830" />
  <path
     d="m 22.093681,4.9843317 c 0.01631,0.2192729 0.01631,0.4372906 0.01631,0.6553081 C 22.109995,12.311722 17.031689,20 7.7509058,20 4.8916127,20 2.2353088,19.171759 0,17.733369 c 0.40596079,0.04631 0.79688889,0.06262 1.2191439,0.06262 2.2716305,0.0055 4.4789384,-0.754116 6.2661562,-2.156345 C 6.4320497,15.620544 5.4110657,15.273074 4.564887,14.64571 3.7187005,14.01827 3.0895618,13.14229 2.7653171,12.140086 c 0.3119908,0.04631 0.6252294,0.07766 0.9535112,0.07766 0.4523264,0 0.9071562,-0.06262 1.3294037,-0.171632 C 3.9052177,11.815319 2.8774226,11.195773 2.1395986,10.292804 1.4017819,9.3898358 0.99948683,8.2591513 1.0011257,7.093058 V 7.0304343 C 1.6739731,7.4050485 2.4545737,7.63938 3.2815371,7.6707294 2.5887524,7.2103364 2.0206963,6.5856633 1.6280391,5.8523799 1.2353819,5.1191041 1.0303401,4.3000271 1.0311971,3.4682372 c 0,-0.9372275 0.2493445,-1.7967656 0.6866276,-2.54604699 C 2.9860105,2.4821663 4.5677206,3.7583737 6.3605169,4.6681536 8.1533357,5.5779334 10.117223,6.1010028 12.125015,6.2034785 12.047355,5.827586 11.999768,5.4379135 11.999768,5.0469853 11.999397,4.3841067 12.129751,3.7276707 12.383253,3.1151991 12.636755,2.5027202 13.008512,1.9462113 13.47725,1.4774961 13.945988,1.0087733 14.502459,0.63702322 15.114938,0.38350635 15.727417,0.12999099 16.383876,-3.2865748e-4 17.046724,6.2243831e-7 18.50015,6.2243831e-7 19.812014,0.60894405 20.734229,1.5937821 21.864086,1.3752834 22.947633,0.96281666 23.936832,0.3746428 23.560188,1.5409317 22.771265,2.5298894 21.717789,3.1562466 22.719918,3.0419453 23.699268,2.7784147 24.623437,2.3743904 23.933223,3.3806469 23.077918,4.2630543 22.093681,4.9843317 Z"
     fill="#ffffff"
     id="path824"
     style="stroke-width:0.751784" />
</svg>
