<?xml version="1.0" encoding="UTF-8" standalone="no"?>
<svg
   width="20"
   height="19.999994"
   viewBox="0 0 20 19.999994"
   fill="none"
   version="1.1"
   id="svg983"
   xmlns="http://www.w3.org/2000/svg"
   xmlns:svg="http://www.w3.org/2000/svg">
  <defs
     id="defs987" />
  <path
     d="m 7.670171,12.001028 c 0.552841,0 1.000981,-0.44814 1.000981,-1.00098 0,-0.552841 -0.44814,-1.001041 -1.000981,-1.001041 -0.55284,0 -1.00104,0.4482 -1.00104,1.001041 0,0.55284 0.4482,1.00098 1.00104,1.00098 z"
     fill="#ffffff"
     id="path977"
     style="stroke-width:0.6" />
  <path
     d="m 12.089474,13.391049 c -0.60702,0.435001 -1.3443,0.649861 -2.089981,0.609001 -0.745261,0.03342 -1.479481,-0.18888 -2.081041,-0.630001 -0.0519,-0.04146 -0.117301,-0.06228 -0.183661,-0.0585 -0.06636,0.0038 -0.12894,0.03186 -0.17586,0.0789 -0.04692,0.04704 -0.07488,0.10974 -0.07848,0.1761 -0.0035,0.0663 0.01746,0.131641 0.05904,0.183481 0.709981,0.53502 1.581961,0.80904 2.470982,0.77004 0.887581,0.03894 1.760881,-0.2334 2.469002,-0.77004 v 0.04002 c 0.05238,-0.05226 0.08226,-0.12282 0.0834,-0.1968 0.0011,-0.07392 -0.02664,-0.145441 -0.0774,-0.199201 -0.0258,-0.02622 -0.05652,-0.04704 -0.09036,-0.06138 -0.0339,-0.01434 -0.07026,-0.02184 -0.10704,-0.02214 -0.03678,-3e-4 -0.0732,0.0067 -0.10728,0.02052 -0.03408,0.0138 -0.0651,0.0342 -0.09132,0.06 z m 0.208981,-3.351002 c -0.265201,0 -0.519541,0.10536 -0.707101,0.29292 -0.1875,0.1875 -0.29286,0.441841 -0.29286,0.707101 0,0.2652 0.10536,0.51954 0.29286,0.7071 0.18756,0.1875 0.4419,0.29286 0.707101,0.29286 l -0.008,0.039 c 0.01602,0.002 0.033,0 0.051,0 0.2646,-0.01092 0.51402,-0.1263 0.6936,-0.32094 0.17958,-0.19458 0.27468,-0.45246 0.26442,-0.71706 1.2e-4,-0.13146 -0.02568,-0.26172 -0.07596,-0.383221 -0.05028,-0.1215 -0.12396,-0.2319 -0.21696,-0.3249 -0.093,-0.09294 -0.2034,-0.16668 -0.3249,-0.21696 -0.1215,-0.05022 -0.2517,-0.07602 -0.38322,-0.0759 z"
     fill="#ffffff"
     id="path979"
     style="stroke-width:0.6" />
  <path
     d="M 10.000033,0 C 4.4790091,0 0,4.4770231 0,10.000027 0,15.520991 4.4790091,19.999994 10.000033,19.999994 15.520997,19.999994 20,15.520991 20,10.000027 20,4.4770231 15.520997,0 10.000033,0 Z m 5.859004,11.329988 c 0.012,0.14604 0.012,0.29304 0,0.43902 0,2.239982 -2.609042,4.062003 -5.830024,4.062003 -3.220982,0 -5.8300241,-1.819981 -5.8300241,-4.062003 -0.012,-0.1461 -0.012,-0.29292 0,-0.43902 -0.2105401,-0.0966 -0.3951002,-0.24192 -0.5383803,-0.4239 -0.1433101,-0.18204 -0.2412302,-0.395581 -0.2856842,-0.622921 -0.044454,-0.2274 -0.03417,-0.46206 0.030006,-0.68466 0.064176,-0.2226 0.1804021,-0.426721 0.3390782,-0.595501 0.1312201,-0.13974 0.2887202,-0.2523 0.4634403,-0.33108 0.1747802,-0.07884 0.3633603,-0.1224 0.5550004,-0.12828 0.1916402,-0.0059 0.3825003,0.02616 0.5617204,0.09414 0.1792802,0.06804 0.3433203,0.1707 0.4828204,0.30222 C 6.959111,8.158986 8.314272,7.731485 9.706033,7.710005 l 0.74298,-3.469982 v -0.00402 c 0.01842,-0.08022 0.06762,-0.1499401 0.1371,-0.1941002 0.06942,-0.04419 0.153421,-0.059232 0.233881,-0.04188 l 2.449021,0.4899603 c 0.12006,-0.2056201 0.309481,-0.3616802 0.534241,-0.4402203 0.22476,-0.078564 0.47022,-0.074412 0.69216,0.0117 0.222,0.0861 0.40602,0.2485202 0.519061,0.4581004 0.11304,0.2095201 0.14766,0.4525203 0.09768,0.6853204 -0.04998,0.2328002 -0.181321,0.4401604 -0.370441,0.5848205 -0.18912,0.1447201 -0.4236,0.2172601 -0.66138,0.2046001 -0.23778,-0.01266 -0.46326,-0.1096201 -0.635941,-0.2735402 -0.17274,-0.1638601 -0.28134,-0.3840003 -0.30636,-0.6207604 L 10.999994,4.6500033 10.351033,7.770005 c 1.375141,0.02964 2.712302,0.456841 3.849963,1.230001 0.20328,-0.1947 0.45846,-0.32652 0.73494,-0.37956 0.276421,-0.05304 0.562261,-0.02508 0.823141,0.08058 0.26094,0.10572 0.4857,0.28452 0.64734,0.51498 0.161581,0.230461 0.253141,0.502741 0.263581,0.784021 0.01002,0.56298 -0.306961,1.080001 -0.810961,1.329961 z"
     fill="#ffffff"
     id="path981"
     style="stroke-width:0.6" />
</svg>
