<svg width="64" height="65" viewBox="0 0 64 65" fill="none" xmlns="http://www.w3.org/2000/svg">
<g clip-path="url(#clip0_515:728)">
<path d="M31.9943 63.9501C49.3666 63.9501 63.4496 49.8671 63.4496 32.4948C63.4496 15.1225 49.3666 1.03955 31.9943 1.03955C14.6221 1.03955 0.539062 15.1225 0.539062 32.4948C0.539062 49.8671 14.6221 63.9501 31.9943 63.9501Z" fill="white"/>
<path fill-rule="evenodd" clip-rule="evenodd" d="M31.9946 1.57871C14.9202 1.57871 1.07871 15.4202 1.07871 32.4946C1.07871 49.569 14.9202 63.4105 31.9946 63.4105C49.069 63.4105 62.9105 49.569 62.9105 32.4946C62.9105 15.4202 49.069 1.57871 31.9946 1.57871ZM0 32.4946C0 14.8245 14.3245 0.5 31.9946 0.5C49.6647 0.5 63.9892 14.8245 63.9892 32.4946C63.9892 50.1647 49.6647 64.4892 31.9946 64.4892C14.3245 64.4892 0 50.1647 0 32.4946Z" fill="#231F20"/>
<path d="M31.9952 59.7106C47.0261 59.7106 59.2111 47.5257 59.2111 32.4947C59.2111 17.4638 47.0261 5.27881 31.9952 5.27881C16.9643 5.27881 4.7793 17.4638 4.7793 32.4947C4.7793 47.5257 16.9643 59.7106 31.9952 59.7106Z" fill="#009F55"/>
<path fill-rule="evenodd" clip-rule="evenodd" d="M31.9938 6.35762C17.5587 6.35762 5.85664 18.0596 5.85664 32.4948C5.85664 46.93 17.5587 58.632 31.9938 58.632C46.429 58.632 58.131 46.93 58.131 32.4948C58.131 18.0596 46.429 6.35762 31.9938 6.35762ZM3.69922 32.4948C3.69922 16.8681 16.3672 4.2002 31.9938 4.2002C47.6205 4.2002 60.2885 16.8681 60.2885 32.4948C60.2885 48.1215 47.6205 60.7894 31.9938 60.7894C16.3672 60.7894 3.69922 48.1215 3.69922 32.4948Z" fill="#231F20"/>
<path d="M43.775 44.7447C43.4826 44.9493 43.0806 45.0882 42.5689 45.1613C42.0864 45.2344 41.7356 45.2198 41.5163 45.1175C41.4578 45.0882 41.3993 44.9859 41.3408 44.8104C41.297 44.6204 41.2385 44.4888 41.1654 44.4157C41.1362 44.3865 41.0996 44.3645 41.0558 44.3499C40.471 44.0283 39.8423 43.7505 39.1698 43.5166C37.5909 42.9318 35.9608 42.5736 34.2796 42.4421C33.417 40.3807 32.9492 39.255 32.8761 39.0649C32.3644 37.7638 32.2036 37.0182 32.3936 36.8281L48.8846 20.3371C48.9869 20.2348 49.3013 20.2567 49.8276 20.4029C50.3685 20.5637 50.712 20.7319 50.8582 20.9073C51.0191 21.0974 51.253 21.5652 51.56 22.3108C51.8816 23.0418 52.2106 23.5754 52.5468 23.9116C52.9854 24.3502 53.7529 24.723 54.8494 25.03C55.8728 25.2932 56.4356 25.5344 56.538 25.7537C56.7719 26.2215 56.9035 27.128 56.9327 28.473C56.9912 29.818 56.9108 30.6586 56.6915 30.9949C56.5892 31.1557 56.2237 31.2434 55.595 31.258C54.981 31.2873 54.5789 31.2069 54.3889 31.0168C54.2281 30.856 54.133 30.7171 54.1038 30.6001C54.0746 30.4832 54.038 30.4174 53.9942 30.4028C53.3509 29.9934 52.7223 29.6425 52.1082 29.3502C50.6609 28.6338 49.4401 28.261 48.446 28.2317L44.8715 31.8063C45.6463 32.0548 46.582 32.4495 47.6785 32.9904C47.9416 33.1951 48.1024 34.0138 48.1609 35.4466C48.2486 36.8793 48.1609 37.7272 47.8978 37.9904C47.7369 38.1512 47.4446 38.2389 47.0206 38.2535C46.5966 38.2681 46.2604 38.2097 46.0118 38.0781C45.8656 37.9319 45.5952 37.6907 45.2004 37.3544C44.5426 36.9012 43.0952 36.3895 40.8584 35.8194L38.5558 38.1219C39.2575 38.2974 40.1567 38.5825 41.2531 38.9772C42.3788 39.3719 43.0294 39.657 43.2049 39.8324C43.4095 40.0371 43.5996 40.8704 43.775 42.3324C43.9797 43.7944 43.9797 44.5985 43.775 44.7447Z" fill="white"/>
<path fill-rule="evenodd" clip-rule="evenodd" d="M49.1692 20.8154L32.8565 37.1281C32.8589 37.1876 32.8701 37.281 32.8992 37.4159C32.9704 37.7458 33.1259 38.2255 33.3783 38.8673L33.379 38.8692L33.3798 38.8711C33.4457 39.0426 33.8671 40.0574 34.6515 41.9328C36.2643 42.0873 37.8317 42.446 39.3524 43.0088C40.0371 43.2472 40.6808 43.5304 41.2828 43.8589C41.3768 43.8977 41.4677 43.9547 41.5471 44.0341C41.7219 44.209 41.8084 44.4492 41.8591 44.6571C41.9755 44.673 42.1745 44.6754 42.4884 44.6279L42.4906 44.6275L42.4929 44.6272C42.8868 44.5709 43.171 44.4762 43.3696 44.3633C43.3808 44.2944 43.3895 44.187 43.3895 44.0318C43.3895 43.6674 43.3424 43.13 43.2412 42.407L43.2404 42.4017L43.2398 42.3965C43.153 41.6729 43.0642 41.1205 42.9753 40.7307C42.9308 40.5353 42.8888 40.3928 42.8518 40.2954C42.8339 40.2484 42.8205 40.2208 42.8132 40.207C42.7985 40.1967 42.77 40.1781 42.7218 40.1512C42.639 40.105 42.523 40.0483 42.3692 39.9809C42.0619 39.8462 41.6323 39.6814 41.0749 39.486L41.0728 39.4852L41.0707 39.4845C39.9824 39.0927 39.1022 38.8142 38.4253 38.645L37.5011 38.414L40.6944 35.2207L40.9919 35.2965C42.1191 35.5838 43.0571 35.8588 43.8016 36.122C44.5369 36.382 45.1177 36.6421 45.5067 36.9101L45.5295 36.9257L45.5505 36.9436C45.894 37.2363 46.1551 37.4667 46.3245 37.6291C46.4633 37.6856 46.6793 37.7254 47.0023 37.7143C47.1845 37.708 47.3147 37.6865 47.4032 37.66C47.4683 37.6404 47.4992 37.6217 47.5109 37.6133C47.5164 37.6036 47.5307 37.5762 47.5482 37.5208C47.5773 37.4286 47.605 37.2921 47.6247 37.1014C47.6642 36.7199 47.666 36.1832 47.6229 35.4793L47.6225 35.4738L47.6223 35.4684C47.5935 34.763 47.5401 34.2316 47.4675 33.8617C47.4311 33.6764 47.3929 33.5481 47.3586 33.4653C47.3518 33.4487 47.3456 33.4354 47.3405 33.425C46.301 32.9161 45.4246 32.5498 44.707 32.3196L43.8654 32.0497L48.2295 27.6856L48.4621 27.6924C49.5666 27.7249 50.8669 28.134 52.3441 28.8647C52.9696 29.1628 53.6065 29.5179 54.2548 29.929C54.4061 30.008 54.4882 30.1325 54.5262 30.2009C54.5747 30.2881 54.6045 30.3802 54.6246 30.4583C54.6269 30.4628 54.6322 30.4724 54.6424 30.4873C54.6657 30.5212 54.7054 30.5699 54.7688 30.6335C54.769 30.6332 54.8082 30.6644 54.939 30.6906C55.0811 30.719 55.2871 30.7325 55.5697 30.7191L55.5762 30.7188L55.5828 30.7186C55.8807 30.7117 56.0859 30.6876 56.215 30.6566C56.2366 30.6514 56.2541 30.6465 56.268 30.6422C56.303 30.553 56.3497 30.3743 56.3797 30.0607C56.4165 29.6753 56.4229 29.1566 56.3942 28.4962L56.3939 28.4904L56.3938 28.4845C56.3794 27.8248 56.3402 27.2856 56.2786 26.8617C56.2206 26.4619 56.1468 26.1949 56.0736 26.0322C56.0719 26.031 56.0701 26.0297 56.0682 26.0284C56.0257 25.999 55.9495 25.9564 55.8269 25.9039C55.5826 25.7992 55.2165 25.6811 54.7154 25.5522L54.7098 25.5508L54.7043 25.5492C53.5818 25.2349 52.7043 24.8314 52.1657 24.2928C51.7607 23.8878 51.3994 23.2842 51.0666 22.5278L51.064 22.5219L51.0615 22.516C50.9107 22.1496 50.781 21.8594 50.6722 21.6417C50.5582 21.4138 50.4831 21.2984 50.4468 21.2555L50.4455 21.254L50.4444 21.2526C50.4443 21.2526 50.4334 21.2404 50.4021 21.2185C50.3693 21.1954 50.3213 21.1668 50.2541 21.1339C50.1194 21.068 49.9304 20.9961 49.6788 20.9211C49.439 20.8547 49.2733 20.8238 49.1692 20.8154ZM56.0937 26.0482C56.0936 26.0482 56.0927 26.0474 56.0911 26.0457C56.093 26.0474 56.0938 26.0482 56.0937 26.0482ZM56.3126 30.6253C56.3126 30.6253 56.3126 30.6253 56.3125 30.6253C56.3135 30.6247 56.3136 30.6247 56.3126 30.6253ZM43.3524 44.4361C43.3522 44.4358 43.3534 44.4319 43.3563 44.4253C43.354 44.4331 43.3525 44.4364 43.3524 44.4361ZM32.8586 37.0649C32.8588 37.0651 32.8585 37.0681 32.8573 37.0734C32.8579 37.0674 32.8585 37.0648 32.8586 37.0649ZM49.2349 19.7386C49.4451 19.7533 49.6955 19.8062 49.9722 19.8831L49.9769 19.8844L49.9815 19.8857C50.2685 19.9711 50.5203 20.0632 50.7283 20.165C50.9276 20.2625 51.1277 20.3884 51.2715 20.5601C51.3956 20.7072 51.5174 20.9202 51.637 21.1593C51.7614 21.4081 51.9014 21.7227 52.0565 22.0992C52.3661 22.8015 52.6617 23.2633 52.9285 23.5301C53.2665 23.8681 53.9224 24.2096 54.9897 24.509C55.5093 24.6427 55.9345 24.7764 56.2518 24.9124C56.4107 24.9805 56.5584 25.0558 56.6822 25.1415C56.7954 25.2199 56.938 25.3403 57.0232 25.5174C57.1769 25.827 57.2777 26.2352 57.3462 26.7067C57.416 27.1879 57.4571 27.7724 57.4721 28.4552C57.5016 29.1373 57.4969 29.7094 57.4535 30.1634C57.4123 30.5937 57.3302 31.0017 57.1449 31.2872C56.9726 31.5552 56.6698 31.6568 56.4668 31.7055C56.232 31.7619 55.9424 31.789 55.6144 31.7969C55.2855 31.8122 54.9857 31.8 54.7275 31.7483C54.4732 31.6975 54.2081 31.5982 54.0078 31.398C53.8429 31.2331 53.6744 31.0283 53.5977 30.7899C53.0085 30.4201 52.4348 30.1027 51.8766 29.8369L51.8729 29.8352L51.8693 29.8334C50.5714 29.191 49.5056 28.8553 48.6569 28.7837L45.8556 31.585C46.4732 31.8254 47.1609 32.1334 47.9174 32.5066L47.9666 32.5308L48.0099 32.5645C48.1832 32.6993 48.2874 32.8888 48.3552 33.0525C48.4269 33.2255 48.482 33.4298 48.526 33.6538C48.6139 34.1016 48.6701 34.6941 48.6999 35.419C48.7442 36.1453 48.7458 36.7471 48.6977 37.2124C48.6736 37.4456 48.6355 37.66 48.5768 37.8456C48.5202 38.0249 48.4315 38.2195 48.2794 38.3716C47.9671 38.6839 47.4949 38.7767 47.0395 38.7924C46.5655 38.8087 46.1235 38.7472 45.7598 38.5546L45.6881 38.5166L45.6307 38.4593C45.504 38.3325 45.2558 38.1101 44.8732 37.7838C44.601 37.6015 44.1354 37.3842 43.442 37.1391C42.8029 36.9131 41.9974 36.6727 41.0223 36.4183L39.59 37.8506C40.1316 38.015 40.7467 38.2214 41.434 38.4688C42.0014 38.6678 42.4592 38.8426 42.8021 38.9929C42.9735 39.068 43.1234 39.1401 43.2471 39.209C43.3621 39.2731 43.4886 39.353 43.5865 39.4509C43.721 39.5854 43.804 39.7645 43.86 39.9119C43.9217 40.074 43.9766 40.2696 44.027 40.4908C44.128 40.9333 44.2218 41.5267 44.3102 42.2627C44.4132 42.9992 44.4682 43.5931 44.4682 44.0318C44.4682 44.2496 44.4548 44.4527 44.4177 44.625C44.3868 44.7685 44.3137 45.0227 44.0888 45.1834L44.0867 45.1849L44.0846 45.1863C43.6993 45.456 43.2074 45.6145 42.6477 45.6947C42.1489 45.7701 41.6609 45.7798 41.2885 45.606L41.2819 45.6029L41.2754 45.5997C41.1011 45.5126 41.0058 45.3654 40.9606 45.2862C40.9067 45.1919 40.8644 45.0855 40.8295 44.9808L40.8214 44.9565L40.8156 44.9315C40.8036 44.8796 40.792 44.8415 40.7822 44.8147C40.2295 44.5118 39.6334 44.2486 38.9929 44.0258L38.9878 44.0241L38.9828 44.0222C37.4507 43.4547 35.8694 43.1073 34.2378 42.9796L33.9094 42.9539L33.7823 42.6501C32.9254 40.6022 32.453 39.4657 32.3737 39.2604C32.1148 38.6018 31.9343 38.0587 31.8447 37.6434C31.8003 37.4373 31.7725 37.2373 31.7781 37.0578C31.7831 36.8971 31.8176 36.6415 32.0125 36.4465L48.5035 19.9556C48.6331 19.826 48.7881 19.7754 48.8992 19.7539C49.0137 19.7318 49.1299 19.7313 49.2349 19.7386Z" fill="#231F20"/>
<path d="M20.6812 44.7759C20.9748 44.9814 21.3785 45.1209 21.8923 45.1943C22.3767 45.2677 22.729 45.253 22.9492 45.1502C23.0079 45.1209 23.0667 45.0181 23.1254 44.842C23.1694 44.6511 23.2281 44.519 23.3015 44.4456C23.3309 44.4163 23.3676 44.3943 23.4116 44.3796C23.9988 44.0566 24.63 43.7777 25.3053 43.5428C26.8907 42.9557 28.5274 42.596 30.2156 42.4639C31.0817 40.3941 31.5514 39.2638 31.6248 39.0729C32.1386 37.7665 32.3001 37.0178 32.1092 36.827L15.5508 20.2685C15.448 20.1658 15.1324 20.1878 14.6039 20.3346C14.0608 20.4961 13.7158 20.6649 13.569 20.841C13.4076 21.0319 13.1727 21.5016 12.8644 22.2503C12.5415 22.9842 12.2112 23.52 11.8736 23.8577C11.4332 24.2981 10.6625 24.6724 9.56154 24.9807C8.53398 25.2449 7.96882 25.4871 7.86606 25.7073C7.63119 26.177 7.49907 27.0872 7.46971 28.4377C7.411 29.7882 7.49173 30.6323 7.71193 30.9699C7.81468 31.1314 8.18167 31.2194 8.81289 31.2341C9.42943 31.2635 9.83311 31.1827 10.0239 30.9919C10.1854 30.8304 10.2808 30.691 10.3102 30.5735C10.3396 30.4561 10.3763 30.39 10.4203 30.3754C11.0662 29.9643 11.6974 29.612 12.3139 29.3184C13.7672 28.5991 14.9929 28.2248 15.9912 28.1955L19.5803 31.7846C18.8023 32.0341 17.8628 32.4305 16.7618 32.9736C16.4976 33.1791 16.3361 34.0012 16.2774 35.4398C16.1893 36.8784 16.2774 37.7298 16.5416 37.994C16.7031 38.1555 16.9967 38.2436 17.4224 38.2582C17.8481 38.2729 18.1857 38.2142 18.4353 38.0821C18.5821 37.9353 18.8536 37.6931 19.25 37.3554C19.9106 36.9004 21.3638 36.3866 23.6098 35.8141L25.9218 38.1261C25.2172 38.3023 24.3144 38.5885 23.2135 38.9849C22.0831 39.3812 21.4299 39.6675 21.2537 39.8436C21.0482 40.0491 20.8574 40.8859 20.6812 42.3538C20.4757 43.8218 20.4757 44.6291 20.6812 44.7759Z" fill="white"/>
<path fill-rule="evenodd" clip-rule="evenodd" d="M15.537 19.6827C15.6485 19.7042 15.8041 19.755 15.9343 19.8852L32.4927 36.4436C32.6885 36.6394 32.7231 36.8961 32.7281 37.0574C32.7338 37.2376 32.7058 37.4385 32.6612 37.6454C32.5712 38.0624 32.39 38.6078 32.13 39.2691C32.0504 39.4754 31.576 40.6165 30.7157 42.6726L30.5881 42.9776L30.2584 43.0034C28.62 43.1316 27.0323 43.4805 25.4939 44.0503L25.4889 44.0522L25.4838 44.0539C24.8407 44.2776 24.2421 44.5419 23.6872 44.846C23.6774 44.8729 23.6657 44.9112 23.6536 44.9634L23.6478 44.9884L23.6397 45.0128C23.6047 45.118 23.5621 45.2248 23.5081 45.3195C23.4626 45.399 23.3669 45.5468 23.192 45.6342L23.1854 45.6375L23.1788 45.6406C22.8048 45.8151 22.3148 45.8054 21.8139 45.7297C21.252 45.6491 20.7581 45.49 20.3712 45.2192L20.3691 45.2177L20.367 45.2162C20.1412 45.0549 20.0678 44.7996 20.0368 44.6556C19.9995 44.4825 19.9861 44.2787 19.9861 44.0599C19.9861 43.6195 20.0413 43.0231 20.1447 42.2836C20.2335 41.5446 20.3277 40.9487 20.429 40.5045C20.4797 40.2823 20.5348 40.0859 20.5967 39.9232C20.653 39.7752 20.7363 39.5953 20.8714 39.4603C20.9697 39.362 21.0967 39.2818 21.2122 39.2174C21.3364 39.1482 21.4869 39.0758 21.659 39.0004C22.0032 38.8495 22.4629 38.674 23.0326 38.4742C23.7228 38.2257 24.3404 38.0185 24.8843 37.8535L23.4461 36.4153C22.467 36.6708 21.6582 36.9121 21.0164 37.139C20.3202 37.3851 19.8527 37.6033 19.5794 37.7864C19.1952 38.114 18.946 38.3374 18.8188 38.4646L18.7612 38.5222L18.6892 38.5603C18.324 38.7537 17.8802 38.8155 17.4043 38.7991C16.947 38.7833 16.4728 38.6901 16.1592 38.3765C16.0065 38.2238 15.9175 38.0285 15.8606 37.8484C15.8018 37.662 15.7635 37.4468 15.7393 37.2126C15.6909 36.7454 15.6926 36.1411 15.7371 35.4118C15.7669 34.684 15.8234 34.0891 15.9117 33.6395C15.9559 33.4145 16.0112 33.2094 16.0831 33.0357C16.1512 32.8714 16.2559 32.6811 16.4299 32.5457L16.4734 32.5119L16.5228 32.4875C17.2824 32.1128 17.9729 31.8036 18.593 31.5622L15.7802 28.7494C14.9281 28.8213 13.8579 29.1584 12.5547 29.8034L12.551 29.8052L12.5473 29.807C11.9869 30.0739 11.4108 30.3925 10.8192 30.7639C10.7422 31.0032 10.573 31.2089 10.4074 31.3744C10.2064 31.5755 9.94016 31.6751 9.68482 31.7262C9.42549 31.7781 9.12454 31.7903 8.79428 31.775C8.46494 31.767 8.17418 31.7398 7.9384 31.6832C7.73451 31.6343 7.43049 31.5323 7.25747 31.2632C7.07141 30.9765 6.98901 30.5669 6.94768 30.1348C6.90407 29.6789 6.89935 29.1045 6.92896 28.4196C6.94402 27.734 6.9853 27.1471 7.05542 26.664C7.12416 26.1904 7.22542 25.7805 7.3797 25.4697C7.46526 25.2919 7.60842 25.171 7.72211 25.0923C7.84643 25.0063 7.99473 24.9306 8.15422 24.8623C8.47285 24.7257 8.89976 24.5915 9.42152 24.4572C10.4932 24.1566 11.1518 23.8137 11.4912 23.4743C11.759 23.2065 12.0559 22.7428 12.3667 22.0376C12.5225 21.6595 12.663 21.3437 12.7879 21.0939C12.908 20.8537 13.0304 20.6399 13.155 20.4922C13.2993 20.3197 13.5002 20.1934 13.7004 20.0955C13.9092 19.9933 14.162 19.9007 14.4502 19.8151L14.4548 19.8137L14.4595 19.8124C14.7373 19.7352 14.9888 19.682 15.1999 19.6673C15.3053 19.66 15.422 19.6605 15.537 19.6827ZM14.7541 20.8547C14.5015 20.93 14.3117 21.0021 14.1765 21.0683C14.109 21.1013 14.0608 21.1301 14.0279 21.1532C13.9965 21.1753 13.9855 21.1875 13.9855 21.1875L13.9843 21.1889L13.983 21.1904C13.9466 21.2335 13.8712 21.3494 13.7567 21.5782C13.6474 21.7968 13.5172 22.0882 13.3657 22.4561L13.3633 22.462L13.3607 22.468C13.0265 23.2274 12.6637 23.8335 12.2571 24.2402C11.7163 24.781 10.8352 25.1862 9.70811 25.5017L9.70255 25.5033L9.69696 25.5047C9.19374 25.6341 8.82624 25.7527 8.58088 25.8578C8.45779 25.9106 8.3813 25.9533 8.33864 25.9829C8.33669 25.9842 8.33486 25.9855 8.33316 25.9867C8.25971 26.15 8.18559 26.4181 8.12732 26.8196C8.06553 27.2452 8.0261 27.7867 8.0117 28.449L8.01157 28.4549L8.01132 28.4608C7.98249 29.1238 7.98887 29.6447 8.02588 30.0316C8.056 30.3465 8.10284 30.526 8.138 30.6155C8.15198 30.6199 8.16954 30.6248 8.19117 30.63C8.32081 30.6611 8.52685 30.6853 8.82603 30.6923L8.83262 30.6924L8.8392 30.6927C9.12289 30.7063 9.32976 30.6926 9.4724 30.6641C9.60299 30.638 9.64268 30.6069 9.64332 30.6068C9.70701 30.5429 9.74688 30.4941 9.77021 30.46C9.78044 30.445 9.78578 30.4354 9.78811 30.4309C9.80828 30.3525 9.83825 30.26 9.88688 30.1725C9.92509 30.1037 10.0075 29.9788 10.1594 29.8994C10.8103 29.4867 11.4499 29.1301 12.078 28.8308C13.5611 28.0971 14.8668 27.6863 15.9758 27.6537L16.2094 27.6468L20.5913 32.0288L19.7462 32.2999C19.0258 32.5309 18.1457 32.8988 17.102 33.4097C17.0969 33.4202 17.0907 33.4335 17.0838 33.4502C17.0494 33.5334 17.0111 33.6622 16.9745 33.8483C16.9016 34.2196 16.848 34.7532 16.8191 35.4615L16.8188 35.467L16.8185 35.4725C16.7752 36.1792 16.777 36.7181 16.8166 37.1011C16.8365 37.2927 16.8643 37.4297 16.8935 37.5222C16.911 37.5779 16.9254 37.6055 16.9309 37.6152C16.9426 37.6236 16.9737 37.6424 17.0391 37.662C17.1279 37.6887 17.2586 37.7103 17.4416 37.7166C17.766 37.7278 17.9828 37.6878 18.1222 37.631C18.2923 37.468 18.5544 37.2366 18.8994 36.9428L18.9205 36.9248L18.9433 36.9091C19.3339 36.64 19.9171 36.3788 20.6554 36.1178C21.403 35.8535 22.3448 35.5774 23.4766 35.2889L23.7753 35.2128L26.9817 38.4191L26.0537 38.6511C25.374 38.821 24.4903 39.1006 23.3974 39.494L23.3953 39.4948L23.3932 39.4955C22.8336 39.6918 22.4022 39.8572 22.0937 39.9924C21.9392 40.0601 21.8227 40.1171 21.7396 40.1635C21.6913 40.1904 21.6626 40.2092 21.6478 40.2194C21.6405 40.2334 21.627 40.2611 21.6091 40.3082C21.5719 40.406 21.5298 40.5491 21.485 40.7453C21.3958 41.1367 21.3067 41.6914 21.2195 42.4179L21.2189 42.4232L21.2181 42.4285C21.1165 43.1545 21.0692 43.694 21.0692 44.0599C21.0692 44.2158 21.078 44.3236 21.0892 44.3928C21.2885 44.5061 21.5739 44.6013 21.9694 44.6578L21.9717 44.6581L21.974 44.6584C22.2891 44.7062 22.4889 44.7038 22.6058 44.6877C22.6567 44.4791 22.7436 44.2379 22.9191 44.0623C22.9989 43.9825 23.0901 43.9253 23.1846 43.8864C23.789 43.5565 24.4353 43.2721 25.1228 43.0327C26.6498 42.4677 28.2235 42.1075 29.8429 41.9524C30.6306 40.0693 31.0537 39.0503 31.1199 38.8781L31.1206 38.8762L31.1214 38.8743C31.3748 38.2299 31.531 37.7483 31.6024 37.417C31.6316 37.2815 31.6429 37.1878 31.6453 37.128L15.2658 20.7485C15.1613 20.7569 14.9949 20.788 14.7541 20.8547ZM31.6432 37.0646C31.6433 37.0644 31.6439 37.0671 31.6445 37.0731C31.6433 37.0677 31.643 37.0647 31.6432 37.0646ZM21.1065 44.4659C21.1063 44.4662 21.1048 44.4629 21.1025 44.4551C21.1054 44.4616 21.1066 44.4655 21.1065 44.4659ZM8.31299 26.0027C8.31293 26.0027 8.31374 26.0019 8.31561 26.0003C8.31398 26.0019 8.31305 26.0027 8.31299 26.0027Z" fill="#231F20"/>
</g>
<defs>
<clipPath id="clip0_515:728">
<rect width="64" height="64" fill="white" transform="translate(0 0.5)"/>
</clipPath>
</defs>
</svg>
