<svg width="16" height="16" viewBox="0 0 16 16" fill="none" xmlns="http://www.w3.org/2000/svg">
<path d="M13.9428 0.811974C13.7476 0.616728 13.4311 0.61671 13.2358 0.811932L8.28556 5.76099C8.09029 5.95622 7.77374 5.9562 7.57849 5.76095L2.62956 0.812016C2.4343 0.616754 2.11771 0.616754 1.92245 0.812016L0.744225 1.99024C0.548963 2.18551 0.548963 2.50209 0.744225 2.69735L5.69312 7.64624C5.88838 7.84151 5.88838 8.15809 5.69312 8.35335L0.744225 13.3022C0.548963 13.4975 0.548963 13.8141 0.744225 14.0094L1.92245 15.1876C2.11771 15.3828 2.4343 15.3828 2.62956 15.1876L7.57849 10.2386C7.77374 10.0434 8.09029 10.0434 8.28556 10.2386L13.2358 15.1877C13.4311 15.3829 13.7476 15.3829 13.9428 15.1876L15.1211 14.0093C15.3164 13.8141 15.3164 13.4975 15.1211 13.3022L10.1722 8.35335C9.97696 8.15809 9.97696 7.84151 10.1722 7.64624L15.1211 2.69735C15.3164 2.50209 15.3164 2.1855 15.1211 1.99024L13.9428 0.811974Z" fill="white"/>
</svg>
