<?xml version="1.0" encoding="UTF-8" standalone="no"?>
<svg
   width="17.842613"
   height="20"
   viewBox="0 0 17.842613 20"
   fill="none"
   version="1.1"
   id="svg1050"
   xmlns="http://www.w3.org/2000/svg"
   xmlns:svg="http://www.w3.org/2000/svg">
  <defs
     id="defs1054" />
  <path
     d="m 7.0756967,8.554903 c -0.581737,0 -1.039967,0.509745 -1.039967,1.132244 0,0.62031 0.468984,1.132244 1.039967,1.132244 0.580579,0 1.038873,-0.511934 1.038873,-1.132244 0.01178,-0.623529 -0.458294,-1.132244 -1.038873,-1.132244 z m 3.7219873,0 c -0.581737,0 -1.0399673,0.509745 -1.0399673,1.132244 0,0.62031 0.4689843,1.132244 1.0399673,1.132244 0.580579,0 1.038873,-0.511934 1.038873,-1.132244 -0.0011,-0.623529 -0.458294,-1.132244 -1.038873,-1.132244 z"
     fill="#ffffff"
     id="path1046"
     style="stroke-width:0.643942" />
  <path
     d="M 15.753014,0 H 2.0895998 C 1.8144883,7.019e-4 1.5422038,0.0555915 1.2883037,0.1615201 1.0343972,0.267455 0.80384664,0.4223554 0.60980744,0.6173926 0.41577474,0.8124234 0.26205284,1.0437662 0.15741864,1.2982071 0.05279084,1.5526545 -7.0145508e-4,1.8252096 6.9449164e-6,2.1003275 V 15.884964 c 0,1.162315 0.9380114950836,2.100346 2.0895928550836,2.100346 H 13.224188 c 0.214046,0 0.368528,-0.205031 0.309479,-0.410835 L 13.42909,17.21039 c -0.08996,-0.313535 0.28971,-0.546707 0.528677,-0.324676 l 0.457972,0.425582 1.23315,1.141967 1.658537,1.46542 c 0.207865,0.183652 0.535181,0.03606 0.535181,-0.241285 V 2.1003275 C 17.843251,1.8252096 17.789804,1.5526545 17.685163,1.2982071 17.580522,1.0437662 17.426813,0.8124234 17.232794,0.6173926 17.038709,0.4223554 16.808178,0.267455 16.554271,0.1615201 16.300365,0.0555915 16.028106,7.019e-4 15.753014,0 Z m -3.936677,13.315633 c 0,0 -0.367047,-0.43788 -0.671825,-0.827465 1.335085,-0.377737 1.844895,-1.212737 1.844895,-1.212737 -0.418563,0.27477 -0.815682,0.470078 -1.17307,0.603181 -1.301086,0.544517 -2.7339223,0.693075 -4.1190423,0.427127 -0.51187,-0.10052 -1.013372,-0.247854 -1.498261,-0.440006 -0.255774,-0.09717 -0.504271,-0.212308 -0.743753,-0.344509 -0.0311,-0.02254 -0.06118,-0.03117 -0.09125,-0.05152 -0.01603,-0.0077 -0.03033,-0.01861 -0.04186,-0.0322 -0.183524,-0.100906 -0.28546,-0.171739 -0.28546,-0.171739 0,0 0.489396,0.815682 1.784815,1.203077 -0.305872,0.386366 -0.683673,0.846784 -0.683673,0.846784 -2.2527038,-0.07186 -3.1081169,-1.549711 -3.1081169,-1.549711 0,-3.283076 1.4681889,-5.943588 1.4681889,-5.943588 1.468195,-1.1022294 2.86452,-1.071127 2.86452,-1.071127 l 0.101936,0.122349 c -1.835236,0.531252 -2.68202,1.33618 -2.68202,1.33618 0,0 0.22538,-0.122349 0.602086,-0.295118 1.090388,-0.478643 1.95649,-0.611746 2.313878,-0.642848 0.06118,-0.0097 0.11269,-0.02041 0.173865,-0.02041 1.767879,-0.238259 3.5655093,0.09775 5.1279703,0.958379 0,0 -0.806022,-0.764102 -2.539322,-1.2943237 L 10.6036,4.7522977 c 0,0 1.397355,-0.031102 2.864449,1.0710693 0,0 1.468188,2.660577 1.468188,5.943588 0,0 -0.866102,1.476817 -3.1199,1.548681 z"
     fill="#ffffff"
     id="path1048"
     style="stroke-width:0.643942" />
</svg>
